/* XPM */
static char * brick_xpm[] = {
"128 128 16 1",
"0 c #000000",
"1 c #111111",
"2 c #222222",
"3 c #333333",
"4 c #444444",
"5 c #555555",
"6 c #666666",
"7 c #777777",
"8 c #888888",
"9 c #999999",
"A c #AAAAAA",
"B c #BBBBBB",
"C c #CCCCCC",
"D c #DDDDDD",
"E c #EEEEEE",
"F c #FFFFFF",
"23333333333332222222222222233333333333222222222222223333333333332222222222222233333333333222222222222222333333333332222222222222",
"23333333333322222222222222233333333333222222222222222333333333332222222222222233333333333222222222222222333333333332222222222222",
"22FFFFFFFFFFEEEEEDDDDDEEEEEEFF3333FFFEEEEEEDDDDDEEEEEFFFFFFFFF3222EEEDDDDEEEEEEFFFFFFFFFEEEEEE2212DEEEEEEFFFFFFFFFEEEEEEDDDDEE22",
"22EFFFFFFFFEEEEEEDDDDDDEEEEEFF3333FFFEEEEEDDDDDDEEEEEEFFFFFFFF3222EEDDDDDDEEEEEFFFFFFFFFEEEEEE2111DEEEEEEFFFFFFFFFEEEEEDDDDDDE22",
"22EFFFFFFFFEEEEEDDDDDDDEEEEEEF3333FFEEEEEEDDDDDDDEEEEEFFFFFFFF2222EDDDDDDDEEEEEEFFFFFFFEEEEEED1111DDEEEEEEFFFFFFFEEEEEEDDDDDDD22",
"22EEFFFFFFEEEEEDDDDDDDDDEEEEEE3333FEEEEEEDDDDDDDDDEEEEEFFFFFFE2222EDDDDDDDDEEEEEEFFFFFEEEEEEDD1111DDDEEEEEEFFFFFEEEEEEDDDDDDDD22",
"22EEEEFFEEEEEEEDDDDDDDDDDEEEEE3333EEEEEEDDDDDDDDDDEEEEEEEFFEEE2222DDDDDDDDDDEEEEEEFFFEEEEEEDDD1111DDDDEEEEEEFFFEEEEEEDDDDDDDDD12",
"22EEEEEEEEEEEEDDDDDDDDDDDDEEEE2232EEEEEDDDDDDDDDDDDEEEEEEEEEEE2222DDDDDDDDDDDEEEEEEEEEEEEEEDDD1111DDDDEEEEEEEEEEEEEEDDDDDDDDDD12",
"22EEEEEEEEEEEDDDDDDDDDDDDDEEEE2222EEEEEDDDDDDDDDDDDDEEEEEEEEEE2221DDDDDDDDDDDDEEEEEEEEEEEEDDDD1111DDDDDEEEEEEEEEEEEDDDDDDDDDDD11",
"12EEEEEEEEEEDDDDDDDDDDDDDDDEEE2222EEEEDDDDDDDDDDDDDDDEEEEEEEEE2211DDDDDDDDDDDDEEEEEEEEEEEDDDDD1111DDDDDDEEEEEEEEEEEDDDDDDDDDDD11",
"11EEEEEEEEEDDDDDDCCCCCDDDDDDEE2222EEEDDDDDDCCCCCDDDDDDEEEEEEEE2111DDCCCCCDDDDDDEEEEEEEEEDDDDDD1000CDDDDDDEEEEEEEEEDDDDDDCCCCCD11",
"11DEEEEEEEEDDDDDCCCCCCCDDDDDDE2222EEDDDDDDCCCCCCCDDDDDEEEEEEEE1111DCCCCCCCDDDDDDEEEEEEEDDDDDDC0000CCDDDDDDEEEEEEEDDDDDDCCCCCCC11",
"11DDEEEEEEDDDDDCCCCCCCCCDDDDDD2222EDDDDDDCCCCCCCCCDDDDDEEEEEED1111DCCCCCCCCDDDDDDEEEEEDDDDDDCC0000CCCDDDDDDEEEEEDDDDDDCCCCCCCC11",
"11DDDEEEEDDDDDDCCCCCCCCCCDDDDD2222DDDDDDCCCCCCCCCCDDDDDDEEEEDD1111CCCCCCCCCCDDDDDDEEEEDDDDDDCC0000CCCDDDDDDEEEEDDDDDDCCCCCCCCC11",
"11111222211111100000000011111122222111111000000000111111222211111100000000001111122222111111000000000111111222221111100000000001",
"11111222211111100000000001111112221111110000000000111111222211111100000000001111112221111111000000000111111122211111100000000001",
"11111222111111100000000001111112221111110000000000111111122211111100000000001111112221111110000000000011111122211111100000000001",
"11111222211111100000000001111112221111110000000000111111222211111100000000001111112221111111000000000111111122211111100000000001",
"DDDDDDEDDDDDDD1000CCCCCCCDDDDDDDEDDDDDDDCCCCCC0000CDDDDDDDEDDDDDDDCCCCCCCCCCDD1112DEDDDDDDDCCCCCCCCCCCDDDDDDDE2211DDDCCCCCCCCCCD",
"DDDDDEEEEDDDDD1000CCCCCCCDDDDDDEEEDDDDDDCCCCCC0000DDDDDDEEEEDDDDDDCCCCCCCCCCDD1112EEEEDDDDDDCCCCCCCCCDDDDDDEEE2211DDDCCCCCCCCCCD",
"DDDDEEEEEEDDDD1100CCCCCCDDDDDDEEEEEDDDDDDCCCCC0001DDDDDEEEEEEDDDDDDCCCCCCCCDDD1122EEEEDDDDDDCCCCCCCCCDDDDDDEEE2221DDDDCCCCCCCCDD",
"DDDEEEEEEEEDDD1110CCCCCDDDDDDEEEEEEEDDDDDDCCCC0011DDDDEEEEEEEEDDDDDCCCCCCCDDDD1222EEEEEDDDDDDCCCCCCCDDDDDDEEEE2222DDDDDCCCCCCCDD",
"DDEEEEEEEEEDDD1111CCCCDDDDDDEEEEEEEEEDDDDDDCCC0111DDDDEEEEEEEEEDDDDDCCCCCDDDDD1222EEEEEEDDDDDDCCCCCDDDDDDEEEEE2222DDDDDDCCCCCDDD",
"DDEEEEEEEEEEDD1111DDDDDDDDDEEEEEEEEEEEDDDDDDDD1111DDDEEEEEEEEEEDDDDDDDDDDDDDDD2222EEEEEEEDDDDDDDCDDDDDDDEEEEEE2222EDDDDDDDDDDDDD",
"DEEEEEEEEEEEED1111DDDDDDDDEEEEEEEEEEEEEDDDDDDD1111DDEEEEEEEEEEEEDDDDDDDDDDDDDD2222EEEEEEEEDDDDDDDDDDDDDEEEEEEE2222EDDDDDDDDDDDDD",
"EEEEEEEEEEEEEE1111DDDDDDDDEEEEEEEEEEEEEDDDDDDD1111DEEEEEEEEEEEEEEDDDDDDDDDDDDE2222EEEEEEEEEDDDDDDDDDDDEEEEEEEE2222EEDDDDDDDDDDDD",
"EEEEEEFFEEEEEE2111DDDDDDDEEEEEEFFFEEEEEEDDDDDD1111EEEEEEEFFEEEEEEEDDDDDDDDDDEE2223FFFEEEEEEDDDDDDDDDDDEEEEEEFF3322EEEDDDDDDDDDDE",
"EEEEFFFFFFEEEE2211DDDDDDEEEEEEFFFFFEEEEEEDDDDD1112EEEEEFFFFFFEEEEEEDDDDDDDDEEE2233FFFFEEEEEEDDDDDDDDDEEEEEEFFF3332EEEEDDDDDDDDEE",
"EEEFFFFFFFFEEE2221DDDDDEEEEEEFFFFFFFEEEEEEDDDD1122EEEEFFFFFFFFEEEEEDDDDDDDEEEE2333FFFFFEEEEEEDDDDDDDEEEEEEFFFF3333EEEEEDDDDDDDEE",
"EEEFFFFFFFFEEE2222DDDDDEEEEEFFFFFFFFFEEEEEDDDD1222EEEEFFFFFFFFEEEEEEDDDDDDEEEE2333FFFFFFEEEEEEDDDDDEEEEEEFFFFF3333EEEEEDDDDDDEEE",
"22333333333322222221222222233333333333222222212222222333333333322222221222222233333333333222222212222222333333333332222222122222",
"23333333333322222222222222233333333333222222222222222333333333332222222222222233333333333222222222222222333333333332222222222222",
"23333333333332222222222222233333333333222222222222223333333333332222222222222233333333333222222222222222333333333332222222222222",
"23333333333322222222222222233333333333222222222222222333333333332222222222222233333333333222222222222222333333333332222222222222",
"22FFFFFFFFFFEEEEEDDDDDEEEEEEFF3333FFFEEEEEEDDDDDEEEEEFFFFFFFFF3222EEEDDDDEEEEEEFFFFFFFFFEEEEEE2212DEEEEEEFFFFFFFFFEEEEEEDDDDEE22",
"22EFFFFFFFFEEEEEEDDDDDDEEEEEFF3333FFFEEEEEDDDDDDEEEEEEFFFFFFFF3222EEDDDDDDEEEEEFFFFFFFFFEEEEEE2111DEEEEEEFFFFFFFFFEEEEEDDDDDDE22",
"22EFFFFFFFFEEEEEDDDDDDDEEEEEEF3333FFEEEEEEDDDDDDDEEEEEFFFFFFFF2222EDDDDDDDEEEEEEFFFFFFFEEEEEED1111DDEEEEEEFFFFFFFEEEEEEDDDDDDD22",
"22EEFFFFFFEEEEEDDDDDDDDDEEEEEE3333FEEEEEEDDDDDDDDDEEEEEFFFFFFE2222EDDDDDDDDEEEEEEFFFFFEEEEEEDD1111DDDEEEEEEFFFFFEEEEEEDDDDDDDD22",
"22EEEEFFEEEEEEEDDDDDDDDDDEEEEE3333EEEEEEDDDDDDDDDDEEEEEEEFFEEE2222DDDDDDDDDDEEEEEEFFFEEEEEEDDD1111DDDDEEEEEEFFFEEEEEEDDDDDDDDD12",
"22EEEEEEEEEEEEDDDDDDDDDDDDEEEE2232EEEEEDDDDDDDDDDDDEEEEEEEEEEE2222DDDDDDDDDDDEEEEEEEEEEEEEEDDD1111DDDDEEEEEEEEEEEEEEDDDDDDDDDD12",
"22EEEEEEEEEEEDDDDDDDDDDDDDEEEE2222EEEEEDDDDDDDDDDDDDEEEEEEEEEE2221DDDDDDDDDDDDEEEEEEEEEEEEDDDD1111DDDDDEEEEEEEEEEEEDDDDDDDDDDD11",
"12EEEEEEEEEEDDDDDDDDDDDDDDDEEE2222EEEEDDDDDDDDDDDDDDDEEEEEEEEE2211DDDDDDDDDDDDEEEEEEEEEEEDDDDD1111DDDDDDEEEEEEEEEEEDDDDDDDDDDD11",
"11EEEEEEEEEDDDDDDCCCCCDDDDDDEE2222EEEDDDDDDCCCCCDDDDDDEEEEEEEE2111DDCCCCCDDDDDDEEEEEEEEEDDDDDD1000CDDDDDDEEEEEEEEEDDDDDDCCCCCD11",
"11DEEEEEEEEDDDDDCCCCCCCDDDDDDE2222EEDDDDDDCCCCCCCDDDDDEEEEEEEE1111DCCCCCCCDDDDDDEEEEEEEDDDDDDC0000CCDDDDDDEEEEEEEDDDDDDCCCCCCC11",
"11DDEEEEEEDDDDDCCCCCCCCCDDDDDD2222EDDDDDDCCCCCCCCCDDDDDEEEEEED1111DCCCCCCCCDDDDDDEEEEEDDDDDDCC0000CCCDDDDDDEEEEEDDDDDDCCCCCCCC11",
"11DDDEEEEDDDDDDCCCCCCCCCCDDDDD2222DDDDDDCCCCCCCCCCDDDDDDEEEEDD1111CCCCCCCCCCDDDDDDEEEEDDDDDDCC0000CCCDDDDDDEEEEDDDDDDCCCCCCCCC11",
"11111222211111100000000011111122222111111000000000111111222211111100000000001111122222111111000000000111111222221111100000000001",
"11111222211111100000000001111112221111110000000000111111222211111100000000001111112221111111000000000111111122211111100000000001",
"11111222111111100000000001111112221111110000000000111111122211111100000000001111112221111110000000000011111122211111100000000001",
"11111222211111100000000001111112221111110000000000111111222211111100000000001111112221111111000000000111111122211111100000000001",
"DDDDDDEDDDDDDD1000CCCCCCCDDDDDDDEDDDDDDDCCCCCC0000CDDDDDDDEDDDDDDDCCCCCCCCCCDD1112DEDDDDDDDCCCCCCCCCCCDDDDDDDE2211DDDCCCCCCCCCCD",
"DDDDDEEEEDDDDD1000CCCCCCCDDDDDDEEEDDDDDDCCCCCC0000DDDDDDEEEEDDDDDDCCCCCCCCCCDD1112EEEEDDDDDDCCCCCCCCCDDDDDDEEE2211DDDCCCCCCCCCCD",
"DDDDEEEEEEDDDD1100CCCCCCDDDDDDEEEEEDDDDDDCCCCC0001DDDDDEEEEEEDDDDDDCCCCCCCCDDD1122EEEEDDDDDDCCCCCCCCCDDDDDDEEE2221DDDDCCCCCCCCDD",
"DDDEEEEEEEEDDD1110CCCCCDDDDDDEEEEEEEDDDDDDCCCC0011DDDDEEEEEEEEDDDDDCCCCCCCDDDD1222EEEEEDDDDDDCCCCCCCDDDDDDEEEE2222DDDDDCCCCCCCDD",
"DDEEEEEEEEEDDD1111CCCCDDDDDDEEEEEEEEEDDDDDDCCC0111DDDDEEEEEEEEEDDDDDCCCCCDDDDD1222EEEEEEDDDDDDCCCCCDDDDDDEEEEE2222DDDDDDCCCCCDDD",
"DDEEEEEEEEEEDD1111DDDDDDDDDEEEEEEEEEEEDDDDDDDD1111DDDEEEEEEEEEEDDDDDDDDDDDDDDD2222EEEEEEEDDDDDDDCDDDDDDDEEEEEE2222EDDDDDDDDDDDDD",
"DEEEEEEEEEEEED1111DDDDDDDDEEEEEEEEEEEEEDDDDDDD1111DDEEEEEEEEEEEEDDDDDDDDDDDDDD2222EEEEEEEEDDDDDDDDDDDDDEEEEEEE2222EDDDDDDDDDDDDD",
"EEEEEEEEEEEEEE1111DDDDDDDDEEEEEEEEEEEEEDDDDDDD1111DEEEEEEEEEEEEEEDDDDDDDDDDDDE2222EEEEEEEEEDDDDDDDDDDDEEEEEEEE2222EEDDDDDDDDDDDD",
"EEEEEEFFEEEEEE2111DDDDDDDEEEEEEFFFEEEEEEDDDDDD1111EEEEEEEFFEEEEEEEDDDDDDDDDDEE2223FFFEEEEEEDDDDDDDDDDDEEEEEEFF3322EEEDDDDDDDDDDE",
"EEEEFFFFFFEEEE2211DDDDDDEEEEEEFFFFFEEEEEEDDDDD1112EEEEEFFFFFFEEEEEEDDDDDDDDEEE2233FFFFEEEEEEDDDDDDDDDEEEEEEFFF3332EEEEDDDDDDDDEE",
"EEEFFFFFFFFEEE2221DDDDDEEEEEEFFFFFFFEEEEEEDDDD1122EEEEFFFFFFFFEEEEEDDDDDDDEEEE2333FFFFFEEEEEEDDDDDDDEEEEEEFFFF3333EEEEEDDDDDDDEE",
"EEEFFFFFFFFEEE2222DDDDDEEEEEFFFFFFFFFEEEEEDDDD1222EEEEFFFFFFFFEEEEEEDDDDDDEEEE2333FFFFFFEEEEEEDDDDDEEEEEEFFFFF3333EEEEEDDDDDDEEE",
"22333333333322222221222222233333333333222222212222222333333333322222221222222233333333333222222212222222333333333332222222122222",
"23333333333322222222222222233333333333222222222222222333333333332222222222222233333333333222222222222222333333333332222222222222",
"23333333333332222222222222233333333333222222222222223333333333332222222222222233333333333222222222222222333333333332222222222222",
"23333333333322222222222222233333333333222222222222222333333333332222222222222233333333333222222222222222333333333332222222222222",
"22FFFFFFFFFFEEEEEDDDDDEEEEEEFF3333FFFEEEEEEDDDDDEEEEEFFFFFFFFF3222EEEDDDDEEEEEEFFFFFFFFFEEEEEE2212DEEEEEEFFFFFFFFFEEEEEEDDDDEE22",
"22EFFFFFFFFEEEEEEDDDDDDEEEEEFF3333FFFEEEEEDDDDDDEEEEEEFFFFFFFF3222EEDDDDDDEEEEEFFFFFFFFFEEEEEE2111DEEEEEEFFFFFFFFFEEEEEDDDDDDE22",
"22EFFFFFFFFEEEEEDDDDDDDEEEEEEF3333FFEEEEEEDDDDDDDEEEEEFFFFFFFF2222EDDDDDDDEEEEEEFFFFFFFEEEEEED1111DDEEEEEEFFFFFFFEEEEEEDDDDDDD22",
"22EEFFFFFFEEEEEDDDDDDDDDEEEEEE3333FEEEEEEDDDDDDDDDEEEEEFFFFFFE2222EDDDDDDDDEEEEEEFFFFFEEEEEEDD1111DDDEEEEEEFFFFFEEEEEEDDDDDDDD22",
"22EEEEFFEEEEEEEDDDDDDDDDDEEEEE3333EEEEEEDDDDDDDDDDEEEEEEEFFEEE2222DDDDDDDDDDEEEEEEFFFEEEEEEDDD1111DDDDEEEEEEFFFEEEEEEDDDDDDDDD12",
"22EEEEEEEEEEEEDDDDDDDDDDDDEEEE2232EEEEEDDDDDDDDDDDDEEEEEEEEEEE2222DDDDDDDDDDDEEEEEEEEEEEEEEDDD1111DDDDEEEEEEEEEEEEEEDDDDDDDDDD12",
"22EEEEEEEEEEEDDDDDDDDDDDDDEEEE2222EEEEEDDDDDDDDDDDDDEEEEEEEEEE2221DDDDDDDDDDDDEEEEEEEEEEEEDDDD1111DDDDDEEEEEEEEEEEEDDDDDDDDDDD11",
"12EEEEEEEEEEDDDDDDDDDDDDDDDEEE2222EEEEDDDDDDDDDDDDDDDEEEEEEEEE2211DDDDDDDDDDDDEEEEEEEEEEEDDDDD1111DDDDDDEEEEEEEEEEEDDDDDDDDDDD11",
"11EEEEEEEEEDDDDDDCCCCCDDDDDDEE2222EEEDDDDDDCCCCCDDDDDDEEEEEEEE2111DDCCCCCDDDDDDEEEEEEEEEDDDDDD1000CDDDDDDEEEEEEEEEDDDDDDCCCCCD11",
"11DEEEEEEEEDDDDDCCCCCCCDDDDDDE2222EEDDDDDDCCCCCCCDDDDDEEEEEEEE1111DCCCCCCCDDDDDDEEEEEEEDDDDDDC0000CCDDDDDDEEEEEEEDDDDDDCCCCCCC11",
"11DDEEEEEEDDDDDCCCCCCCCCDDDDDD2222EDDDDDDCCCCCCCCCDDDDDEEEEEED1111DCCCCCCCCDDDDDDEEEEEDDDDDDCC0000CCCDDDDDDEEEEEDDDDDDCCCCCCCC11",
"11DDDEEEEDDDDDDCCCCCCCCCCDDDDD2222DDDDDDCCCCCCCCCCDDDDDDEEEEDD1111CCCCCCCCCCDDDDDDEEEEDDDDDDCC0000CCCDDDDDDEEEEDDDDDDCCCCCCCCC11",
"11111222211111100000000011111122222111111000000000111111222211111100000000001111122222111111000000000111111222221111100000000001",
"11111222211111100000000001111112221111110000000000111111222211111100000000001111112221111111000000000111111122211111100000000001",
"11111222111111100000000001111112221111110000000000111111122211111100000000001111112221111110000000000011111122211111100000000001",
"11111222211111100000000001111112221111110000000000111111222211111100000000001111112221111111000000000111111122211111100000000001",
"DDDDDDEDDDDDDD1000CCCCCCCDDDDDDDEDDDDDDDCCCCCC0000CDDDDDDDEDDDDDDDCCCCCCCCCCDD1112DEDDDDDDDCCCCCCCCCCCDDDDDDDE2211DDDCCCCCCCCCCD",
"DDDDDEEEEDDDDD1000CCCCCCCDDDDDDEEEDDDDDDCCCCCC0000DDDDDDEEEEDDDDDDCCCCCCCCCCDD1112EEEEDDDDDDCCCCCCCCCDDDDDDEEE2211DDDCCCCCCCCCCD",
"DDDDEEEEEEDDDD1100CCCCCCDDDDDDEEEEEDDDDDDCCCCC0001DDDDDEEEEEEDDDDDDCCCCCCCCDDD1122EEEEDDDDDDCCCCCCCCCDDDDDDEEE2221DDDDCCCCCCCCDD",
"DDDEEEEEEEEDDD1110CCCCCDDDDDDEEEEEEEDDDDDDCCCC0011DDDDEEEEEEEEDDDDDCCCCCCCDDDD1222EEEEEDDDDDDCCCCCCCDDDDDDEEEE2222DDDDDCCCCCCCDD",
"DDEEEEEEEEEDDD1111CCCCDDDDDDEEEEEEEEEDDDDDDCCC0111DDDDEEEEEEEEEDDDDDCCCCCDDDDD1222EEEEEEDDDDDDCCCCCDDDDDDEEEEE2222DDDDDDCCCCCDDD",
"DDEEEEEEEEEEDD1111DDDDDDDDDEEEEEEEEEEEDDDDDDDD1111DDDEEEEEEEEEEDDDDDDDDDDDDDDD2222EEEEEEEDDDDDDDCDDDDDDDEEEEEE2222EDDDDDDDDDDDDD",
"DEEEEEEEEEEEED1111DDDDDDDDEEEEEEEEEEEEEDDDDDDD1111DDEEEEEEEEEEEEDDDDDDDDDDDDDD2222EEEEEEEEDDDDDDDDDDDDDEEEEEEE2222EDDDDDDDDDDDDD",
"EEEEEEEEEEEEEE1111DDDDDDDDEEEEEEEEEEEEEDDDDDDD1111DEEEEEEEEEEEEEEDDDDDDDDDDDDE2222EEEEEEEEEDDDDDDDDDDDEEEEEEEE2222EEDDDDDDDDDDDD",
"EEEEEEFFEEEEEE2111DDDDDDDEEEEEEFFFEEEEEEDDDDDD1111EEEEEEEFFEEEEEEEDDDDDDDDDDEE2223FFFEEEEEEDDDDDDDDDDDEEEEEEFF3322EEEDDDDDDDDDDE",
"EEEEFFFFFFEEEE2211DDDDDDEEEEEEFFFFFEEEEEEDDDDD1112EEEEEFFFFFFEEEEEEDDDDDDDDEEE2233FFFFEEEEEEDDDDDDDDDEEEEEEFFF3332EEEEDDDDDDDDEE",
"EEEFFFFFFFFEEE2221DDDDDEEEEEEFFFFFFFEEEEEEDDDD1122EEEEFFFFFFFFEEEEEDDDDDDDEEEE2333FFFFFEEEEEEDDDDDDDEEEEEEFFFF3333EEEEEDDDDDDDEE",
"EEEFFFFFFFFEEE2222DDDDDEEEEEFFFFFFFFFEEEEEDDDD1222EEEEFFFFFFFFEEEEEEDDDDDDEEEE2333FFFFFFEEEEEEDDDDDEEEEEEFFFFF3333EEEEEDDDDDDEEE",
"22333333333322222221222222233333333333222222212222222333333333322222221222222233333333333222222212222222333333333332222222122222",
"23333333333322222222222222233333333333222222222222222333333333332222222222222233333333333222222222222222333333333332222222222222",
"23333333333332222222222222233333333333222222222222223333333333332222222222222233333333333222222222222222333333333332222222222222",
"23333333333322222222222222233333333333222222222222222333333333332222222222222233333333333222222222222222333333333332222222222222",
"22FFFFFFFFFFEEEEEDDDDDEEEEEEFF3333FFFEEEEEEDDDDDEEEEEFFFFFFFFF3222EEEDDDDEEEEEEFFFFFFFFFEEEEEE2212DEEEEEEFFFFFFFFFEEEEEEDDDDEE22",
"22EFFFFFFFFEEEEEEDDDDDDEEEEEFF3333FFFEEEEEDDDDDDEEEEEEFFFFFFFF3222EEDDDDDDEEEEEFFFFFFFFFEEEEEE2111DEEEEEEFFFFFFFFFEEEEEDDDDDDE22",
"22EFFFFFFFFEEEEEDDDDDDDEEEEEEF3333FFEEEEEEDDDDDDDEEEEEFFFFFFFF2222EDDDDDDDEEEEEEFFFFFFFEEEEEED1111DDEEEEEEFFFFFFFEEEEEEDDDDDDD22",
"22EEFFFFFFEEEEEDDDDDDDDDEEEEEE3333FEEEEEEDDDDDDDDDEEEEEFFFFFFE2222EDDDDDDDDEEEEEEFFFFFEEEEEEDD1111DDDEEEEEEFFFFFEEEEEEDDDDDDDD22",
"22EEEEFFEEEEEEEDDDDDDDDDDEEEEE3333EEEEEEDDDDDDDDDDEEEEEEEFFEEE2222DDDDDDDDDDEEEEEEFFFEEEEEEDDD1111DDDDEEEEEEFFFEEEEEEDDDDDDDDD12",
"22EEEEEEEEEEEEDDDDDDDDDDDDEEEE2232EEEEEDDDDDDDDDDDDEEEEEEEEEEE2222DDDDDDDDDDDEEEEEEEEEEEEEEDDD1111DDDDEEEEEEEEEEEEEEDDDDDDDDDD12",
"22EEEEEEEEEEEDDDDDDDDDDDDDEEEE2222EEEEEDDDDDDDDDDDDDEEEEEEEEEE2221DDDDDDDDDDDDEEEEEEEEEEEEDDDD1111DDDDDEEEEEEEEEEEEDDDDDDDDDDD11",
"12EEEEEEEEEEDDDDDDDDDDDDDDDEEE2222EEEEDDDDDDDDDDDDDDDEEEEEEEEE2211DDDDDDDDDDDDEEEEEEEEEEEDDDDD1111DDDDDDEEEEEEEEEEEDDDDDDDDDDD11",
"11EEEEEEEEEDDDDDDCCCCCDDDDDDEE2222EEEDDDDDDCCCCCDDDDDDEEEEEEEE2111DDCCCCCDDDDDDEEEEEEEEEDDDDDD1000CDDDDDDEEEEEEEEEDDDDDDCCCCCD11",
"11DEEEEEEEEDDDDDCCCCCCCDDDDDDE2222EEDDDDDDCCCCCCCDDDDDEEEEEEEE1111DCCCCCCCDDDDDDEEEEEEEDDDDDDC0000CCDDDDDDEEEEEEEDDDDDDCCCCCCC11",
"11DDEEEEEEDDDDDCCCCCCCCCDDDDDD2222EDDDDDDCCCCCCCCCDDDDDEEEEEED1111DCCCCCCCCDDDDDDEEEEEDDDDDDCC0000CCCDDDDDDEEEEEDDDDDDCCCCCCCC11",
"11DDDEEEEDDDDDDCCCCCCCCCCDDDDD2222DDDDDDCCCCCCCCCCDDDDDDEEEEDD1111CCCCCCCCCCDDDDDDEEEEDDDDDDCC0000CCCDDDDDDEEEEDDDDDDCCCCCCCCC11",
"11111222211111100000000011111122222111111000000000111111222211111100000000001111122222111111000000000111111222221111100000000001",
"11111222211111100000000001111112221111110000000000111111222211111100000000001111112221111111000000000111111122211111100000000001",
"11111222111111100000000001111112221111110000000000111111122211111100000000001111112221111110000000000011111122211111100000000001",
"11111222211111100000000001111112221111110000000000111111222211111100000000001111112221111111000000000111111122211111100000000001",
"DDDDDDEDDDDDDD1000CCCCCCCDDDDDDDEDDDDDDDCCCCCC0000CDDDDDDDEDDDDDDDCCCCCCCCCCDD1112DEDDDDDDDCCCCCCCCCCCDDDDDDDE2211DDDCCCCCCCCCCD",
"DDDDDEEEEDDDDD1000CCCCCCCDDDDDDEEEDDDDDDCCCCCC0000DDDDDDEEEEDDDDDDCCCCCCCCCCDD1112EEEEDDDDDDCCCCCCCCCDDDDDDEEE2211DDDCCCCCCCCCCD",
"DDDDEEEEEEDDDD1100CCCCCCDDDDDDEEEEEDDDDDDCCCCC0001DDDDDEEEEEEDDDDDDCCCCCCCCDDD1122EEEEDDDDDDCCCCCCCCCDDDDDDEEE2221DDDDCCCCCCCCDD",
"DDDEEEEEEEEDDD1110CCCCCDDDDDDEEEEEEEDDDDDDCCCC0011DDDDEEEEEEEEDDDDDCCCCCCCDDDD1222EEEEEDDDDDDCCCCCCCDDDDDDEEEE2222DDDDDCCCCCCCDD",
"DDEEEEEEEEEDDD1111CCCCDDDDDDEEEEEEEEEDDDDDDCCC0111DDDDEEEEEEEEEDDDDDCCCCCDDDDD1222EEEEEEDDDDDDCCCCCDDDDDDEEEEE2222DDDDDDCCCCCDDD",
"DDEEEEEEEEEEDD1111DDDDDDDDDEEEEEEEEEEEDDDDDDDD1111DDDEEEEEEEEEEDDDDDDDDDDDDDDD2222EEEEEEEDDDDDDDCDDDDDDDEEEEEE2222EDDDDDDDDDDDDD",
"DEEEEEEEEEEEED1111DDDDDDDDEEEEEEEEEEEEEDDDDDDD1111DDEEEEEEEEEEEEDDDDDDDDDDDDDD2222EEEEEEEEDDDDDDDDDDDDDEEEEEEE2222EDDDDDDDDDDDDD",
"EEEEEEEEEEEEEE1111DDDDDDDDEEEEEEEEEEEEEDDDDDDD1111DEEEEEEEEEEEEEEDDDDDDDDDDDDE2222EEEEEEEEEDDDDDDDDDDDEEEEEEEE2222EEDDDDDDDDDDDD",
"EEEEEEFFEEEEEE2111DDDDDDDEEEEEEFFFEEEEEEDDDDDD1111EEEEEEEFFEEEEEEEDDDDDDDDDDEE2223FFFEEEEEEDDDDDDDDDDDEEEEEEFF3322EEEDDDDDDDDDDE",
"EEEEFFFFFFEEEE2211DDDDDDEEEEEEFFFFFEEEEEEDDDDD1112EEEEEFFFFFFEEEEEEDDDDDDDDEEE2233FFFFEEEEEEDDDDDDDDDEEEEEEFFF3332EEEEDDDDDDDDEE",
"EEEFFFFFFFFEEE2221DDDDDEEEEEEFFFFFFFEEEEEEDDDD1122EEEEFFFFFFFFEEEEEDDDDDDDEEEE2333FFFFFEEEEEEDDDDDDDEEEEEEFFFF3333EEEEEDDDDDDDEE",
"EEEFFFFFFFFEEE2222DDDDDEEEEEFFFFFFFFFEEEEEDDDD1222EEEEFFFFFFFFEEEEEEDDDDDDEEEE2333FFFFFFEEEEEEDDDDDEEEEEEFFFFF3333EEEEEDDDDDDEEE",
"22333333333322222221222222233333333333222222212222222333333333322222221222222233333333333222222212222222333333333332222222122222",
"23333333333322222222222222233333333333222222222222222333333333332222222222222233333333333222222222222222333333333332222222222222"
};