/* XPM */
static char * craters_xpm[] = {
"128 128 16 1",
"0 c #000000",
"1 c #111111",
"2 c #222222",
"3 c #333333",
"4 c #444444",
"5 c #555555",
"6 c #666666",
"7 c #777777",
"8 c #888888",
"9 c #999999",
"A c #AAAAAA",
"B c #BBBBBB",
"C c #CCCCCC",
"D c #DDDDDD",
"E c #EEEEEE",
"F c #FFFFFF",
"EEEDDCBBCDDEEEFFFFFFFFFFFFFFFFFEFFFFFFEFFFFFFFFFEEEDEEEEFFFFFFFFFFFFFFFFFEFFFEFFFFFFFFFFFFFFFFFFFEEEEFFFFFFFFFFFFFFFFFFFFFFFFFFF",
"EEEDDCBCCDEEEFFFFFFFFFFFFFEFFFFFEFFFFFFFFFFFFFFFEEEDDEEEFFFFFFFFFFFFFFFFFFFFFFFFFFFFFFFFFFFFFFFFFEEEFFFFFFFFFFFFFFFFFFEFFFFFFFFF",
"EEEDDCCCDDEEEFFFFFFFFFFEFFFFFFFFFFFFFFFFFFFFFFFFEEEDDEEEEFFFFFFFFFFFFFFFFFFFFFFFFFFFFFFFFFFFFFFFEEEEFFFFFFFFFEFFFFFFFFFFFFFFFFFF",
"EEEDDDCCDDEEEFFFFFFFFFEFFFFFFFFFFFFFFFFFFFFFFFFEEEDDDDEEEEFFFFFFFFFFFFFFFFFFFFFFFFFFFFFFFFFFFFFEEEEEFFFFFFFFFEFFFFFFFFFFFFFFFFFF",
"EEEEDDDCDDEEEFFFFFFFFFFFFFFFFFFFFFFFFFFFFFFFFFFEEEDDCDDEEEEFFFFFFFFFFFFFFFFFFFFFFFFFFFFFFFFFFFEEEEEEFFFFFFFFFFFFFFFFFFEFFFFFFFFF",
"EEEEEEDDDDEEEFFFFFFFFFFFFFFFFFFFFFFFFFFFFFFFFFEEEEDCCCDDEEEEEFFFFFFFFFFFFFFFFFFFFFFFFFFFFFFFEEEEEDEEEFFFFFFFFFEFFFFFFFFFFFFFFFFF",
"FFEEEEEDDDEEEFFFFFFFFFFFFFFFFFFFFFFFFFFFFFFFFEEEEDDCBCCDDEEEEEEEFFFFFFFFFFFFFFFFFFFFFFFFFFEEEEEEDDEEEFFFFFFFFFFEFFFFFFFFFFFFFFFF",
"FFFFEEEEDDEEEFFFFFFFFFFFFFFFFFFFFFFFFFFFFFFFEEEEDDCCBBCCDDDEEEEEEEEEFFFFFFFFFFFFFFFFEEEEEEEEEEDDDDEEEFFFFFFFFFFFFEEFFFFFFFFFFFFF",
"FFFFFEEEEDEEEFFFFFFFFFEFFFFFFFEFFFFFFFFFFFFEEEEDDDCBABBCCDDDDEEEEEEEEFFFFFFFFFFFFFEEEEEEEEEEEDDDCDEEEEFFFFFFFFFFFFFFFFFFFFFFFFFF",
"FFFFFFEEEEEEEFFFFFFFFFFFFFFFFEFFFFFFFFFFFFEEEEDDDCBBABBBCCCDDDDDEEEEEEEEFFFFFFFFEEEEEEEEEEDDDDCCCDDEEEFFFFFFFFFFFFFFFFFFFFFFFFFF",
"FFFFFFFEEEEEEFFFFFFFFFFFEFFFEFFFFFFFFFFFEEEEEDDDCCBBBBCCCCCCCDDDDDDEEEEEEEEEEEEEEEEEEDDDDDDDCCCBCDDEEEEFFFFFFFFFFFFFFFFFFFFFFFFF",
"FFFFFFFFEEEEEEFFFFFFFFFFFFFFFFFFFFFFFFFEEEEEDDDCCCCCCCCCCCCCCCCCCDDDDEEEEEEEEEEEEEEDDDDDDCCCCBBBCCDDEEEFFFFFFFFFFFFFFFFFFFFFFFFF",
"FFFFFFFFEEEEEEFFFFFFFFFFFFFFFFFFFFFFFFFEEEDDDCCCCCDDDDDDDDDDDCCCCCCDDDDEEEEEEEEEDDDDDCCCCCBBBBAABCDDEEEEFFFFFFFFFFFFFFFFFFFFFFFF",
"FFFFFFFFFEEEEEEFFFFFFFFFFFFFFFFFFFFFFFEEEEDDCCCCDDDDDDEEEEDDDDDDCCCCCDDDDDDDDDDDDDDCCCBBBBBAAA9ABBCDDEEEEFFFFFFFFFFFFFFFFFFFFFFF",
"FFFFFFFFFEEEEEEFFFFFFFFFFFFFFFFFFFFFFFEEEDDCCCDDDDEEEEEEEEEEEEDDDDCCCCCCCDDDDDDCCCCCBBAAAAA99989ABCCDDEEEEEFFFFFFFFFFFFFFFFEEFFF",
"FFFFFFFFFFEEEEEEFFFFFFFFFFFFFFFFFFFFFEEEDDCCCDDDEEEEEEEEEEEEEEEEDDDCCBBCCCCCCCCCCBBBAA9999888789AABCCDDEEEEEEFFFFFFFFFFFFEFFFFFF",
"FFFFFFFFFFEEEEEEEFFFFFFFFFFFFFFFFFFFEEEEDDCDDDEEEEEEEFFFFFEEEEEEEEDDCCBBBBBBBBBBBAAA9988887776789ABBCCDDEEEEEEEFFFFFFFFFEFFFFFFF",
"EFFFFFFFFFEEEDEEEEFFFFFFFFFFFFFFFFFEEEEDDCDDDEEEEEFFFFFFFFFFFEEEEEEDDCCBAAAAAAAAA99988776666556789ABBCCDDDEEEEEFFFFFFFFFFFFFFFFF",
"FFFFFFFFFFEEEDDEEEEEFFFFFFFFFFFFFEEEEEDDCDDDEEEEFFFFFFFFFFFFFFFEEEEEDDCCBA9999998887776555544456789ABBCCDDDDEEFFFFFFFFFFFFFFFFFF",
"FFFFFFFFFFEEEDDDEEEEEEFFFFFFFFEEEEEEEDDCCDDEEEEFFFFFFFFFFFFFFFFFFEEEEDDCBBA9888777766554433323456789AABBCCDDEEFFFFFFFFFFFFFFFFFF",
"FFFFFFFFFFEEEDDDDDEEEEEEEEEEEEEEEEEDDDCCDDEEEEFFFFFFFFFFFFFFFFFFFFEEEEDDCBA98766665544332221123456789AABBCDDEEEFFFFFFFFFFFFFFFFF",
"EFFFFFFFFFEEEDDCDDDEEEEEEEEEEEEEEDDDDCCDDEEEEFFFFFFFFFFFFFFFFFFFFFFEEEDDCCBA986554433221111223344567899ABCDDEEEFFFFFFFFFEFFFFFFF",
"FFFFFFFFFFEEEDDCCCDDDDEEEEEEEEEDDDDCCCCDDEEEFFFFFFFFFFFFFFFFFFFFFFFEEEEDDCBA987643221100123344556666789ABCDDEEEFFFFFFFFFFFFFFFFE",
"FFFFFFFFFFEEEDCCBCCCDDDDDDDDDDDDDCCCBCCDEEEEFFFFFFFFFFFFFFFFFFFFFFFFEEEDDCBBA87653200012334556677778889ABCDDEEEFFFFFFFFFFFEFFEEF",
"FFFFFFFFFEEEDDCBBBBCCCCCDDDDDCCCCCBBBCDDEEEFFFFFFFFFFFFFFFFFFFFFFFFFEEEEDCCBA98653200123455677788899999ABCCDEEEEFFFFFFFFFFFFFFFF",
"FFFFFFFFFEEEDDCBAAABBBCCCCCCCCCCCCCCCCDDEEEFFFFFFFFFFFFEEFFFFFFFFFFFFEEEDDCBA98754212334567788999AAAAAAABBCDDEEEFFFFFFFFFFFFFFFF",
"FFFFFFFFEEEDDCCBA9AAABBCCCCCDDDDDDDCCCDEEEFFFFFFFFFFFFFFFFEFFFFFFFFFFEEEDDCBA98754223456678899AAABBBBBBBBBCDDEEEEFFFFFFFFFFFFFFF",
"FFFFFFFEEEEDDCBA99AABBCCDDDDDDDDDDDDDDDEEEFFFFFFFFFFFFFFFFFEFFFFFFFFFEEEDDCBA987643345677899AABBBBCCCCCCCCCCDDEEEFFFFFFFFFFFFFFF",
"FFFFFFFEEEDDCCBA9ABBCCDDDDDEEEEEEEEEDDDEEEFFFFFFFFFEFFFFFFFFFFFFFFFFFFEEDDCBB9876434567889AABBCCCCCDDDDDDCCCDDEEEEFFFFFFFFFFFFFF",
"FFFFFFEEEEDDCBAAABBCCDDDEEEEEEEEEEEEEEEEEEFFFFFFFFFFFFFFFFFFEFFFFFFFFFEEEDCCBA87644567899ABBCCCDDDDDDDDDDDDDDDEEEEEFFFFFFFFFFFFF",
"FFFFEEEEEDDCCBAABBCDDDEEEEEEEEEEEEEEEEEEEEFFFFFFFFFFFFFFFFFFEFFFFFFFFFEEEDCCBA876556789AABBCCDDDDDEEEEEEEEDDDEEEEEFFFFFFFFFFFFFF",
"FFFEEEEEDDCCBAABBCDDDEEEEEEFFFFFFFFFEEEEEEFFFFFFFFFEFFFFFFFFFFFFFFFFFFEEEDCBBA98756789AABCCCDDDEEEEEEEEEEEEEEEEEFFFFFFFFFFFFFFFF",
"FEEEEEEDDCCBAABBCDDDEEEEEFFFFFFFFFFFFFEEEEFFFFFFFFFFFFFFFFFFFFFFFFFFFEEEDDCCBA98767899ABCCDDDEEEEEEEEEEEEEEEEEEFFFFFFFFFFFFFFFFF",
"FFEEEEDDCCBAAABCCDDEEEEFFFFFFFFFFFFFFFFFEEFFFFFFFFFFEFFFFFFFFFFFFFFFFEEEEDDCBBA987789ABCCDDDEEEEEEFFFFFFFFEEEEFFFFFFFFFFFFFFFFFF",
"FFFEEEEDDCBAABCCDDEEEEFFFFFFFFFFFFFFFFFFFEEFFFFFFFFFFFEFFEFFFFFFFFFFFFEEEEDDCBA98789ABCCDDEEEEEEFFFFFFFFFFFFEFFFFFFFFFFFFFFFFFFF",
"FFFFEEEDDCBBABCDDEEEEFFFFFFFFFFFFFFFFFFFFFEFFFFFFFFFFFFFFFFFFFFFFFFFFFFEEEDDCCBA989ABBCDDDEEEEFFFFFFFFFFFFFFFFFFFFFFFFFFFFFFFFFF",
"FFFFEEEEDCCBBCCDDEEEFFFFFFFFFFFFFFFFFFFFFFFFFFFFFFFFFFFFFFFFFFFFFFFFFFFEEEEDDCBA989ABCCDDEEEEFFFFFFFFFFFFFFFFFFFFFFFFFFFFFFFFFFF",
"FFFFFEEEDDCBBCDDEEEEFFFFFFFFFFFFFFFFFFFFFFFFFFFFFFFFFFFFFFFFFFFFFFFFFFFFEEEDDCCBA9ABBCDDEEEEFFFFFFFFFFFFFFFFFFFFFFFFFFFFFFFFFFFF",
"FFFFFEEEDDCBBCDDEEEFFFFFFFFFFFFFFFFFFFFFFFFFFFFFFFFFFFFFFFFFFFFFFFFFFFFFFEEEDDCBA9ABCDDEEEEFFFFFFFFFFFFFFFFFFFFFFFFFFFEFFEFFFFFF",
"FFFFFFEEEDCCCCDEEEEFFFFFFFFFFFFFFFFFFFFFFFFFFFFFFFFFFFFFFFFFFFFFFFFFFFFFFEEEDDCBAABBCDDEEEFFFFFFFFFFFFFFFFFFFFFFFFFFFFFFFFFEFFFF",
"FFFFFFEEEDCCCDDEEEFFFFFFFFFFFEFFFEFFFFFFFFFFFFFFFFFFFFFFFFEFFFEFFFFFFFFFFEEEDDCCBBBCCDEEEEFFFFFFFFFFFFFFFFFFFFFFFFFFFFFFFFFFFFFF",
"FFFFFFEEEDDCCDDEEEFFFFFFFFFFFFFFFFFFFFFFFFFFFFFFFFFFFFFFFFFFFFFEFFFFFFFFFFEEEDCCCCCCDDEEEFFFFFFFFFFFFFFFFFFFFFFFFFFFFFFFFFFFEFFF",
"FFFFFFEEEDDDDDDEEEFFFFFFFFFEFFFFFFFEFFFFFFFFFFFFFFFFFFFFFFFFFFFFFFFFFFFFFFEEEDDCCDDDDDEEEFFFFFFFFFFFEFFEFFFFFFFFFFFEFFFFFFFFFFFF",
"FFFFFFEEEDDDDDDEEEFFFFFFFFFFFFFFFFFFFFFFFFFFFFFFFFFFFFFFFFFFFFFFEFFFFFFFFFEEEDDDDDDEEEEEFFFFFFFFFFEFFFFFFFFFFFFFFFFEFFFFFFFFFFFF",
"FFFFFFEEEEEEEEEEEEFFFFFFFFFFFFFFFFFFFFFFFFFFFFFFFFFFFFFEFFFFFFFFFFFFFFFFFFEEEDDDDEEEEEEEFFFFFFFFFFFFFFFFFFFFFFFFFFFFFFFFFFFFEFFF",
"FFFFFFEEEEEEEEEEEEFFFFFFFFFFFFFFFFFFFFFFFFFFFFFFFFFFFFFEFFFFFFFFFFFFFFFFFFEEEDDDEEEEEEFFFFFFFFFFFEFFFFFFFFEFFFFFFFFFEFFFFFFFFFFF",
"FFFFFFEEEEEEFFEEEEFFFFFFFFFFFFFFFFFEFFFEFFFFEFFFFFFFFFFFFFFFFFFFEFFFFFFFFFEEEDEEEEEEFFFFFFFFFFFFFEFFFFFFFFEFFFFFFFFFFEFFFFFFFFFF",
"FFFFFEEEFFFFFFFFFFFFFFFFFFFFFFFFFFFFFFEFFFFFFFFFFFFFFFFFEFFFFFFFFFFFFFFFFFEEEEEEEEFFFFFFFFFFFFFFFEFFFFFFFFEFFFFFFFFFFFFEEFFFFFFF",
"FFFFFEFFFFFFFFFFFFFFFFFFFFFFFFFFFEFFFFFFFFFFFFEFFFFFFFFFFEFFFFFFFFFFFFFFFFEEEEEEFFFFFFFFFFFFFFFFFEFFFFFFFFFFFFFFFFFFFFFFFFFFFFFF",
"FFFFFFFFFFFFFFFFFFFFFFFFFFFFFFFFFFFFFFFFFFFFFFFFFFFFFFFFFFFFFFFFFFFFFFFFFEEEEEEFFFFFFFFFFFFFFFFFFFFFFFFFFEFFFFFFFFFFFFFFFFFFFFFF",
"FFFFFFFFFFFFFFFFFFFFFFFFFFFFFFFFFFFFFEFFFFFFFFFFFFFFFFFFFFFFFFFFFFFFFFFFFEEEEEEFFFFFFFFFFFFFFFFFFFFEFFFFEFFFFFFFFFFFFFFFFFFFFFFF",
"FFFFFFFFFFFFFFFFFFFFFFFFFFFFFFFFFFFFFFFFFFFFFFFFFFFFFFFFFFFFFFFFFFFFFFFFEEEEEEFFFFFFFFFFFFFFFFFFFFFFFEEFFFFFFFFFFFFFFFFFFFFFFFFF",
"FFFFFFFFFFFFFFFFFFFFFFFFFFFFFFFFFFFFFFFFFFFFFFEFFFFFFFFFFFFFFFFFFFFFFFFFEEEEEFFFFFFFFFFFFFFFFFFFFFFFFFFFFFFFFFFFFFFFFFFFFFFFFFFF",
"FFFFFFFFFFFFFFFFFFFFFFFFFFFFFFFFFFFFFFFFFFFFFEFFFFFFFFFFFFFFFFFFFFFFFFFEEEEEEFFFFFFFFFFFFFFFFFFFFFFFFFFFFFFFFFFFFFFFFFFFFFFFFFFF",
"FFFFFFFFFFFFFFFFFFFFFFFFFFFFFFFFFFFFFFFFEFFFEFFFFFFFFFFFFFFFFFFFFFFFFFEEEEEEFFFFFFFFFFFFEEEFFFFFFFFFFFFFFFFFFFFFFFFFFFFFFFFFFFFF",
"FFFFFFFFFFFFFFFFFFFFFFFFFFFFFFFFFFFFFFFFFFFFFFFFFFFFFFFFFFFFFFFFFFFFFEEEEEEEFFFFFFFFFFEFFFFFEFFFFFFFFFFFFFFFFFFFFEFFFFFFFFFFFFEE",
"FFFFFFFFFFEFFFFEFFFFFFFFFFFFFFFFFFFFFFFFFFFFFFFFFFFFFFFFFFFFFFFFFFFFEEEEDEEEFFFFFFFFFEFFFFFFFEFFFFFFFFFFFFFFFFFFEEEEEEFFFFFEEEEF",
"FFFFFFFFFFFFFFFFEFFFFFFFFFFFFFFFFFFFFFFFFFFFFFFFFFFFFFEFFFFFFFFFFFEEEEEDDEEEFFFFFFFFFFFFFFFFFFFFFFFFFFFFFFFFFFFEEEEEEEEEEEEEEEEF",
"FFFFFFFFEFFFFFFFFFFFFFFFFFFFFFFFFFFFFFFFFFFFFFFFFFFFFFEEEEEFFFEEEEEEEEDDDEEEFFFFFFFFFFFFFFFFFFFFFFFFFFFFFFFFFEEEEEEEEEEEEEEEEEEF",
"FFFFFFFFFFFFFFFFFEFFFFFFFFFFFFFFFFFFFFFFFFFFFFFFFFFFFEEEEEEEEEEEEEEEDDDDDEEEFFFFFFFFFFFFFFFFFFFFFFFFFFFFFFFEEEEEEDDDDDEEEEEEEEEF",
"FFFFFFFFFFFFFFFFFEFFFFFFFFFFFFFFFFFFFFFFFFFFFFFFFFFFEFFFFFFFFFEEEEEEDDCDDEEEFFFFFFFFFFFFFFFFFFFFFFFFFFFFEEEEEEEEDDDEEEEEEEEEEEEF",
"FFFFFFFFEFFFFFFFFFFFFFFFFFFFFFFFFFFFFFFFFFFFFFFFFFFFFFFFFFFFFFFFEEEEEDDDDEEEFFFFFFFFFEFFFFFFFEFFFFFFFFFEEEEEEEDDDEEEEEEEEEEEEEEF",
"FFFFFFFFFFFFFFFFFFFFFFFFFFFFFFFFFFFFFFFFFFFFFFFFFFFFFFFFFFFFFFFFFEEEEEDDDEEEFFFFFFFFFFEFFFFFEFFFFFFFFFFEEEEEDDDDEEEEEEFFFFFFFFEF",
"FFFFFFFFFEFFFFFFFFFFFFFFFFFFFFFFFFFFFFFFFFFFFFFEFFFFFFFFFFFFFFFFFFFEEEEDDEEEFFFFFFFFFFFFEEEFFFFFFFFFFFFEEEDDDDEEEEEFFFFFFFFFFFFF",
"FFFFFFFFFFEFFFEFFFFFFFFFFFFEEFEFFFFFFFFFFFEEEEEFFFFFFFFFFFFFFFFFFFFFEEEDDDEEEFFFFFFFFFFFFFFFFFFFFFFFFFEEEDDDDEEEEEFFFFFFFFFFFFFF",
"FFFFFFFFFFFFFFFFFFFFFFFFFFFFFFFFEFFFFFFFFFFEEEFFFFFFFFFFFFFFFFFFFFFFEEEEDDEEEFFFFFFFFFFFFFFFFFFFFFFFFFEEEDDDDEEEEFFFFFFFFFFFFFFF",
"FFFFFFFFFFFFFFFFFFFFFFFFFEFFFFFFFFFFFFFFFFFEEFFFFFFFFFFFFFFFFFFFFFFFFEEEDDDEEEFFFFFFFFFFFFFFFFFFFFFFFEEEEDDDEEEEFFFFFFFFFFFFFFFF",
"FFFFFFFFFFFFFFFFEFFFEFFFFFFFFFFFFEFFFFFFFFFEEFFFFFFFFFFFFFFFFFFFFFFFFFEEEDDEEEEFFFFFFFFFFFFFFFFFFFFFEEEEDDDEEEEFFFFFFFFFFFFFFFFF",
"FFFFFFFFFFFFFFFFFFFFFFFFEFFFFFFFFFFFFFFFFFFEFFFFFFFFFFFFFFFFFFFFFFFFFFEEEDDDEEEFFFFFFFFFFFFFFFFFFFFFEEEDDDDEEEFFFFFFFFFFFFFFFFFF",
"FFFFFFFFFFFFFFEFFFFFFFEFEFFFFFFFFFFFFFFFFFFEFFFFFFFFFFFEFFFEFFFFFFFFFFEEEEDDEEEEFFFFFFFFFFFFFFFFFFFEEEEDDDEEEEFFFFFFFFFFFFFFFFFF",
"FFFFFFFFFFFFFFFFFFFFFFFFFFFFFFFFFEFFFFFFFFFEFFFFFFFFFFFFFFFFEFFFFFFFFFFEEEDDDEEEEEFFFFFFFFFFFFFFFEEEEEDDDDEEEFFFFFFFFFFFFFFFFFFF",
"FFFFFFFFFFFFFFFFFFFFFFFFFEFFFFFFFFFFFFFFFFFEFFFFFFFFFFFFFFFFFEFFFFFFFFFEEEDDDDEEEEEEFFFFFFFFFFFFEEEEEDDCDDEEEFFFFFFFFFFFEFFEFFFF",
"FFFFFFFFFFFFFFFFFFFFFFFFFFEFFFFFFFFFFFFFFFFFFFFFFFFFFFFFFFFFFEFFFFFFFFFEEEDDCDDDEEEEEEFFFFFFFEEEEEEEDDCCDEEEFFFFFFFFFFEFFFFFFFFF",
"FFFFFFFFFFFFFFEFFFFFFFEFFFFFEEEFFFFFFFFFFFEFFFFFFFFFEFFFFFFFFFFFFFFFFFFEEEDDCCDDDEEEEEEEEEEEEEEEEEDDDCCCDEEEFFFFFFFFFFFFFFFFFFFF",
"FFFFFFFFFFFFFFFFFFFFFFFFFFFFFFFFFFFFFFFFFFEFFFFFFFFFEFFFFFFFFFFFFFFFFFFEEEDDCCCCDDDEEEEEEEEEEEEEDDDDCCCDDEEEFFFFFFFFFEFFFFFFFFEF",
"FFFFFFFFFFFFFFFFEFFFFFFFFFFFFFFFFFFFFFFFFEEFFFFFFFFFFFFFFFFFFEFFFFFFFFFEEEDDCBBCCDDDDDEEEEEEEDDDDDCCBBCDDEEEFFFFFFFFFFFFFFFFFFEF",
"FFFFFFFFFFFFFFFFFFFFFFFFFFFFFFFFFFFFFFFFFEEEFFFFFFFFFEFFFFFFFFFFFFFFFFFEEEDCCBBBCCCCDDDDDDDDDDDCCCCBBBCDDEEEFFFFFFFFFEFFFFFFFFEF",
"FFFFFFFFFFFFFFFFFFFFFFFFFFFFFFFFFFFFFFFFEEEEFFFFFFFFFFEFFFFEFFFFFFFFFFFEEEDCCBAABBBCCCCCCCCCCCCCBBBAABCCDEEEFFFFFFFFFEFFFFFFFFFF",
"FFFFFFFFFFFFFFFFFFFFFFFFFFFFFFFFFFFFFFFEEEEEFFFFFFFFFFFFFFFFFFFFFFFFFFEEEDDCBA99AABBBBCCCCCCCBBBBAA9ABCCDEEEFFFFFFFFFFFFFFFFFEFF",
"FFFFFFFFFFFFFFFFFFFFFFFFFFFFFFFFFFFFFFEEEEEEEFFFFFFFFFFFFFFFFFFFFFFFFFEEEDDCBA9899AAAABBBBBBBAAAA999ABCCDDEEEFFFFFFFFFFEFFFFEFFF",
"FFFFFFFEFFFFFFFFFFFFFFFFFFFFFFFFFFFFFEEEEDEEEFFFFFFFFFFFFFFFFFFFFFFFFEEEEDCCBA98889999AAAAAAA9999889ABCDDEEEEFFFFFFFFFFFFEEFFFFF",
"FFFFFFFEEFFFFFFFFFFFFFFFFFFFFFFFFFFEEEEEDDEEEEFFFFFFFFFFFFFFFFFFFFFFFEEEDDCBBA876778888999998888779ABCCDDEEEFFFFFFFFFFFFFFFFFFFF",
"FFFFFFFFEEFFFFFFFFFFFFFFFFFFFFFFEEEEEEEDDDDEEEEFFFFFFFFFFFFFFFFFFFFFEEEEDCCBA9876677888899999988889ABCDDEEEEFFFFFFFFFFFFFFFFFFFF",
"FFFFFFFFFEEFFFFFFFFFFFFFFFEEEEEEEEEEEEDDDCDDEEEFFFFFFFFFFFFFFFFFFFFEEEEDDCBBA9867889999AAAAAAAA9999ABCDDEEEFFFFFFFFFFFFFFFFFFFFF",
"FFFFFFFFFEEEEEFFFFFFFFFEEEEEEEEEEEEDDDDCCCDDEEEEEFFFFFFFFFFFFFFFFFEEEEDDCCBA9878899AAAABBBBBBBBAAAABBCDDEEEFFFFFFFFFFFFEEFFFFFFF",
"FFFFFFFFFFEEEEEEEEEEEEEEEEEEEEEEEEEEDDDCCDDEEEEEEFFFFFFFFFFFFFFFEEEEEDDCCBAA97899AABBBBCCCCCCCBBBBABCCDEEEFFFFFFFFFFFFFFFFEFFFFF",
"FFFFFFFFFFFEEEEEEEEEEEEEEEEEEEEEEEEEEDDDDDEEEEEFFFFFFFFFFFFFFFEEEEEEDDDCBBA9889AABBBCCCCCDDDCCCCCCBBCDDEEEFFFFFFFFFFFFFFFFFEFFFF",
"FFFFFFFFFFFEEEEEEEEEEEEFFFFFFFFFFEEEEEEDDEEEEEFFFFFFFFFFFFFFFFFEEEEDDCCBBA9899ABBBCCCDDDDDDDDDDDDCCCCDDEEEFFFFFFFFFEFFFFFFFFFFFF",
"EFFFFFFFFFFEEEDDEEEEEFFFFFFFFFFFFFFEEEEEDEEEEFFFFFFFFFFFFFFFFFFFEEEEDDCBBA99AABBCCDDDDDEEEEEEEDDDDDCCDDEEEFFFFFFFFFFFFFFFFFFFFFF",
"FEFFFFFFFFFFEEEEEEEEFFFFFFFFFFFFFFFFFEEEEEEEFFFFFFFFFFFFFFFFFFFFFEEEEDDCBA9AABCCCDDDEEEEEEEEEEEEEDDDDDDEEEFFFFFFFFFFFFFFFFFFFFFF",
"FFFFFFFFFFFFEEEEEEEFFFFFFFFFFFFFFFFFFFEEEEEFFFFFFFFFFFFFFFFFFFFFFFEEEDDCBBAABCCDDDEEEEEEEEEEEEEEEEEDDDDEEEFFFFFFFFFFFFFFFFFFFFFF",
"FFEFFFFFFFFFEEEEEEFFFFFFFFFFFFFFFFFFFFFEEEFFFFFFFFFFFFFFFFFFFFFFFFEEEEDCCBABCCDDDEEEEEEFFFFFFFEEEEEEEDDEEEFFFFFFFFFEFFFFFFFFFFFF",
"FFEFFFFFFFFFEEEEEFFFFFFFFFFFFFFFFFFFFFFEEEFFFFFFFFFFFFFFFFFFFFFFFFFEEEDDCBBCCDDDEEEEEFFFFFFFFFFFFEEEEEDEEEFFFFFFFFFFEFFFFFFFFFFF",
"FFEFFFFFFFFFEEEEFFFFFFFFFFFFFFFFFFFFFFFFEFFFFFFFFFFFFFFFFFFFFFFFFFFEEEDDCBBCDDEEEEEFFFFFFFFFFFFFFFFEEEEEEFFFFFFFFFFFFFEFFEFFFFFF",
"FFFFFFFFFFFFEEEEFFFFFFFFFFFFFFFFFFFFFFFFFFFFFFFFFFFEFFFFFFFFFFFFFFFFEEEDCCCCDDEEEEFFFFFFFFFFFFFFFFFFEEEEEFFFFFFFFFFFFFFFFFFFFFFF",
"FEFFFFFFFFFFFFFFFFFFFFFFFFFFFFFFFFFFFFFFFFFFFFFFFFEFFFFFFFFFFFFFFFFFEEEDDCCDDEEEEFFFFFFFFFFFFFFFFFFFFEEEFFFFFFFFFFFFFFFFFFEFFFFF",
"EFFFFFFFFFFFFFFFFFFFFFFFFFFFFFEFFFFFFFFFFFFFFFFFFFFFFFFFFFEFFFFFFFFFEEEDDCDDEEEEFFFFFFFFFFFFFFFFFFFFFFEEFFFFFFFFFFFEFFEFFFFEFFFF",
"FFFFFFFFFFFFFFFFFFFFFFFFEFFFFFFEFFFFFFFFFFFFFFFFFFFFFFFFFFFFFFFFFFFFEEEDDCDDEEEFFFFFFFFFFFFFFFFFFFFFFFFEFFFFFFFFFFFFFFFFEFFFFFFF",
"FFFFFFFFFFFFFFFFFFFFFFFFFFFFFFFFFFFFFFFFFFFFFFFFFEFFFFFFFFFFFFFFFFFFEEEDDDDEEEEFFFFFFFFFFFFFFFFFFFFFFFFEFFFFFFFFFFFFFFFFFFFFFFFF",
"FFFFFFFFFFFFFFFFFFFFFFFEFFFFFFFFEFFFFFFFFFFFFFFFFFFFFFFFFFFFFFFFFFFFEEEDDDDEEEFFFFFFFFFFFFFFFFFFFFFFFFFFFFFFFFFFFFFFFFFFFEFFFFFF",
"FFFFFFFFFFFFFFFFFFFFFFFEFFFFFFFFFFFFFFFFFFFFFFFFFFFFFFFFFFEFFFFFFFFFEEEDDDDEEEFFFFFFFFFFFEEEEFFFFFFFFFFFFFFFFFFFEFFFFFFFFFFFFFFF",
"FFFFFFFFFFFFFFFFFFFFFFFEFFFFFFFFEFFFFFFFFFFFFFFFFFFFFFFFFEFFFFFFFFFFEEEDCDEEEFFFFFFFFFFEFFFFFFFFFFFFFFFFFFFFFFFFFFFFFFFFFFFFFFFF",
"FFFFFFFFFFFFFFFFFFFFFFFFFFFFFFFFEFFFFFFFFFFFFFFFFFFFEFFFEFFFFFFFFFFFEEEDDDEEEFFFFFFFFFFFFFFFFFFFFFFFFFFFFFFFFFFFFFFFFFFFFEFFFFFF",
"FFFFFFFFFFFFFFFFFFFFFFFFEFFFFFFEFFFFFFFFFFFFFFFFFFFFFFFFFFFFFFFFFFFEEEDDDDEEEFFFFFFFFFEFFFFFFFFFFFFFFFFFFFFFFFFFFEFFFFFFFFFFFFFF",
"FFFFFFFFFFFFFFFEFFFFFFFFFEFFFFEFFFFFFFFFFEFFFFFFFFFFFFFFFFFFFFFFFFFEEEDDDDEEEFFFFFFFFFFFFFFFFFFEFFFFFFFFFFFFFFFFFFEFFFFFFFFFFFFF",
"FFFFFFFFFEFFFFFFEFFFFFFFFFFFFFFFFFFFFFFFFEFFFFFFFFFFFFFFFFFFFFFFFFEEEEEEEEEEEFFFFFFFFFFFFFFFFFFEFFFFFFFFFFFFFFFFFFFFEEFFFFFFFFFF",
"FFFFFFFFFFFFFFFFFEFFFFFFFFFFFFFFFFFFFFFFFEEFFFFFFFFFFFFFFFFFFFFFFEEEEEEEEEEEEFFFFFFFFFEFFFFFFFFFFFFFFFFFFFFFFFFFFFFFFFFFFFFFFFFF",
"FFFFFFFFEFFFFFFFFEFFFFFFFFFFFFFFFFFFFFFFEEEEFFFFFFFFFFFFFFFFFFFFFFFFFFEEEEEEEFFFFFFFFFFFFFFFFFEFFFFFFFFFEFFFFFFFFFFFFFFFFFFFFFFF",
"FFFFFFFFEFFFFFFFFFFFFFFFFFFFFFFFFFFFFFFFFEEEEFFFFFFFFFFFFFFFFFFFFFFFFFFFFEEEEFFFFFFFFFFFFFFFFEFFFFFFFFFFEEFFFFFFFFFFFFFFFFFFFFFF",
"FFFFFFFFEFFFFFFFFFFFFFFFFFFFFFFFFFFFFFFFFFEEEEFFFFFFFFFFFFFFFFFFFFFFFFFFFFFEEEFFFFFFFFFFFEEEFFFFFFFFFFFFEEFFFFFFFFFFFFFFFFFFFFFF",
"FFFFFFFFFFFFFFFFFEFFFFFFFFFFFFFFFFFFFFFFFFEEEEEEFFFFFFFFFFFFFFFFFFFFFFFFFFFFFFFFFFFFFFFFFFFFFFFFFFFFFFFFEEEFFFFFFFFFFEFFFFEFFFFF",
"FFFFFFFFFEFFFFFFEFFFFFFFFFFFFFFFFFFFFFFFFFFEEEEEEEFFFFFFFFFFFFFFFFFFFFFFFFFFFFFFFFFFFFFFFFFFFFFFFFFFFFFEEEEFFFFFFFFFEFFFFFFFFFFF",
"FFFFFFFFFFFFFFFEFFFFFFFFFFFFEFFEFFFFFFFFFFFEEEEEEEEEEEEEFFFFFFFFFFFFFFFFFFFFFFFFFFFFFFFFFFFFFFFFFFFFFFEEEEFFFFFFFFFFFFFFFFFFEFFF",
"FFFFFFFFFFFFFFFFFFFFFFFFFFEFFFFFFFFFFFFFFFFEEEEEEEEEEEEEFFFFFFFFFFFFFFFFFFFFFFFFFFFFFFFFFFFFFFFFFFFFFFEEEEFFFFFFFFFEFFFFFFFFFFFF",
"FFFFFFFFFFFFFFFFFFFFFFFFFFFFFFFFFFFFFFFFFFFEEEEEDDEEEEEFFFFFFFFFFFFFFFFFFFFFFFFFFFFFFFFFFFFFFFFFFFFFFEEEEEFFFFFFFFFEFFFFFFFFFFFF",
"FFFFFFFFFFFFFFFFFFFFFFFFFEFFFFFFFFFFFFFFFFFFFEEEDDDEEEEFFFFFFFFFFFFFFFFFFFFFFFFFFFFFFFFFFFFFFFFFFFFFEEEEEEFFFFFFFFFFFFFFFFFFEFFF",
"FFFFFFFFFFFFFFFFFFFFFFFFFFFFFFFFFFEFFFFFFFFFFEEEEDDEEEFFFFFFFFFFFFEEEFFFFFFFFFFFFFFFFFFFFFFFFFFFFFEEEEEDEEFFFFFFFFFFFFFFFFFFFFFF",
"FFFFFFFFFFFFFFFFFFFFFFFFFFFFFFFFFFEFFFFFFFFFFFEEEEDEEEFFFFFFFFFFEFFFFFFFFFFFFFFFFFFFFFFEFFFFFFFFFFFEEEDDEEEFFFFFFFFFFFFFFFFEFFFF",
"FFFFFFFFFFFFFFFFFFFFFFFFFEFFFFFFFFFFFFFFFFFFFFFEEEDEEEFFFFFFFFFEFFFFFFFFFFFFFFFFFFFFFFFFFFFFFFFFFFFEEEDEEEEFFFFFFFFFFFEFFFEFFFFF",
"FFFFFFFFFFFFFFFFFFFFFFFFFFFFFFFFFEFFFFFFFFFFFFFEEEEEEFFFFFFFFFFFFFFFFFFEFFFFFFFFFFFFFFFFFEFFFFFFFFFEEEEEEEFFFFFFFFFFFFFFFFFFFFFF",
"FFFFFEFFFFFFFFFFFFFFFFFFFFFFFFFFEFFFFFFFFFFFFFFFEEEEEFFFFFFFFFEFFFFFFFFFFEFFFFEFFFFFFFFFFFFFFFFFFFFEEEEEEFFFFFFFFFFFFFFFFFFFFFFF",
"FFFFEEEEFFFFFFFFFFFFFFFFFFFFFEEFEFFFFEFFFFFFFFFFEEEEEFFFFFFFFFEFFFFFFFFFFFFFFFFEFFFFFFFFFFFFFFFFFFFEEEEEFFFFFFFFFFFFFFFFFFFFFFFF",
"FFFEEEEEEEEEEEEEEFFFFFFFFFFFFFFFFFFFFFEFFFFFFFFFEEEEEFFFFFFFFFFFFFFFFFFEFFFFFFFFFFFFFFFFFFFFFFFFFFFEEEEFFFFFFFFFFFFFFFFFFFFFFFFF",
"FFFEEEEEEEEEEEEEEEFFFFFFFFFFFFEFFFFFFFFFFFFFFFFFFEEEEEFFFFFFFFFEFFFFFFFFFFFFFFFFEFFFFFFFFEFFFFFFFFFEEEFFFFFFFFFFFFFFFFFFFFFFFFFF",
"FFEEEEDDEEEEEEEEEFFFFFFFFFFFFFFFFFFFFFFEFFFFFFFFFEEEEEFFFFFFFFFFFFFFFFEFFFFFFFFFEFFFFFFFFFFFFFFFFFFEEEFFFFFFFFFFFFFFFFFFFFFFFFFF",
"EEEEEDDDDDDDEEEEFFFFFFFFFFFFFFFFFFFFFFFEFFFFFFFFFEEEEEFFFFFFFFFFFEEEEFFEFFFFFFFFFFFEFFFEFFFFFFFFFFFEEFFFFFFFFFFFFFFFFFFFFFFFFFFF",
"EEEEDDCCCDDDEEEFFFFFFFFFFFFFFFEFFFFFFFFFFFFFFFFFFEEEEEFFFFFFFFFFFFFFFFFFFFFFFFFFFFFFFFFFFFFFFFFFFFEEEFFFFFFFFFFFEFFEFFFFFFFFFFFE",
"EEEDDCCBCDDEEEFFFFFFFFFFFFFFFFEFFFFFFFFFFFFFFFFFFEEDEEEFFFFFFFFFFFFFFFFFEFFFFFFFFFFFFFFFFFFFFFFFFFEEEFFFFFFFFFFFFFFFFEFFFFFFFFFF"
};