/* XPM */
static char * fabric_xpm[] = {
"128 128 16 1",
"0 c #000000",
"1 c #111111",
"2 c #222222",
"3 c #333333",
"4 c #444444",
"5 c #555555",
"6 c #666666",
"7 c #777777",
"8 c #888888",
"9 c #999999",
"A c #AAAAAA",
"B c #BBBBBB",
"C c #CCCCCC",
"D c #DDDDDD",
"E c #EEEEEE",
"F c #FFFFFF",
"05878723876842676750376683277685158676126667426868625988832777852587772398784157575136566216778515767613866732687973587783277674",
"49B88858DA7855AB76637A76756BA78649B87636B96856BC8886ADA8956BA77659C87758CA7855AA66537A76745BB89759C87747C97755BC8986AC98856BA785",
"8CC78A9BE96889CB5676AB6698AEA6888CC77879D8689AED78A9DE98989C95788CC7798BE96988CA5677AC7688ADB7999CC7687AD96889EC79AADE86989DA688",
"687359899426768514757722888A537879834877843788B83798A944877841677873487895378785147687238889638979724767942787A737A9A93387795267",
"56526A867338755316855515A877449A67537A756349978638A77635A855227966536A766349856316866525A867449A665259656349977549B88735A8563389",
"6677BD87879C95777BC6686AEA7999EC7888BD86879DB7999DD8797AD96767CB6788BD86879DA6776AB7687AD96889DC7887BD7798AEB7998DE9897AD95778CB",
"3688AA55999A63798A945989B759AAC94799BB55999B759A9BA4698AB64888A84699AA54989B74788A84698AB659A9CA58A9BA55AAAC858A9BA56A89A54888B8",
"15866524986632786652596563498674269776249856328967525976633875531586651387563278554159766338867537A77624986732886652696562277564",
"59A55658C85756BA56759B65657CA6776BC77869C85756CB66759C75757B845549A55647B85767BA66659B76767C96777BC76758C85756BA5666AC75656B8565",
"8BA4699BD869AACA57A9CB659ABDA6ABBDC78BABD75899CA58A9CC669AAC84788BA57A9BC86AABEB68A9BC66AABD969BBDC78A9BC85999C957AACD76A9AC8489",
"67515977855A978637A88724A98954AB89736B877337867527A787349878327866526A87844AA896379776349988539B89747A777339868526A88835A8773279",
"34327964656B956548A55536A75656BB66548A645349635439A55536A745338833437A65646A956548944436A75645AA66648A534349744438955646A6342388",
"4688BC76AACEA6899CB6798AC869AAEB6798BC65888B74799CB6798AC75888B94688CC7699AD969A9CA5698AD969AADB78A9CC65879C84798BA5799AC74777B9",
"48B9AA57CCBC85AB9A847BA9A65BBAB958B99945A999539B9A948B99955AA89637A9AA66CBAB75ACAA847B9AA66BBAB859C9A9459989549A99847BA9A5599897",
"38A55536A866449955437A64535A8565489555259745328945537A645349745327955637B86644AA66527A64645A9454389555248634238854427A6553497354",
"7AA55769B75778B94576AB54768B84687A944668A63656A835669A53668B74676AA4587AC75778CA56779A54778B83676A945758A53666B935769B64778B7367",
"ACA58CABB77CCBCA59CACB66BBAB75ACAB957BAAB65AA9A848BABB66BBBC85ACAB958CBBC77BBAC969CABA56AAAB749B9B958CAAA65AA9B858BABB67CBBC75AB",
"77648B86756CB78659B77746A856349A77637B76645A956438A77747B97855BB77637B87846BA77659B76635A867449A67648B86634A856538A66747C97854AA",
"34558A53557B84666993354694144498345489425469613448844658B64656A834547943657A73566A9435469525459834558A535459513548833658B74656A8",
"47A9BB55AAAC859BAB946989954898B858B9BA55A99B63798A957CABB76ABAB94798AA56AABC859BACA46A88954999B847A9BB55988A63799B947BABC76BBAB8",
"59C99857CA9A76CC99748B97845BA7976BDA9957CA8965AB8985AEBAA67DC9A75AC88858DBAA76BC99858C87745BB8975AC99957CA7854AC99859EBAA78DC997",
"49844547A63656A944437942435973455AA545469535449834549B75657B835559943547B74655A8445379423359735559944657A634449945659B65657B8354",
"79734888953788A735768833777952687A835878942787A73588AB55989A63687A824879A548879625768832667952688A835889943777973698AA44889B6267",
"9A859DBA966CC9A85AC88856BA9965ACAA969DB9967CCAA86BDABB79ECAB76BDAA858CA9967CC99759C99957BA9A76BDAA959DBAA66CC9A86BDBAA68DCAB76BC",
"56659C75656B95666AA54647B75656AA6676AC86757CA6776BB66769C95766BA66658B65657C95655AB66758B74666BB66659C86767C95666BC76769C86877BA",
"2465783255684146697126578325668624769943767A625769723768942666962465782155695146687236678315569624658933767A51466982376894277796",
"48A78735A878549B9A847B98855AA89649CAAA67CA9A65AB89737BA9A66BB89749B88735A989649A99747B998449A89749C9A957CBAA749B9A847CA9956BB9A6",
"6BC76758C96877CC8997BD97868DB7877CE99A8AEA7977CC7775AD98979EC7877BC76758C86877CC8886AD97867CB7887DE9998BFB8A77CB7886AE97968EC887",
"59712557942666A836869932657A62466A945889A53666A724658944778B725669822546832567A835769943656962577BA45879B636669623658943667A7356",
"675138777338978637A787238778427979736B999438878526967734998852686751476662289896379788349868427A89836A99844896741587873498795388",
"88758C98868DC8987CE99869DA7977DD9997BFB9A78DB8876BC87869DB8976BB78759C87857DC9A87CD98979DA8877CD9A97BEA9978DB7865AC88979EA8977CC",
"46759A54778C94788CB66879C75889CA5798BC76878B83677BA44779C74777B845769B64769C96888CB5687AC74777CA5798BC65878C84676AA5587AC74778B9",
"15756612777842687972587873278785158677338767305767513766732776741586772376684278786248778327768526978723877842575751386772167684",
"5AB87747C97866BB8985AD98856BB78659B87758C97755AA77647B77746BB78649B87747B96756BB88758C98856CA7865AC88757C97865AA66637B86745BA776",
"9DD7788AD96999DB78A9DE97989DA6888CC6698BE96888CB6787AC75889DB6888CC7798BD86889EC79A9CE98A9AEA6788CC7798AD96889CA5676AC76879DA689",
"8A834878842788962698A944877852686872488995378785157677227779637879824878932788A737A899449889525768724878942787951475772387796379",
"776369656239967538B87746A856338966526A7774498563169554149767549A67626A766339967549B87635A856327855526A766349966416855425A867449A",
"7898BC76879DB7998DD9898BE95777CA6787AD87989DA6666BB6676AD9799AEC7898BD87979DA7999DE9797AD96777BA5687BD97879DA6877BB6576AE97989DC",
"58A9BA55999C859A9CB57A9AB53788A73698AA55999B73787A84598AB65ABADA57A9AA55999B748AACB5698AA64888A73699BB66A99B74798A93488AB759AAC9",
"27A76624976743896762697662277553169665249867327856525976733997852796652497563289676259656228756315966624975532785541486673499674",
"6BC76758C85767CA56659B75656A84555AB65658C85766B955659C76767CA6876BB66758C85766BA67769C75657B956549A66658C84656BA56658B75868DA677",
"ADC78A9BC759AADA57A9BB66A9AC85899CB6699BC869AADA57A9CC76AAAD96ABADC67A9BD8699ACA58BACC6699AC85898BA5699BD859AADA68AABC77BACEA69B",
"78746A877338878526977735A8774279676259778449A89527A88735A978549B89736A888449967527A8872498674278665259888449989638B88735A989539A",
"55548B645349745438954537B745338834436954545B956548A55536A74545BA66648A645459734338955536A645349834427A65646A956549A64536A74645A9",
"68A9CD75888B84798CB6698BD85888B84688BB6599BEA69A9CB6699BC8589ADB68A9BB65889B74677BB6798AC75889C94688BB76AABDA69A9CB6687AC7599ADB",
"59CAA956A988539A8A847B9AA65AA89637B9A956CBAC86BCAA847BA9A65ABAB859CAA945A989538A89858CAAA65AA9A737A99957CBAB75AC9A947B89955ABAB8",
"38A655259624228845527A655359744327965536B86755AA554269645349856548A654249634238845538B756349745327954536B966449A55537954535A9675",
"7AA44758A52456A83577AA54778B73666AA55879C75788CA45669A54778B84677BA55657A53666A83577AB64767A73566A94577AC85888C94677AA53768C8578",
"AB947B9AA649A9B859CABB67CBBC859BABA68CBBC77BCBD959BABA56BBAC75ACACA57B99A659A9B848BABB67BBAB75ABACA58CBBD87CCBC958CABA56BAAB86AC",
"66537B76744A857549B87736B97755AA66648C87756BA78649B76636B967449A67647A75635A967538A77747C96744AB77648B87857BA77649B77636A86644AA",
"335489435569624549944547A63656A834558A53657A745669943547A5344497245489324459624548843658B63556A844658943657A735549944546952445A8",
"47A9AA55AA9A63898B957A9AB76ABAC947A9BB56AAAB759BAB946989A64898A737A9BA55999B648A9A947BABC76AAAC958A9BA55AAAC859A9B956A99A54899B8",
"5AC99857CB8854AB89859DA9A78DCAA85AC99958DB8966CD99758B87755BA7865ACAA958CA8965BC88859DBAA78DC9A76AC98847CB9A77CC99859D98845AA897",
"59954547A635449834659B64667B946648843547A63545A9445479324359624549A55657A634459834548A64767B735559943536A64656A94454894243486245",
"8A835878A53777972588AA55999B737879724768A53778A835878822677952687A846989942677A725879A55999B636879834778954898B73576882266684268",
"AB96ADBAA77CB9A75ADBBB79ECAB76BC99748CA9A67CC9A86AC99846BA9965BC9A96AEBAA66BB9A86ADAAA79EDBB76BC9A859CA9967CCAB859C99846BA8965BD",
"7776AC75767C95665AB77869C96766BA55549B75768C95766AB65646A74656BA6676AC86757B95776BB77869D96866BA55659B64657B956659A55647B75656BB",
"3576893266795156687247689426669624657822667951466872365673156697246699437679525779834768A536668613658822556951565861365784155697",
"59C9A956BA9A64AB89848CA9955BA8A748B88835A999548A89747B98845AA8A749B9AA67CB9A65AC9A847B99956BA89638A89845A98964AB99737B99955AA897",
"7CD98979EB8A88DC8886BEA8978DB7887BC77758C97866CC7887BD97868DB8987CD9897BEB8977CC8886AD87878EB7876BC87868C96867CC8886AD97868DA687",
"6A945878A64777A724658943667A6257698225468425669735779A43657A62576A935879B636669724658942668B735669823657842556A835759943667A6146",
"89737B99944997851586773498784279785148667238878637A898348768427978636A9995488775269777249889537967514876622786863798873498784279",
"9997CFB9978DC8875AB77869DB8977CC88859C87868DC8987CEA9979DA7867CC9987BFB9A79DB7876BC88868DB8977CC87659C97757CB8988CE99969DA8977CD",
"5788BD75878C84676A934779C75787BA46769A53669C95788CB66979B64778CA5798BD76989C83576AA45779B75888C945659A54768C85799DC6687AB75778B9",
"25878833876731575750377783377674157566126678427878724977722676862697873487783056575038667227868514756622777842798972587773277685",
"5AC88858C97754AA77537B87856CA67549B76746B97866BC88759DA8856BA7876BC88857C978549A66637C87746BA78649A77747C97865BC99859C87746BA776",
"8CC7799BD85888CB6787AC7688ADA5788CC7798AD9699AEC7898CE97989DA6899DC7798AD96888BA5787BD86879EA6898CC6698BE96999DC78A9CD8788AEA688",
"7972498894277786257677237789526879835978943898A7369799448789426879724778843786851576883377795278897248789437879637989944888A6268",
"55415A7662398564279555249867439A77637B866249967538A77736A866328966526A76634A9664269655249756439A77526A76634A957538B87735A8674389",
"5676AD87879DA6777BC65769D97989DC7898CE87868DA6888DD8798BEA6877BA6787AD8687AEB6777BB66879D96889ED8998BD97989EB7889DE98A8BD96878CA",
"35879A65A9AB74798B935889B65ABAC958A9BB55888B748AACA56AABB64888A73698AA55999C84797A834889B649AACA68A9BA55999C748A9CB57A9AB53888A7",
"15855625A8673278564148656339A775379766248656338978626A77622874520686652487674278554049766239978638A765248756327967626A7651277553",
"59A55769C95766A956658B75758DB7876BC66758C75666BB77769C75656B835449A65658C85766BA55648C76868DB6887CC76658B85766BA6776AC76646B8455",
"9CA56AACD86A99C957A9BC66AABEB7ABADC67AABC759AADA69A9BB66989C74788BB57AABC869AACA57A9BC77AABEA69BBDC66A9AC759AACA58BACC76989B8479",
"676259878449977527A88735A989649A89736A888338878537A777249867427867636A988449A88537A77735A989548A89735A877339978527A7873597673278",
"44436965646A955449A65547A74655A955537A645349744438A54436A645449845437A64535A855548A54537B756459956648A64535A845438954536A6343388",
"5798BB6699AEA6999DC77A9BC7599ADB6798BC66989C84788CB5698AC75999C94698BC7698AC968A9CB6698BD85999DA68A9CC75889C84788BA5698BC74789C9",
"48B99956CBAB86ABAB957B99954AB9B849C9A956BA89538A8A847B99A55AB9A637A9A957BAAB76BCAB957BAAA65BB9A859CAA956A989548A89737BAAA55AA8A7",
"38954526B86755A955537A645239856549A65535A634227745537A65534A845317954536B85655AA66536964535A855438A655259634228844426A7564598453",
"6AA44769C75889C945779A54667B84788BB55768B53555973576AB64778B84666994477AC75889CA56869A43667B84676BA55768A52556A83576AB65878B7356",
"9BA57BBBC87CDCD959BABA56BA9B85ACACA57B9AA549A8A748CBCB67CBAC86AB9B958CBCD87CCBDA59CAA955AAAB85ABACA68BAAA549A9B848CABB68CBAB749B",
"67648C87857CB88649B76636A85654AB77637A756349856439B87847C96755AA66638B98856BA77549B76525A86755AA77648B766349957539B77747C9774499",
"34659A54657B845558833447952445A8345479325459624549A44658A63556A834548954757A73555993353695255698345489424348524449943558B6355598",
"48BABB66AAAC859A9A845989A54899B847B9A945999B748A9BA57BABB659AAC847A9AA56BBAB858A9BA56989A549A9B837A9AA55988A648A9BA56AABC76ABAB8",
"5ADA9957DA8966BC98748C98856BA8975AD99857CA8966BB88859DA9A67CC9A86AC99858DB9966BC89859C97845BB89649C98857CA8865BC99859DAAA78DC9A7",
"48944547A63546A9445489435459624449A54547A635559834548A65657B84665A944547B73555A8345489424359634448944548B63545A835658A54657B8455",
"79834768942788B8368788337778415779845879953787A62587AA55999B74898A834768953788A7258798226668526879835989B53777A735889944999B7478",
"99858CA9966CCAB86ACA9847BA8855AC9A96ADBAA67CC9A859DAAA79EDAB77CCAA848B99966CC9A85ADAA846BA8965BCAA969DBAB77CB9A75ADAAA68ECBB87CC",
"55558B65657B96776AB55547B74555BA6787BD86767C96765AB7686AE96766BA56648A64657CA6765AB66647B74556BB6676AC86867B94665AB76769DA6877BA",
"135477226568525768722546831556962587AA437679525658724768A526669613557721667952566872365683145697257699437779514669834768A5377796",
"37A88735AA8954AB99747A88955AA9A749DABA57BA8964AB89747CAAA66BA89638A88735AA9965AB89737A888449A8A759CAA957CB9A549B8A958CA9A66BB996",
"5AB76759D97867CC8886AD87878DB8987CD9997ADA7877DC8886AE98A79DB7876BC87758CA7877CC7776AD97868CA7988CE9897AEB8977CC7887BD97878DB787",
"58723657A52566A835769932667A626669945768A53667A834768943777A625659833557942566A724669943667963677A945768A63666A724669943667A6256",
"7761487773388685279887239878437978736A999448979626977724987842786762486672278786269788359878428989736988944997851597872388784379",
"88759C87867CA7877BEA9969DB8977CD8987BEB9A78DB8986BC87858DA8967CC8876AC87757CB8987CD9997AEB8967CD9997BEA8979DC8875AC88869DA8977DD",
"55769A54768B84788CC6797AC75778CA4688BC76989C84677A944658B75778B94677AB54668C85898CB6698AC75767B95688BC6588AC94776A945779B74778CA",
"14756602766841797973597783277685158788348877315756503756732886851476761266674279787258778326657515878833887841575640376673267685",
"49B76636B97866BC9986AD97746BA78649B88858CA77549A66637B86757CB88649B77746B97756CD99859C97856BA6765AC98857CA7855AA66537B87756BA787",
"9CC7687AD9799AEC89A9DE86879DA5898CC7799BE96878CA5687BC7698AEA6888BB6687AD96899ED89A9CD8798AD96889DD88A8BD96888CA5676AC8698ADA689",
"79724867943898A736989943777842687972597894377685148688237889626878624878943888A8479899348889526879735877842676851466883388895279",
"67526A75634A967538A77735A756338A66526A7663498454269665249867439966526A76734A967648B77635A866328966526A756239856426955625A867438A",
"7898CD8687AEB7888CD88A8AD96878CC7776AC86879D95777BB76869D96989DC7887BE97989DA6899DD8787AD96877CA6687BD86879DA6887BB6687ADA7888DC",
"58A9BB5599AC848A9BA57AABB64888B836879944999B73798A946989A659AACA58A9BB66999B738A9CA56A8AB65898A73588AA55899B74898B835989B64999B9",
"38A776248767328967526A866228745315855513886742786641596562399685379766249756217967626A766338855315856624976732896641486563399675",
"7CC77858B85756BA66659C86757A845559A55658C96866BA56659B75657CA6887BC76758B85655BA6776AC75757B945548955758C85766BA66648B65768DA688",
"BDC77B9AB6589ACA68A9CC76A9AC73798CA56A9BD97ABADA5799BC6699BDA7ACBEC67A9BC75999CA68BACD7699AC84788A956A9BD869AADA58A8BB66AABEA6AB",
"89736A776238868637A787359867316867626A88845AA78526967735A98964AB99736A877339867537A887349767327867515A98844AA78637A77735A989649A",
"55537A644249845549A54546A645238844437A64546B945438954546B85655BA66537A54535A734438A555359634338844437A75646B845449A54536A75755AA",
"6798BC75879C85899CB5698AC75887B94798BC7699ADA6899CB67A9BD8699ADB68A8BB65889C84788CB6698AB64889C95798BC77A9BD95899CB5698AC869AADA",
"48B9AA56A989649B9A836A99955AA89648B9A956BAAB75ACAA947CAAA65AB9A859B99845A99A648A8A847BA9955AA9A848B9AA57BBAB759BAB957BA9A66BBAB8",
"38A555369634228845426964535A845338A65636A75655AA66537A755349845438A545259645338844427A655349845438954536A856449966537A64535A9554",
"7A945768A525559835769A54779C84566AA45779B74788CA56769A54767B73677BB55768A63666A83566AB65768B73677A944769C75888BA5687AB54668B8467",
"ABA57CAAB549A9A858BABB67CBBD85AB9B958CBBB76CCBDA69CAAA56BAAB759BACA68BAAA55AA9A748B9BB67CBAC859CABA57BBBC87CDBC96ACABA56AA9B75AB",
"77637B876349856439B77747CA7855AA66537B87746BB88759B76636A867449A78748B85634A856438A77758C97755AA77637B87857CB78649B766359756449A",
"356489435459513449944658B636569723548A54657B84666A93244695254597346589424359624449934669B63655A834547953667B845559933436841455A8",
"58A9AA55999A63799BA57BABB65ABAB847A9BB67BAAC859BAB945989A54999A848B9AA45988A738A9BA57BBCC75AA9B848A9AA56AABC859A9B946999A539A9B9",
"5AC98847CA8855AB8996ADB9A67DC9A75AC99969DB9A76BC99747B87856BB8875AD99857CA7966BC99859DBAA67CB8975AD98858DB9A76BC89748C98845BB897",
"49933547A635459845659B64657B845559944548B635559834537842445A734449954647A53545A945648B65656A834559A44547A64656A83454795353597345",
"7A834779A53788A73698AA44988B7378798247799526779626878833767A526779834879942787A736879945889A63687A934878A43888A72586883376685268",
"9A959DBAB77DCAA85ADAAA68DBAB87CC9A858CA9A66CB9A75ADA9957CA9975AC9A969DBAA66CC9A85ADAA969ECAB86BCAA958CA9956BC9A759C99857CA8965BC",
"6786AC86868CA5655AB66769C85767CA66648B65657B95666BC65647A74656A95676AC86867C95766AB66769D97877BA56659A64646B95765AB65658B74655AA",
"25879943777A525558723768A52677A72465772255695156698236568205568614779A447779525669823668A537779614657721546952576972365783145696",
"49CAA957CA9A659A89848CAAA66BB9A748A78735A989649B9A847B888449A99749CAAA68CB99649B8A847BA9A66BB99637A88735A98965AB9A847A988449A897",
"7CEA997AEA8978CB7786BEA8A78DB7876AB75658C97877CC8887AD87757CB8987CE99A8BFB7877CB7886AD98979EC8875AC77759D96878DD8886AC97867CA787",
"7BA55879A53677A724669A54767A625558722547952667A725769943656A63677A944779B525569624769943768A725658723657942567A83466883365796257",
"79846A888438978525977734987842786761486773389795269887349778438989736A8894388685269787349878537867514877722787862697762498785289",
"9997BEA9968DB8975AC87869DA7866CC88769C97868DC8976BD99969DA7877DD9997AEA9A78DB8876BD98869DA8977CC77759D98867CB8987CD98869EB8978DC",
"4688BC65878B84777AA44779C74778C94687AB54778C85787BB6688AC74778CA5688AB76989C84677AA55768B64778B93576AA54778B85788CB6687AD85888C9"
};