/* XPM */
static char * floor_xpm[] = {
"128 128 16 1",
"0 c #000000",
"1 c #111111",
"2 c #222222",
"3 c #333333",
"4 c #444444",
"5 c #555555",
"6 c #666666",
"7 c #777777",
"8 c #888888",
"9 c #999999",
"A c #AAAAAA",
"B c #BBBBBB",
"C c #CCCCCC",
"D c #DDDDDD",
"E c #EEEEEE",
"F c #FFFFFF",
"22333333322222211133333333333331113333333333333222333333322222200022222223333331112223333333333222444433322222211233333333333332",
"23566666555555421255555666666652124555556666665223566665554444410134444445555542124555566666666323677776655555421256666666666653",
"459BBBBBAAAAAA84349AAAABBBBBBB95349AAAAABBBBBB95359BBBBAAA9999832379999999AAAA84249AAAABBBCCCCA646ACCCCBBAAAAA84359BBBBBBBBCBBA5",
"46BDDDDDDDDDDDA535ADDDDDDDDDDDB635ADDDDDDDDDDDB636BDDDDDCCCCCC94149BBBBCCCCCCCA525ADDDDDEEEEEEC757CFFFEEDDCCCCA536BDDDDEEEEEEEB6",
"46BDDDDDDDDDDDA535ADDDDDDDDDDDB635ADDDDDDDDDDDB636BDDDDDCCCCCC94149BBBBCCCCCCCA525ADDDDDEEEEEEC757CFFFEEDDDCCCA536BDDDDEEEEEEEB6",
"46BDDDDDDDDDDDA535ADDDDDDDDDDDB635ADDDDDDDDDDDB636BDDDDDCCCCCC94149BBBBCCCCCCCA525ADDDDDEEEEEEC757CFFFEEDDDCCCA536BDDDDEEEEEEEB6",
"36BDDDDDDDDDDDA535ADDDDDDDDDDDB635ADDDDDDDDDDDB636BDDDDDCCCCCC94249CCCCCCCCCCCA535ADDDDDEEEEEEC747CFFEEEDDDDDDA536BDDDDEEEEEEEB6",
"35ADDDDDDDDDDDA525ACCCCDDDDDDDA535ADDDDDDDDDDDA535ADDDDCCCCCCC94249CCCCCCCCCCCA536BDDDDEEEEEEEB747CEEEEEDDDDDDA636BDDDDEEEEEEEB6",
"35ACCCCCDDDDDDA5259CCCCCCDDDDDA536BDDDDDDDCCCCA525ACCCCCCCCCCC9525ACCCCCCCCCCCA536BEEEEEEEEEEEB646BEEEEEEDDDDDB636BDDDDDEEEEEEB6",
"249CCCCCCDDDDDA5249CCCCCCCCCCDA536BDDDDDDCCCCCA525ACCCCCCCCCCC9525ADDDDCCCCCCCA536CEEEEEEDDDDDB646BEEEEEEEEDDDB636BDDDDDDDDEDDB5",
"249BBBCCCDDDDDA5249BBCCCCCCCCCA536BDDDDDDCCCCCA525ACCCCCCCCCCCA535ADDDDDCCCCCCA537CEEEEEEDDDDDB636BEEEEEEEEEEEB646BDDDDDDDDDDDB5",
"249BBBCCCDDDDDA5249BBBCCCCCCCCA536BDDDDDCCCCCCA525ACCCCCCCCCCCA535ADDDDDCCCCCCA547CFFFEEEDDDDDB636BEEEEEEEEEEEB646BDDDDDDDDDDDB5",
"249BBBCCCDDDDDA5249BBBCCCCCCCCA536BDDDDDCCCCCC9525ACCCCCCCCCCCA535ADDDDDCCCCCCA547CFFFEEEDDDDDB636BEEEEEEEEEEEB646BDDDDDDDDDDDB5",
"249BBCCCDDDDDDA5249CCCCCCCCCCCA536BDDDDDCCCCCCA525ACCCCCCCCCCCA535ADDDDDCCCCCCA547CFFEEEEDDDDDB636BEEEEEEEEEEEB646BDDDDDDDDDDDB5",
"2489999AABBBBB942489999AAAAAAA84359BBBBAAAAAAA84248AAAAAAAAAAA84349AAAAAA999998436ACCCCBBBBBBB95359BBBBBBBBBBB95359BBBBBBBBBBB94",
"11455555666666521245555555555542125666555555554101444555555555421245555554444442236777766655555223566666666666521255555555555542",
"11333333444444422133333333333331113333333222222000222222333333311122222222222221224444443333333122444444333333311133333332222221",
"12566666777777632256666666666652124555555555554101444455566666521245555444444442236777766555554223566666666666521245555555555542",
"359BBBBBCCCCCCA6459BBBBBBBBBBB95349AAAAAAAAAAA84248999AAABBBBB95348AAA999999998435ACCCBBBAAAAA85359BBBBBBBBBBB94248AAAAAAA999A84",
"36BEEEEEEFFFFFC746BDDDDDDDDDDDB635ADDDDDDCCCCCA5249CCCCDDDEEEEB535ACCCCCCBBBBC9536CEEEEEDDDCCCA536BEEEEDDDDDDDA525ACCCCCCCCCCCA5",
"36BEEEEEEFFFFFC746BDDDDDDDDDDDB635ADDDDDDCCCCCA5249CCCCDDDEEEEB535ACCCCCCBBBBC9536CEEEEEDDDCCCA536BEEEEDDDDDDDA525ACCCCCCCCCCCA5",
"36BEEEEEEFFFFFC746BDDDDDDDDDDDB635ADDDDDDCCCCCA5259CCCCDDDEEEEB635ACCCCCCCBBBC9536CEEEEEDDDCCDA536BEEEEDDDDDDDA525ACCCCCCCCCCCA5",
"36BEEEEEEEEEEEC646BDDDDDDDDDDDB635ADDDDDDCCCCCA525ACCCCDDDDEEDB635ACCCCCCCCCCC9536BEEEEEDDDDDDA536BDDDDDDDDDDDA525ACCCCCCCCCCCA5",
"36BDDEEEEEEEEEB635ADDDDDDDDDDDB635ADDDDDDCCCCCA525ACCCDDDDDEEDB635ACCCCCCCCCCCA536BEEEEDDDDDDDA536BDDDDDDDDDDDA535ACCCCCCCCCCCA5",
"36BDDDDDDDDDDDB535ACCCCDDDDDDDA536BDDDDDDCCCCCA525ADDDDDDDDDDDB635ADDDDCCCCCCCA536BEEEDDDDDDDDA535ADDDDDDDDDDDA535ADDDCCCCCCCCA5",
"36BDDDDDDDDDDDA525ACCCCCCDDDDDA536BDDDDDDCCCCCA535ADDDDDDDDDDDB635ADDDDDCCCCCCA536BDDDDDDDDDDDB535ACCCCDDDDDDDA535ADDDDDCCCCCCA5",
"36BDDDDDDDCCCCA5249CCCCCCDDDDDA536BDDDDDDCCCCCA535BDDDDDDDDDDDB635ADDDDDDCCCCCA536BDDDDDDDDDDDB535ACCCCCDDDDDDA535ADDDDDDCCCCCA5",
"36BDDDDDDDCCCCA5249CCCCCCDDDDDA536BDDDDDDCCCCCA535BDDDDDDDDDDDB636ADDDDDDDCCCCA536BDDDDDDDDDDDB535ACCCCCDDDDDDA535ADDDDDDCCCCCA5",
"36BDDDDDDCCCCCA5249CCCCCCDDDDDA536BDDDDDDCCCCCA535BDDDDDDDDDDDB636ADDDDDDDCCCDA536BDDDDDDDDDDDB535ACCCCCDDDDDDA535ADDDDDDCCCCCA5",
"36BDDDDDDCCCCCA5249CCCCCCDDDDDA536BDDDDDDCCCCCA536BDDDDDDDDDDDB636BDDDDDDDDDDDA536BDDDDDDDDDDDB535ACCCCCDDDDDDA535ADDDDDDCCCCCA5",
"359BBBBAAAAAAA84248999AAAAAAAA95359BBBBBAAAAAA84359BBBBBBBBBBB95359BBBBAAAAAAA94359BBBBBBBBBBB94348AAAAAAAAAAA95359AAAAAAAAAAA84",
"13566666555555410145555555555552235666665555554213566666666666522356666655555542125666655555554212455555566666521256665555555542",
"22444433322222200122222333333331224444433333333122444443333333312244444333333331113333333222222111333333333443322233333332222231",
"23566666544444311245555555555552235666666655555223666666655555422356666666666652125555555544444212566666666666532356666555555542",
"35ABBBBBA9999984248AAAAAAAAAAA9545ABBBBBBBBBBB9546ACCBBBBAAAAA8535ACCBBBBBBBBB95359AAAAAA9999984359BBBBBBBBBBBA5459BBBBBAAAAAA85",
"36BEEEEDCCCBBC9425ADDDDDDDDDDDB646BEEEEEDDDDDDB646CEEEEDDDCCCCA636CEEEEEEDDDDDB635ADDDDCCCCCCC9536BDDDDEEEEEEEB646BEEDDDDCCCCCA5",
"36BEEEEDCCCBBC9425ADDDDDDDDDDDB646BEEEEEDDDDDDB646CEEEEDDDCCCCA636CEEEEEEDDDDDB635ADDDDCCCCCCC9536BDDDDEEEEEEEB646BEEDDDDCCCCCA5",
"36BEEEEDCCCBBC9425ADDDDDDDDDDDB646BEEEEEDDDDDDB646CEEEEEDDDCCDA636CEEEEEEDDDDDB635ADDDDCCCCCCC9536BDDDDEEEEEEEB646BDDDDDDCCCCCA5",
"36BEEEDDCCCCCC9535BDDDDDDDDDDDB636BEEEDDDDDDDDB646CEEEEEDDDDDDA646CEEEEEEDDDDDB635ADDDDCCCCCCCA536BDDDDDEEEEEEB636BDDDDDDDCCCCA5",
"36BEEDDDCCCCCCA536BEEEEEEEEEEEB636BDDDDDDDDDDDB646CEEEEEDDDDDDB646CEEEEEEEDDDDB635ADCCCCCCCCCCA536BDDDDDDDDDDDB636BDDDDDDDDDDDA5",
"36BDDDDDCCCCCCA536CEEEEEEEEEEEB635ADDDDDDDDDDDB646CEEEEEEEDDDDB646CEEEEEEEEEEEB635ACCCCCDDDDDDA536BDDDDDDDDDDDA535ADDDDDDDDDDDA5",
"35ADDDDDCCCCCCA547CFFFFFFFFEEEC635ACCCCCDDDDDDA647CEEEEEEEEEEEB647CEEEEEEEEEEEB635ACCCCCDDDDDDB636BDDDDDDCCCCCA535ADDDDDDDDDDDB6",
"35ADDDDDCCCCCCA647CFFFFFFFFFFFC635ACCCCCCDDDDDA647CEEEEEEEEEEEB747CEEEEEEEEEEEB6359CCCCCDDDDDDB636BDDDDDCCCCCCA525ACCDDDDDDDDDB6",
"35ADDDDDCCCCCCA647CFFFFFFFFFFFC6359CCCCCCDDDDDA647CEEEEEEEEEEEC747CEEEEEEEEEEEB6359CCCCCDDDEEEB636BDDDDDCCCCCCA525ACCCDDDDDDDDB6",
"35ADDDDDCCCCCCA647CFFFFFFFFFFFC6359CCCCCCDDDDDA647CEEEEEEEEEEEC747CEEEEEEEEEEEB6359CCCCCDDDEEEB636BDDDDDCCCCCCA525ACCCDDDDDDDDB6",
"35ADDDDDCCCCCCA647CFFFFFFFFFFFC635ACCCCCCDDDDDA647CEEEEEEEEEEEC746CEEEEEEEEEEEB6359CCCCCDDDEEDB636BDDDDDCCCCCCA525ACCCDDDDDDDDB6",
"359AAAAAAAAAAA9546ACCCCCCCCCCCA5348AAAAAAAAAAA9546ACCCCCCBBBBBA645ABBBBBBBBBBB9534899AAAABBBBB95359BBBAAAAAAAA84248AAAAAAABBBB95",
"12566666555555522367777777777763224555555555555223677766666666532356666666666652124555555666665222566665555555421245555555555552",
"22444433333333322244444444555442223333333333333222444444444444422133333333333331113333333333333112333333332222211122222223333331",
"23566666666666532366667777777763235666666555555223566666666666521245555555555542125665555555554212566666555555421245555555555542",
"35ABBBBBBBBBBB9545ABBBBCCCCCCCA6459BBBBBBAAAAA95359BBBBBBBBBBB95348AAAAAAAAAAA84359BBBBAAAAAAA95359BBBBBAAAAAA84248AAAAAAAAAAA85",
"36BEEEEEEEEDDEB646BEEEEEEEEEEEC746BEEEEDDDDDDDA636BEEEEEEEDDDDB635ACCCCCCCCCCCA536BDDDDDDDDDDDA536BDDDDDDDDDDDA525ACCCCCCCCCCCA5",
"36BEEEEEEEEEEEB646BEEEEEEEEEEEC746BEEEEDDDDDDDA636BEEEEEEEDDDDB635ACCCCCCCCCCCA536BDDDDDDDDDDDA536BDDDDDDDDDDDA525ACCCCCCCCCCCA5",
"36BEEEEEEEEEEEB646BEEEEEEEEEEEC746BEEEEDDDDDDDB636BEEEEEEEDDDDB635ACCCCCCCCCCCA536BDDDDDDDDDDDA536BDDDDDDDDDDDA535ACCCCCCCCCCCA5",
"36BEEEEEEEEEEEB646BEEEEEEEEEEEC746BEEEEDDDDDDDB636BEEEEEEDDDDDB635ADDDCCCCCCCCA536BDDDDDDDDDDDA536BDDDDDDDDDDDA535ADDDDCCCCCCCA5",
"36BEEEEEEEEEEEB646BEEEEEEEEEEEB646BEEEEEEDDDDDB636BDDDDDDDDDDDB635ADDDDDDDDDDDA535BDDDDDDDDDDDA536BDDDDDDDDDDDB636BDDDDDDCCCCCA5",
"36BDEEEEEEEEEEB646BDDDDDEEEEEEB646BEEEEEEEEEEEB636BDDDDDDDDDDDB635ADDDDDDDDDDDB635ADDDDDDDDDDDA636BDDDDDDDDDDDB636BEEDDDDCCCCCA5",
"36BDDDDEEEEEEEC646BDDDDDDDDDDDB636BDDEEEEEEEEEC636BDDDDDDDDDDDB636BDDDDDDDDDDDB635ADDDDDDDDDDDB636BDDDDDDDDDDDB646BEEEEDDCCCCCA5",
"36BDDDDEEEEEEEC646BDDDDDDDDDDDB636BDDDEEEEEEEEC646BDDDDDDDDDDDB636BDDDDDDEEEEEB635ADDDDDDDDDDDB636BDDDDDDEEEEEB647CEEEEDDCCCCCA5",
"36BDDDDEEEEEEEC646BDDDDDDDDDDDB636BDDDEEEEEEEEC646BDDDDDDDDDDDB636BDDDDDDEEEEEB635ADDDDDDDDDDDB636BDDDDDDEEEEEB647CEEEEDDCCCCCA5",
"35BDDDDEEEEEEEC646BDDDDDDDDDDDB636BDDDEEEEEEEEC646BDDDDDDDDDDDB636BDDDDDDEEEEEB635ADDDDDDDDDDDB636BDDDDDEEEEEEB647CEEEEDDCCCCCA5",
"35BDDDDEEEEEEEC646BDDDDDDDDDDDB636BDDDEEEEEEEEC646BDDDDDDDDDDDB636BDDDDDDEEEEEB635ADDDDDDDDDDDB636BDDDDDDEEEEEB647CEEEEDDDCCCCA5",
"359BBBBBBBBCCBA5359BBBBBBAAAAA95359BBBBBBCCCCCA5459BBBBBBBBBBB95359BBBBBBBBBBB95359AAAAAABBBBB95359BBBBBBBBBBB9546ABBBBBAAAAAA84",
"12566666666666532255555555555542125555666666665323566666666666521256666666666653225666665555554212455555666666532356666555555542",
"11333333333333311133333333333331113333333333334222444443333333311133333344444442224333333332222111222223333333311133333322222221",
"12566555555555521245555555555541114555555666665323677766655555421245555666666663235666665555554101344445566666521145555555555542",
"359AAAAAAAAAAA94348AAAAAAAAAAA84248AAAAAAAAAAB9546ACCCBBBAAAAA84348AAAABBBBCCCA646ABBBBBAAAAAA842379999AAABBBB942489999AAAAAAA84",
"35ADDDDDDDDDDDA535ACCCCCCCCCCCA525ACCCCCDDDDDDB647CEEEEEDDCCCCA535ADDDDDEEEEEEC746BEEEEDDCCCCC94249BBCCCDDDDDDA5249CCCCCCCCCCCA5",
"35ADDDDDDDDDDDA535ACCCCCCCCCCCA525ACCCCCDDDDDDB647CEEEEEDDCCCCA535ADDDDDEEEEEEC746BEEEEDDCCCCC94249BBCCCDDDDDDA5249CCCCCCCCCCCA5",
"35ADDDDDDDDDDDA535ACCCCCCCCCCCA525ACCCCCDDDDDDB647CEEEEEDDDCCCA535ADDDDDEEEEEEC746BEEEEDDCCCCCA4249CCCCCDDDDDDA5249CCCCCCCCCCCA5",
"35ADDDDDDDDDDDA535ACCCCCCCCCCCA525ACCCCCDDDDDDB647CEEEEEDDDDDDA535ADDDDDEEEEEEC646BEEEEDDDCCCCA5249CCCCCDDDDDDA5259CCCCCCCCCCCA5",
"35ADDDDDDDDDDDA535ACCCCCCDDDDDA525ACCCCDDDDDDDA647CEEEEEEDDDDDB535ADDDDDEEEEEEB646BEEEEDDDDDDDA535ACCCCDDDDDDDA525ACCCCCCCCCCCA5",
"35ADDDDDDDDDDDB535ACCCCCDDDDDDA535ADDDDDDDCCCDA647CEEEEEEEEEEEB635ADDDDDEEEEEEB646BDDDDDDDDDDDB636BDDDDDDDDDDDA525ACCCCCCCCCCCA5",
"35ADDDDDDDEEEEB5359CCCCCDDDDDDB636BDDDDDDCCCCCA647CEEEEEEEEEEEB635ADDDDDEEEEEEB646BDDDDDDEEEEEB646BEEEDDDDDDDDA535ACCCCCCCCCCCA5",
"35ADDDDDDEEEEEB5359CCCCCDDDDDDB636BDDDDDDCCCCCA646CEEEEEEEEEEEC636ADDDDDEEEEEEB636BDDDDDEEEEEEB646BEEEEEDDDDDDA535ACCCCCCCCCCCA5",
"35ADDDDDDEEEEEB6359CCCCCDDDDDDB636BDDDDDDCCCCCA546CEEEEEEEEEEEC636ADDDDDEEEEEEB636BDDDDDEEEEEEB646BEEEEEDDDDDDA535ACCCCCCCCCCCA5",
"35ADDDDDDEEEEEB6359CCCCCDDDDDDB636BDDDDDDCCCCCA546CEEEEEEEEEEEC636ADDDDDEEEEEEB636BDDDDDEEEEEEB646BEEEEEDDDDDDA535ACCCCCCCCCCCA5",
"35ADDDDDDEEEEEB5359CCCCCDDDDDDB636BDDDDDDCCCCCA536CEEEEEEEEEEEC636ADDDDDEEEEEEB636BDDDDDEEEEEEB646BEEEEEDDDDDDA535ACCCCCCCCCCCA5",
"349AAAAABBBBBB95348AAAAAABBBBB95359BBBAAAAAAAA8535ACCCCCCCCCCCA5359AAABBBBCCCCA5459BBBBBBBBBBBA646ABBBBBBBBBBB95348AAAAAAAAAAA84",
"12455555555555521245555566666652125555555555554223566666666666532256666667777763235666666666665323666666666666521245555555555542",
"11333333322222311133333334444442113333333333333111333333333333322233333444444443224444444444444222444444433333311122222333333331",
"12455555555555421256666666666653124555555555555212455555555555521256666677777764336777766666665323566666666666521245555555666552",
"349AAAAAA9999984359BBBBBBBCCCBA5348AAAAAAAABBB94348AAAAAAAAAAA95359BBBBBCCCCCCA646ACCCCBBBBBBB9545ABBBBBBBBBBB95348AAAAAABBBBB95",
"35ADDDDCCCCCCCA536BEEEEEEEEEEEB635ACCCCDDDDDDDA535ACCCCCDDDDDDA536BDDEEEEFFFFFC747CEEEEEEEDDDDB646BEEEEEEEEEEEB635ACCCDDDDDDDDB5",
"35ADDDDCCCCCCCA536BEEEEEEEEEEEB635ACCCCDDDDDDDA535ACCCCCDDDDDDA536BDDEEEEFFFFFC747CEEEEEEEDDDDB646BEEEEEEEEEEEB635ACCCDDDDDDDDB5",
"35ADDDDCCCCCCCA536BEEEEEEEEEEEB635ACCCCDDDDDDDA535ACCCCDDDDDDDA636BDDEEEEFFFFFC747CEEEEEEEDDDDB646BEEEEEEEEEEEB635ACCCDDDDDDDDB6",
"35ADDDDCCCCCCCA536BDDDDEEEEEEEB635ACCCCDDDDDDDA535ADDDDDDDDDDDB636BEEEEEEEFFFFC747CEEEEEEEDDDDB646BEEEEEEEEEEEB635ADDDDDDDDDDDB6",
"36BDDDDDCCCCCCA535BDDDDDDDDDDDB635ADDDDDDDDDDDA536BDDDDDDDDDDDB646BEEEEEEEEEEEC747CEEEEEEDDDDDB646BEEEEEEDDDDDB635ADDDDDDDEEEEB6",
"46BDDDDDDCCCCCA525ADDDDDDDDDDDA536BDDDDDDCCCCCA536BEEEEEEEEEEEB646BEEEEEEEEEEEC746BEEEEEEDDDDDB636BEEEEDDDDDDDB636BDDDDDEEEEEEB6",
"46BEEEDDDCCCCCA525ACCCCCDDDDDDA536BDDDDDCCCCCCA536CEEEEEEEEEEEC746BEEEEEEEEEEEB646BEEEEEDDDDDDB636BDDDDDDDDDDDB636BDDDDEEEEEEEB6",
"46BEEEDDDCCCCCA525ACCCCCCCCCCCA536BDDDDDCCCCCCA547CFFFFFEEEEEEC746BEEEEEEEEEEEB646BEEEEEDDDDDDB636BDDDDDDDDDDDB636BDDDDEEEEEEEC6",
"46BEEEDDDCCCCCA525ACCCCCCCCCCCA536BDDDDDCCCCCCA547CFFFFFFEEEEEC746BEEEEEEEEEEEB646BEEEEEDDDDDDB636BDDDDDDDDDDDB636BDDDEEEEEEEEC6",
"46BEEEDDDCCCCCA525ACCCCCCCCCCCA536BDDDDDCCCCCCA547CFFFFFFEEEEEC746BEEEEEEEEEEEB646BEEEEEDDDDDDB636BDDDDDDDDDDDB636BDDDEEEEEEEEC6",
"46BEEEDDDCCCCCA525ACCCCCCCCCCCA536BDDDDDCCCCCCA547CFFFFFEEEEEEC746BEEEEEEEEEEEB646BEEEEEDDDDDDB636BDDDDDDDDDDDB636BDDDEEEEEEEEC6",
"459BBBBAAAAAAA84248AAAAAAAAAAA84359BBBBAA999998436ACCCCCCCCCCCA6459BBBBBBBBBBB95459BBBBBBBBBBB95359BBBBBBBBBBB95359BBBBBBCCCCCA6",
"22555555555445411245555555555542125666655444444223677777666666532356666666666653225666666666665323566666666666522256666666777763",
"11322222222222211133333332222231123333332222222122444444433333311133333334444442113333333333444222444444443333322133333344444442",
"11444444444444411256666555555542125666655444444223677776655555421245555666666652124555556666665323677776666666521255556666666652",
"3489999999999984359BBBBAAAAAAA84359BBBBAA999998435ACCCBBAAAAAA84248AAAAABBBBBB95348AAAAABBBBBBA646ACCCCCBBBBBB95359AAABBBBBBBB95",
"359CCCCCCCCCCC9536BDDDDDDDCCCCA536BDDDDDCCBBBB9536CEEEEDDCCCCCA525ACCCDDDEEEEEB635ACCCCDDDEEEEB647CEEEEEEEEEEEB635ADDDDDEEEEEEB6",
"359CCCCCCCCCCC9536BDDDDDDDCCCCA536BDDDDDCCBBBB9536CEEEEDDCCCCCA525ACCCDDDEEEEEB635ACCCCDDDEEEEB647CEEEEEEEEEEEB635ADDDDDEEEEEEB6",
"359CCCCCCCCCCC9536BDDDDDDDCCCCA536BDDDDDCCBBBC9536CEEEEDDDCCCCA525ACCCDDDEEEEEB635ACCCDDDDEEEEB647CEEEEEEEEEEEB636ADDDDDEEEEEEB6",
"359CCCCCCCCCCCA536BDDDDDDDCCCCA535BDDDDDCCCCCC9536BEEEEDDDCCCCA525ADDDDDDDDEEEB635ADDDDDDDEEEEB647CEEEEEEEEEEEB636BDDDDDEEEEEEB6",
"35ACCCCCCCCCCCA536BDDDDDDDCCCCA535ADDDDCCCCCCCA536BEEEDDDDDDDDA535ADDDDDDDDDDDB636BDDDDDDDEEEEB647CEEEEEEEEEEEB646BDDEEEEEEEEEB6",
"35ACCCCCDDDDDDA636BDDDDDDDCCCCA525ACCCCCCCCCCCA536BDDDDDDDDDDDB636BDDDDDDDDDDDA636BEEEEEDDDDDDB646CEEEEEEEEEEEC746BEEEEEEEFFFEC6",
"35ACCCDDDDDDDDB636BDDDDDDDCCCCA5249CCCCCCCDDDDA535ADDDDDDDDDDDB636BDDDDDDDCCCDA636BEEEEEEDDDDDB646BEEEEEEEEEEEC747CEEEEFFFFFFFC6",
"35ADDDDDDDEEEEB636BDDDDDDCCCCCA5249CCCCCCDDDDDA535ADDDDDDDEEEEB636BDDDDDDCCCCCA536CEEEEEEDDDDDB646BEEEEEEEEEEEC757CFFFFFFFFFFFC7",
"36ADDDDDDEEEEEB636BDDDDDDCCCCCA5249BBBCCCDDDDDA535ADDDDDDDEEEEB646BDDDDDDCCCCCA546CEEEEEEDDDDDB646BEEEEEEEEFFFC757CFFFFFFFFFFFC7",
"35ADDDDDDEEEEEB636BDDDDDDCCCCCA5249BBCCCCDDDDDA535ADDDDDDDEEEEB646BEEDDDDCCCCCA546CEEEEEEDDDDDB646BEEEEEEEEEEFC757CFFFFFFFFFFFC7",
"36ADDDDDDDEEEEB636BDDDDDDDCCCCA5249BBCCCCDDDDDA535ADDDDDDDEEEEB646BEEDDDDCCCCCA646CEEEEEEDDDDDB646BEEEEEEEEEEEC757CFFFFFFFFFFFC6",
"359AAAAABBBBBB95359BBBAAAAAAAA842379999AAAAAAA84348AAAAABBBBBB95459BBBBBAAAAAA9546ACCCBBBBBBBB9545ABBBBBCCCCCCA646ACCCCCCCCCCCA6",
"22555555555555421245555555555542014444455555554212455555666666532356666666555552235666666555555223566666666666632367777777777763",
"22333333322222211122233333333331112222222222222111333333333333422244444444333332224443333322223122444444333333322244444444444442",
"23566665544444310145555556666652124555555444444112455556666666532366666666666653235666655554454213566666665555522356666666666653",
"459BBBBAA9999973248AAAAAABBBBB95348AAAAAA9999984249AAAABBBBBBB9546ABBBCCCCCCCCA5359BBBAAAA999984359BBBBBBAAAAA95359BBBBBBBBBBB95",
"36BEEDDDCCBBBB9424ACCCCDDDDDDDB635ACDCCCCCCCCC9525ADDDDDDDDDDDB646BEEEEEEEEEEEB636BDDDDDCCCCCCA536BEEEEDDDDDDDA536BEEEEDDDDDDDB6",
"36BEEDDDCCBBBB9424ACCCCDDDDDDDB635ADDCCCCCCCCC9525ADDDDDDDDDDDB646BEEEEEEEEEEEB636BDDDDDCCCCCCA536BEEEEDDDDDDDA536BDDDDDDDDDDDB6",
"36BEEDDDCCBBBB9424ACCCCDDDDDDDB635ADDDCCCCCCCC9535ADDDDDDDDDDDB646BEEEEEEEEEEEB636BDDDDDCCCCCCA536BEEEDDDDDDDDA536BEEDDDDDDDDDB6",
"36BEDDDDCCBBBB9425ACCCCDDDDDDDB635ADDDDCCCCCCCA535BDDDDDDDDDDDB646BEEEEEEEEEEEB636ADDDDCCCCCCCA536BDDDDDDDDCCDA536BEEEDDDDDDDDB6",
"36BDDDDDCCBBBB9425ACCDDDDDDDDDB535ADDDDDDDCCCDA536BDDDDDDDDDDDB636BDDDEEEEEEEEB635ADDDDCCCCCCCA535ADDDDDDCCCCCA536BEEEDDDDDDDDB6",
"36BDDDDDCBBBBB9425ADDDDDDDDDDDA535ADDDDDDDDDDDB636BDDDDDDDDDDDA535ADDDDDEEEEEEB635ACCCCCCCCCCCA525ADDDDCCCCCCCA536BEEEDDDDDDDDA5",
"36BDDDDDCBBBBB9425ADDDDDDDDDDDA535ADDDDDDDDDDDB646BEEEEDDDDDDDA535ADDDDDDEEEEEB635ACCCCCCCCCCC9525ACCCCCCCCCCCA536BEEEDDDDCCCCA5",
"36BDDDDDCBBBBB9425BDDDDDDDDDDDA535ADDDDDDEEEEEB646BEEEEDDDDDDDA535ACCCDDDEEEEEB635ACCCCCCCCCCC9425ACCCCCCCCCCCA536BEEEDDDDCCCCA5",
"36BDDDDDCBBBBB9425BDDDDDDDDDDDA535ADDDDDDEEEEEB646BEEEEDDDDDDDA525ACCCDDDEEEEEB635ACCCCCCCCCCC94249CCCCCCCCCCCA536BEEEDDDCCCCCA5",
"36BDDDDDCBBBBB9425BDDDDDDDDDDDA535ADDDDDDEEEEEB646BEEEEDDDDDDDA525ACCCDDDEEEEEB635ACCCCCCCCCCC94249CCCCCCCCCCCA536BEEEDDDCCCCCA5",
"36BDDDDDCBBBBB9425BDDDDDDDDDDDA535ADDDDDDEEEEEB646BEEEEDDDDDDDA525ACCCDDDEEEEEB635ACCCCCCCCCCCA525ACCCCCCCCCCCA536BEEEDDDDCCCCA5",
"359BBBBAA9999974259BBBBBAAAAAA94359AAABBBBBBBB9545ABBBBBBAAAAA84248AAAAABBBBBB95348AAAAAAAAAAA84248AAAAAAAAAAA84359BBBBBAAAAAA85",
"23566665544444311256666655555552125555566666665323566666555555410144445556666652124555555555555212566555555555421256666666555552"
};