/* XPM */
static char * metal_xpm[] = {
"128 128 16 1",
"0 c #000000",
"1 c #111111",
"2 c #222222",
"3 c #333333",
"4 c #444444",
"5 c #555555",
"6 c #666666",
"7 c #777777",
"8 c #888888",
"9 c #999999",
"A c #AAAAAA",
"B c #BBBBBB",
"C c #CCCCCC",
"D c #DDDDDD",
"E c #EEEEEE",
"F c #FFFFFF",
"BCDDDDDCCBBAAAAABCCDDEEEEEEDDCBAA99999AABBBBBBA998776666667788999888777666667889AABBCCCBBBAAA9AAABBCDDDDDDDCCBBAAAAAAABBBBCCBBBB",
"CCDEEEEDDCBBAAAABBCDDEEFFFEEDDCBA99999AABBCCCCBBA9887666667789999999887776667789AABCCCCCCBBAA999AABBCDDDEDDDCCBBAAAAAAABBBCCCCCC",
"DDEEFFEEDCBAA99AABBCDDEEEEEEDCCBA99999ABBCDDDDDCBBA9887778899ABBBBBBAA9887778899ABCCCDDCCBBA99999AABBCDDDDDCCBBBAAAAAABBCCCDDDDD",
"EEEFFEEDCBA998889AABCCDDDDDCCBAA998899ABCDDEEEEDDCBAA9999AABCCDDDDDCCBAA998999AABCCCDCCCBAA98888889AABBCCCBBAAA99999AABBCDDDEEEE",
"DDDDDDCBA98776667889AABBBBAA99887777889ABCDDEEDDCCBBAAAAABBCDDEEEEDDCCBA999999AABBBBBBBA988766666678899AA99988777778899ABCCDDDDD",
"BBBBBA9876554444556778899887766554556678ABBCCCCBBAA99999AABCDDEEEDDCBBA98877888999999988765443344456677777766555555667889AABBBBB",
"9999887654332223345566777665544332334456889AAA999887777889AABCCCCBBA988766556667777776654432222223445566555443333333455678899999",
"67766654332211122345556665544322111223456777877665555555677899AA9987765443334445555554433211111122344555544332211222334556667766",
"55555543322212223445666666544322111223345666665443322233445667777665433221122233444444332111111123445565554332211222334445555555",
"55665544333333345567778877665433222334455666654332111112234455555443221110111233444444333222222345567777765543333333444555555444",
"667776655555556678899AAA99887655444455677777665432111111233444444432211111112334556665544433344567899AA9987765544555666777666555",
"78999887777777899ABBCCCCCBAA987777777889999987654322222234455555544332222223455677888776666566789AABCCCCBA9987777778899999887766",
"ABBBBAA9998999AABCCDDDDDDCCBAA999999AABBCCCBA987654444445666777766554433444567899AAAA99888778899ABCDDDDDCBBA9988999ABBBBBBBAA989",
"CCDDCBBAA999AABBCCDDEEEDDCCBBAAAAAABBCDDEEEDCBA9876666778899999988776666667899ABBCCCBBA99988899ABCDDEEEDCCBA99999ABBCDDDDDDCBBAB",
"DDDDCBBAA9999AABBCCCDDCCCBBAA9999AABCDDEEEEEDCBA99888899ABBBBBBBAA988877889AABCCDDDCCBA99888899ABBCCDDCCBAA988889ABBCDDEEEDDCCBC",
"CDDCBA9988888899AAABBAAA99887777899ABCDDEEEDDCBBA999AABBCCDDDDCCBAA9988899AABCCCCCCBBA988777778899AAAAA998877667889ABCDDDDDDCCBC",
"BBBA987766666677888888877655555567789ABBCCCCBBA99999AABCCCDDDDCCBA998888899AABBBBBA9987665555566778888776655444566789ABBCCCBBAAA",
"998876544444455666666665443322334556789999999887778899ABBCCCCCBA9887666677888999988765443333344555566555443322234456789999999888",
"776554332223344555555544322111122345567777766555556678899AAAA9987655444455566777766543322222233444444443322111122345667777776666",
"55543322222334455666554332111112234455565554433333445667778877654432222233445555544332111112233444554443322111122345566666554444",
"45543332333445667777765543222222344555555543322222334455666655432211001112334444443322211223345556666554433222233455666666544333",
"55554444455677899999887665444444566777766554322222233445555544322100000112334455544433333344567788888776655444455677788776654334",
"6776666667789ABBBBBBBA9887666667889999988765443333344556665554332110011233455666666555555567899AABBAAA98877666778899AAA998765545",
"8998888889AABCDDDDDDCBBA99888899ABBBCCBBA987665555566777777766543222223456678889888777777889ABCCDDDCCBBA99888899ABBCCCCBBA987667",
"AAAA99999ABBCDDEEEDDCCBAA9999AABCCDDEDDCCBA98877778899AAAAA9987654444556789AABBBAA99888899ABBCDDEEEDDCBBA99999AABCCDDDDDCBA99888",
"ABBA9999AABBCDDDDDCCBBA999999AABCDEEEEEDDCBA999999ABBCCCCCCBBA9877667789ABBCCDCCCBAA999999ABBCDDDEDDCCBA9988899ABCDDDDDDCCBA9999",
"AAA9888889AABBBBBBAA99877777889ABCDDDDDDCBBAA99AABBCDDEEEEEDCCBA9888899ABCDDDDDCCBA98888899AABBCCCCBBA9877667789ABBCCCCCCBAA9999",
"988776667788999998877655555566789ABBCCBBAA999899ABBCDEEEEEEDDCBA988899ABBCDDDCCBA98776666778899AAA99876654445567899AAAAAA9988888",
"66554444455667777665443333334456789999988777777889ABCDDDDDDCCBA98877889AABBBBBA9876544444556677777766543322233456678888777666666",
"4433222233455555554332211122234556777766554444556789ABBBBBBA99876666677889999876544322223344556666554332111122344556666554443444",
"22111111233445555443221111122334556665543322223345677889988776544444455667776654332111112234455555544322111122334455544433222222",
"11110112234556665544332222223345566655433211111223455666665543322222334455555543221111112344556666554433222233445555544332211111",
"22111223455677777766544444445566777766543211111123344555443322111112233455555443322222234456778888776554444555667777665443222222",
"33333345678999AA99887766666778899999876543222222334445544332211111223345566665544433344567899AAAAA998777677788999999887655443333",
"5555566789ABBCCCBBAA988888899ABBCCCBA98765444444455666655433222222344567788887766656667899ABCCCCCCBAA999999AABBCCCCBAA9887666555",
"77777889ABCCDDDDCCBAA99999AABCCDDDDDCBA987666666778888877654433345567889AAAAA9988888889ABBCDDDEDDDCBBAAAAABBCCDDEDDDCBBA99888888",
"9888899ABCCDDDDCCBBA999999ABBCDDEEEDDCBA988888899AAAAAA99876665667899ABCCCCCCBBAA9999AABCCDDEEEDDCBBAA99AABBCDDEEEEDDCCBAAAAAAA9",
"9988899ABBCCCCBBAA988878889AABCDDDDDCCBA998899AABBCCCCBBAA98877889ABBCDDEEDDCCBAA9999AABBCCDDDCCBBA99888899ABCCDDDDCCBBBAAAAABBA",
"9877778899AAA99987766656667899ABBBBBAA99888889AABCCCCCCBBA9988899ABCCDDEEEDDCBAA99888999AABBBBAA9877666667789AABBBBBAA999999AAAA",
"765556677787777665544444445677889998877666677899ABBBCBBBA99888889AABCCDDDDCBBA98776667778899988766544334445677889988877777778998",
"543444555666555443332222334456667666554444455678899AA99988776677789AABBBBAA98765544445566677766544322222233455667766655444556776",
"32223344455544433322222223344555555433322223445667777776655444455677888988776543322233445566655433221111223445555555433333334554",
"22222344455554444333333334445555554332211122334455555544333222334455666666554322111223345566655443222222334455566554432222223443",
"32233455666666555554445555667777665433221122334444444332221111122344555555443221112233456677776554433344455667777665443222233443",
"43445677888888777777777788899999876654333333444555444332211111122344555555443332223345678999998776665666778899999887655444444554",
"6667899AABBAAA999999999AAABBBBBBA998765555556666666554332211122234556666666554444456789AABBBBBA9988888899AABBBBBBBA9877666666777",
"8889ABCCCDCCCBBAAAAAAABBCCDDDDDDCBA99877777889999887765544333345567788888887766667789ABCDDDDDCBBAA9999AABBCCDDDDDCCBA99888899999",
"AAABCCDDEDDDCBBAAAAAAABBCDDEEEEDDCBAA999999AABBBBBAA987766666677899AAAAAAAA99888899ABCDDEEEEDCCBAA999AABBCCDDDDDDDCCBAAAAAABBCCB",
"BBBBCDDDDDDCBBA9988889AABCCDDDDCCBBAA9999AABCCDDDDCCBA998888899AABBCCCCCCBBAAA999AABCCDDEEDDCBBA9988999AABBCCCCCCCCBBAAAAABCCDDC",
"BAABBCCCCBBA9887666667889ABBBBBBAA99888899ABCDDDDDDCCBAAA999AABBCCDDDDDDCCBAA99999AABBCCCCBBA98877667788999AAAAAAAA999999AABCDDC",
"A9999AAAA9887654443445567889998887766667789ABBCCDDCCBBAA999AABBCCCDDDDCCBBA99888888999AAAA987765544455566778888888777777789ABCCB",
"7767778777655432222223445667766655444445567899AABBAA998888899AABBBBCBBBA998776666667778877765443322333445556666555554445567899A9",
"55555666655432211111223445555554332222233456778888877666666778899999998776554444444555666554332221222334444544444333333344567777",
"44445555554332211111233455555543322111122344566666555444444556677777766544332222233445555544322222223344455554443332222233455665",
"44455566655443322223345667766554322111122334455554433222222334555555544332221112233455555554433333344556666665544433222233445555",
"55567777777665544455677889988765443322333445555554332211112233445554443322222223345667777766555555567788888887766554444445556665",
"778899AAA9988777777889AABBBAA987655444455667777665433222222344555555444333333344567899999988777777899AABBBBAA9987766666667778877",
"99ABBCCCCBBAA999999AABCCCCCCBAA987766677899999988765443334455667776665555445556789ABCCCCBBA9998899ABBCDDDDCCCBAA9988888899AAAAA9",
"BCCDDDDDDCCBBAA999AABCCDDDDCCBA998888899ABBCCCBBA987665566678899999887777777789ABCDDEEEDDCBAA999AABCCDDEEDDDCCBAAA9999AABBCCCCCB",
"DDDEEEDDDCBBAA99999ABBCCCCCCBAA98888899ABCDDDDDCBBA988888899ABBBBBBAA99988899AABCDEEFFEEDCBA99999ABBCCDDDDCCBBAAA999AAABCCDDEEDD",
"DDDDDDCCBAA9888777899AAABAAA99877777889ABCDDEEDDCBAA99999ABBCDDDDCCCBAA99999AABCDDEEEEDCBA988777889AABBBBBAAA998888899ABBCDDEEDD",
"CBBBBBAA98776655566778888887766555556789ABCCDDCCBBA99999AABCDDEEDDCCBAA999999AABCCCDCCBA98765555667889999888776666667789ABCCCDCC",
"999998876654433334455666666544333333456789AAAAAA998888889AABCCDDCCBBA98887778889AAAAA99865443333445567777665544333344567899AAAAA",
"777776554433222233345555554432211112234567788887766666667899ABBBBA99876655555667788877654322111223345566555433222222334567788887",
"56655544332222223345556555433211101112344556655544433444567788998876654433334445566655443211111123345555554433211111223445666665",
"55555544333223334556777766543321111122334444443332222223345566776655432222222344455554432211111233456666665543321111223445555544",
"56666655544444566788999987765443222233445555443322111122334555555543322111122344555555543332233455678888887765443333344556655544",
"77888777666667789ABBCCCBBA98766554455666666655433222222234455555554432222223445667777766555455567899AABBBAA987665555566777777656",
"9AAAAA99988899AABCDDEEEDCCBA988777778889998876654433334455667777665544333445678899999988777777889ABCCCDDCCBBA98877778899AAA99878",
"BCCCCBBAAAAAAABCDDEFFFFEDCCBAA999999AABBBBBA9987666555667888999888766655667789ABBBBBBBA99888899ABCCDDEEEDDCCBAA99999AABCCCCBBAAA",
"CDDDCCBBAAAAABBCDDEEFFEEDCBBAA9999AABCCDDDCCBAA9888888899ABBBBBBAA988777889ABBCDDDDDCBBA999899AABCCDDDDDDCCBBAA999AABBCDDDDDCBBB",
"DDDDCBAA99999AABCCDDDDDCBBA99988899ABCCDDDDCCBAA99999AABCCDDDDDCCBA999999AABCCDDDDDCCBA998888899ABBCCCCBBBAA9988889AABCDDDDDCCBC",
"BCCBA98887778899AABBBBAA988777777789AABCCCCCBAAA9999AABCDDEEEEDDCBAA99999AABBCCDDCCBA98876666778899AAA999887776667789ABBCCCBBAAB",
"9A9887655555667788999887765554455567889AAAAA998888889ABBCDDEEDDCBA988878889AAABBBAA98765544445566778877766555444455678999A999889",
"7776544333344556677777655443333334456677888776666667789ABBCCCBBA9876665667788888887654433222334455666655544333333345567777776666",
"55543322223334556677665543322222233445566655444434455678899A99876544333445566666665433221112223445555554433322222234455555544334",
"34433222223345567777776544333222333445555443322222233456677777654322112223444555544322111112234556666655443333223334455554433222",
"34443333344566788999987765544444444555555443221111223345566665432211001122344455544332222233456678888776655444444455566554432222",
"55655445566789AABBBBAA98876666666677777765543222222234455665554321100111234455666554443444556789AAAAA998877666666777888776543333",
"788777777889ABCCDDDDCBBA998888888999999887654433334455667776654432212223456677887776666667789ABBCCDCCCBAA998888999AAAAAA98766555",
"9AAA999999ABCCDDEEEDDCBBAA9999AAAABBBBBAA987665556677888999887655444445567899AAAA9988878899ABCDDEEEEDDCBBAA99AAABBCCDDCCBBA98778",
"BCCBBAAAAABBCDDDEEDDCCBAA9999AABBBCCCCCCBA9987778899AABBBBBBA988766667789ABBCCCCBBAA99999ABBCDDEEEEEDDCBAA999AABCCDEEEEEDCCBA99A",
"CCCBBAAA9AAABCCCCCCBBA998888899AABBCCCCCBAA998899ABBCDDDDDDDCBAA988889AABCCDDDDDCBAA99999AABCCDDDDDDCBAA988889AABCDDEEEEDDCCBABB",
"BBBA998888899AAAAA998776666667889AAABBBAAA998889ABBCDEEEFEEEDCBBA999AABBCDDDDDDCBA998878889AABBBBBBAA98776666789ABBCCDDCCCBBAAAB",
"9998776666677888877665444344456677889988887777789ABCDDEEEEEDDCBAA9999AABCCCCCCBA98776555667888999988766544444567889AAAAAAA999999",
"776554444445566665543322222233445566666655555556789ABCCDDCCCBA998888899AAAAAAA98765443334456677777665433222233456678888877766677",
"54433333333445555443221111112233444444443333333456789AAAAA9988766666677888888765443221222344556665544322111122345566666555444445",
"33222222334455555443322111122333444433322211112334567788877655444344455666666544321111112334556665544322211223345555555443332233",
"32222223445667776654433323334445554443322211111234456666654433222223344555555443221111123445667776655443333334556666655443322222",
"33333445667899998876655555566677776655433322222234455665543322111122344555555443322222344567889998877665555566778888776554433333",
"5555566789ABBBBBBA9887777788999999987765544433445566676654432222223345566666665544444556789AABBBBAA998877778899AAAAA998766555445",
"7777789ABBCDDDDDCBBA998899AABBCCBBBA99877666666678888887765433333445677888888877666667889ABCCDDDCCBBA999999AABBCCCCCBBA998777777",
"99999AABCDEEEEEDCCBA99999AABCCDDDCCBBA9998888899AABBBBAA98765555667899AABBBBAA998888899ABCDDDEEDDCCBAA9999AABCCDDEDDDCBBAA999999",
"AA99AABCCDDEEEDCCBA9988899ABCCDDDCCCBAAA9999AAABCCDDDDCCBA987777899ABCCDDDDCCBBA99999AABBCDDDDDDCBBA9988899ABBCDDDDDDCBBBAAAAABA",
"A99999ABBCCCCCBBA98776677899ABBCCBBBAA999999AABCDDEEEEEDCBA999999ABCDDEEEEDDCBBA999999AABBCCCCBBA988776677889ABBCCCCBBAAA99AAABB",
"877778899AAAAA98766554455677899AA9998877778899ABCDEEEEDDCBA99999ABBCDDEEEDDCBA99887778899AAAAA9876654444455678899AA9988888888999",
"65555567788887765443333344566777777766555566789ABBCCDCCBAA9888889ABBCCDCCCBA9877666666677888877654322222234456677777665555566777",
"43333445667766554332222233445666665544333334556789AAAAA9877666677899AAAAA9887654444444556666665432111011122344555555443333334555",
"21122334566666544332222233445565554433221222345667888876654444455677888877654433222333455666655432110001122344555544332111122333",
"11122345667776655443333445566666654432211112234456666654332222234456666665443222222234456667665432211112234455565554322111111222",
"22234456789988876655556667788888776543322222334455655543221111123445566655433222223345677888887654333334556677777765443221122333",
"44456789ABBBBAA98887788899AABBAA99876544434445566666554322111122345566666554433334556789AAAAAA987665556678899AAA9987655433334444",
"666789ABCDDDCCBBAA999AAABCCDDDDCCBA98776666677888888765443222234566778887766555566789ABBCCDCCCBA987777889ABBCCCCBBA9877666666777",
"889AABCDEEEEDDCBBAAAAABBCDDEEEEDDCBBA99888899AAABAAA9876554445567899AAAAA9988778899ABCDDEEEEDDCBA988889ABBCDDDDDDCBBA98888889999",
"AAABCCDEEEEEDCBBA999AABBCCDDEEEDDDCBBAAAAAABBCCDDDCCBA98776677889ABCCCCCCBBAA999AABCCDEEEEEEDCBA9888889ABBCDDDDDDCBBAA99999AABBB",
"BAABBCDDDDDCBA998888889AABCCCCCCCCBBAAAAAABCCDEEEEDDCBAA988889AABCDDEEEDDCCBBAAAABBCCDDEDDDCBA98776667789ABCCCCCBBAA999999AABCCC",
"A99AABBBBBA9987665556678899AAAAAA99998999AABCDDEEDDDCBAA99999ABBCDEEEEEDDCBBAA999AABBCCCCBBA987654444556789AAAA998887777789AABBB",
"8778889998876544333344566777877777766667789ABBCCCCCBBA99888899ABCDDDDDCCBBA99888888999A99987654432222344567777776655555556789AA9",
"6556667766554332222223445566665555444445567889AAAA9988777667789AABBBBBAA98776666666777777665433211111223455666554433333334567787",
"44445555554432221112233455555544433323333456677877766554444556788999988766544444445556666554322110001123455555443322111223345665",
"33345555554433222223345566666554332222223344566665544333223344566777765544332222334455665544332211112334566665543322111122334554",
"44456666666554444445567788887765443322333444555554433221122233455666554433222222344566666665544333334566778877654432222233444554",
"5667888888877666667789AABBBAA987655444444556666655443222222334455665554433222334456778888887766555667889AAAA99876554444455566666",
"889AABBBBAA99888899ABBCDDDDDCBA98766666677788887766543333334556677776655444444566789AAABAAA9988888899ABBCCCCBBA98776666778889988",
"ABBCDDDDCCBBAAAAAABBCDEEFFFEEDCBA988888899AAAAA9988765555566788899988877666667789ABBCCDDCCBBAA9999AABCDDDDDDDCBAA9988899AABBBBBB",
"CDDEEEEDDCCBAAAAAABCDDEEFFFEEDCBA99999AABBCCCCCBBAA988777889AABBBBBBAA998888899ABCDDDEEDDDCBBAAAAAABBCDDDEDDDCBBA99999ABBCDDDDDD",
"DDEEEEDDCBBA999999ABBCDDEEEDDCBA998899ABBCDDDDDDCCBAA9999ABBCDDDDDDDCBBAA999AABBCDDEEEDDDCBAA999999ABBCCCCCCBBA9998999ABCDDEEEED",
"DDDDDCCBA98877777889AABBBBBBAA987777889ABCCDDDDCCCBBAAAABBCDDEEEEEEDDCBAAA99AABBCCDDDCCBBA988777777899AAAAA998877777789ABCDDDEDD",
"BBBBAA98876554455567788999988766555566789ABBBBBBBBAA999AABCCDEEEEEDDCBA99988999AABBBBAA9877655545556778888776655545556789ABBCCCB",
"998887765443322334456677776655433233445678899999988877889AABCCDDCCBBA98777667778899988776544333333455666665544333233345678999999",
"777666543322112223455666655443221112234456677766665555567889AAAAA998765544445556677766554332222223445555554433221112234456777777",
"55555543322111223445666666544322111122344555554443333334556788887765443322233345566655543322112234456666655433221112233445565555",
"55665544332223345567788877655432222223344555444322211222345566665543322111122344556665544332233445677888776544332222334455555544",
"67777665544445567899AAAA9987665443344555666654432221112234455665543321111122345567777766554445567899AAAA998765544444556667766555",
"89999987776677899ABCCCCCBBA9887666667778888776544322223345566666544332222334556789999988776677889ABCCDCCBBA988776677788999988767",
"ABBBBBA9988889AABCDEEEEEDCBBA99888899AAAAAAA98765544445567788887765544444556789AABBBBBA99988899ABCDEEEEEDCBAA9988899AABBBBBAA999",
"BCDDCCBBAA99AAABCDEEEFEEEDCCBAA9999AABBCCCBBAA98766666677889999987766555667789ABCCCCCCBBAA999AABCDDEEEEEDDCBBAA99AAABBCCCCCCBAAA",
"CDDDDDCCBAAAAAABCCDEEEEEEDDCCBBAA99AABBBCCCBBAA9887766677889999998877666677889ABBCCCCCCBBAAAAAABBCDDEEEEDDCCBAAAAAAABBCCCCCCCBBB"
};