/* XPM */
static char * noise_xpm[] = {
"128 128 16 1",
"0 c #000000",
"1 c #111111",
"2 c #222222",
"3 c #333333",
"4 c #444444",
"5 c #555555",
"6 c #666666",
"7 c #777777",
"8 c #888888",
"9 c #999999",
"A c #AAAAAA",
"B c #BBBBBB",
"C c #CCCCCC",
"D c #DDDDDD",
"E c #EEEEEE",
"F c #FFFFFF",
"89ABBBACCEDDCBBA85434454445666568ABBBCDEDA98888666787655677779ABA976776555777767776778899987766555678999998888888887654432235688",
"7889AAABCDEDCBBA864344443456555689ABBBCCCA87888767899867899889BBA87676655679997778887789977676544578999A9A9988889886544221224567",
"577899ABCDDCCBB9764444444456655579AAA9BAA8667877789A9987899999AAA8766776679BA98889888899977666555679AAAAABBA99AAA987653211123445",
"677789ABCDDCBBA976444555556665557888888876555777789AA8778998889997666667789BBA9899987789986556554679AAABBCCBBBBCCBA8764311123445",
"6788889BCDCCBBA976666777777776656888777765445677789998767888777887555676779AB99899987889875434444568AAAACCDCCCDEDCA9875322234455",
"7777789ABBBBAA99877789A9999987677888777765545688889998667888778876445566779AAA9999997889863222222357899ABCCCCDDEDCA9776432345566",
"676767789AA9999877789AAAAA998877899887877555678889AA98788888877775434566789BBB9AABA9888875311111124689899BBBBBCDDB98876443456666",
"666655678888877766789AAA9A9A987899988787655568899AABBA88899887776433456779BCCCBBBCBBA998753112211247787889AAAABBCA98876554577766",
"666555667776666555688999AA998887889876665545689AABBCBA9899987666542235788ABDEDCBCDDBAAA98643333324578876789999ABCA98887656788776",
"77765567776655444567899AAAA98777887655544445689ABBBBBA9888876555431235678ABCDCCBCCDCBAAA9854455444688766789889ABBB9988877789A987",
"998766788765455545689AAABBA9877777665444444579ABBBBBA9888877554432112467889BCBA9ACCCBBBBA8655565556787666788789BBA88888878ABBAA9",
"AA987678875455655689BBBBBBA9877777655554445689ABCCBBAA998887654432112355678999999ABBBAAAA865567665788765677767899876778888ACDCBA",
"AA98767787545566668BCCBBBBA977787665555444579ABBBCCCBAAAAA988764322223456678898889AAA9AA9765667777888865566655677654578889ADDDBA",
"8887656776545666678BCCBBAAA987778765555434579AABCDDCBBBBBBBA987543334556677887778899A99898766889999AA865555544556544467889ACCCA9",
"8886655666544556668ACCBAAAA9867887544433234789AABCDCBABBCBBA998654455677888887767788888988788AABBBBBA975555554455544467889ACCB98",
"7787655666433556668ACCBAAAA987677753233222368899ABBAA99ABBAA998766667888889765556777788889899ACCDCCCB98666665556664456789AABCBA8",
"8887666666433456779BDDCBABBA8778875333322245788889998779AA9889987678999898765444455667788788ABCCDCDCB9887767666666545689AABCDBA9",
"888876666543456778ACDDCCBBAA9888886444544346887777775668999889998788AAA9887643234444566666779ABCCCBBBA877776666665556789ABCCCCB9",
"888765666543456789ACDDCBAABA9899A98666765568897766665557999889A9989ABBAA997654334444445555568ABBBCBBA977666665555445679AABCDDCA8",
"7676655565433567789BBBA999A999AABA98788877789976566554578888999A99ABCDCBA99864445444445544578AABBBBBA875656554454445689AABCCCA98",
"7776655655433456678899877799889ABB9889998889A986655544467877789A99ADEEDCCBA875555555455556689BBBCBCB9765655555554556689ABBBBBA87",
"7778776766533456667787655677788AAA9888999899A986555432356656678999BDEEECCBA97545665556666689BBCCCCBA876666665656665678AABBCBA988",
"89998888876555667677776545566679AA9889AAA9ABBA86543321134554568899ACEEDBAA985546666556777789BCCBBBBA876677666776656678AABBBBAA98",
"9999AAA998767788887877543445567899999ABCCCBCCB964433211355445688889BCDBA98875445676556777679BBBAABA97666777666766556799AABBBA999",
"8899AABAA9889A9A99887653323455779AAAABCDDDCDDC975444333456655678888ACCA977875445766556666668ABBA9999765677756666544678899A999877",
"77889ABBAAAAAAAAA988753222334567899AABCDDDDDDCA76565544577665778899BCCB987776555777656676669ABB999987566777656665445788777887555",
"56788AABBAAABBBAA99753211223455778899ABCCCDCCB98766666667877667999AACCB987876556787656777789BBBA99997656898767776556787666654334",
"57778ABBBAABBBBAA997642112233456666788AABCCBBA98666666577876668999ABCBA987776656788766788889BCB9999876689AA999998777888655543213",
"567889BBCAAACDCBAAA96533333334556566789AABBBA977665555677776668999AAAB9866665567888777888889AAA977787778ACCBAABBA888998655442223",
"567789BBBAABCDDDCBAA8644445445667656799AABAA98765555666777766789899A998765556677888776777767898655666679BCCBCBCBBA999A9755443212",
"4567789AAAABCEEDCBBA965455656678777789AAAAAA976555666788887778888989987655667678998777666656676543456667ABCBBBBCBA9AAB9765543112",
"35565789999BCDDCBAA986555677778988789AA999A987656677889999887888888998766677889AAA99776766566653223444579BBBABBBBBAABBA764432101",
"355556788888ABCA989875456878789988778999989887656788899A9987788888989876678999ABBCBA988877777653222334468ABBAABCCBBBCBA765432102",
"4666567886779AA98877654568888899876688987888765667788999988677778788876667899ABCCCCBAAAAA8877653222333479ABAABCCDCCCCCA965443223",
"78877788876789987777654579988898866678887777665567888899977677766777554545689ABCDDDBBBBBA9887643221234579ABAAACCDCBBCCB976665445",
"89A8778877678A987777766689A998998766798877776545788899AA9877676655554322346689CCDDCCCBBBAA8866431122345689A99AABBBABBCBA87777667",
"9AA9887877778998767786668AAA999A976789887777755579AAAABCB977787544443111235689BCCCCBBBBB998875432222345678888889999ABBB987778778",
"8AA9877887778997666776678ABBA99A98767897657775568BCCCDDDCA98887654443211246779BCCCBBBBBAA9A9865433344556676666777889999876677778",
"9AA9877777767776555666679BCBA99997656776555666579CDDDDDEDB98999755554212356779ABBBAAABBBAAAAA86555555667776666667788888766677778",
"AAB997777665676645566678ABCBA98886544565333555569BDDCCDDDBA89998765543223567779ABA99ABBBABBBA97766677788987666766778776666667899",
"CBB998776656566655567899BCCBA888754445443223445689BCCBCCCB989AA97656532235666789A9889ABBAAABA976788888AAA987777667777766667889AB",
"CCBA887766566776667788ABCCCCBA98765545543223434479ABABBCBA999AA9766554323466667887667999889998767899AABBBA8767765667776667889ABC",
"CCA978765566766666779AABCDDDCBAA876666643232334568ABABABBB999AB98666643346777777765556777678877679AAAABBB9766665556676666789AABC",
"BB98766555556665556889ACDEEDCCBA988777654333444579ABAAAAA999AAA99887776668998777754345655577876689ABAAAAA97555555456765567899ABC",
"BB97666544455433345679ABDDEDCBBAA98787754444444689AA999998889ABA999999789BBA988775434466666788778ABBAAAAA86555655556665567899AAB",
"CB987665443434322346789BDDCBBAA9988877765545555678987677766789AA9A9AAA9AABCBA88876434667667888779ABBBBBBA8755566555666556899AACC",
"DCA87766443444323355679ABBBA99898878898765666566777665555555689A9899AA99BCCBA98876444667666788779ACCCBBBB96556665566766678ABCCDD",
"ECA98876555565434456778AAA9988888899A99887767777777654344434678887889999ABCBA98776434666556787779BCCCBBBA8655566545677668ACCCDDE",
"DCA8888876778654466767899988788889AABBA998998889987655433344567776789999ACCCA97765334565545677778BCDBBAA97534454445676667ABCCDDD",
"CB978898878887655667677898766787889BCBAAAAAA9AABAA98654443445666677899ABBCCCA97664433466555778789BCCBA98865333444445665569ACBBBC",
"BA9778999889986556776678876455666789ABAAABBBBBBCCBA77554334556677889AABBCCDBA8766444456667678999ABCCB9888653345544455544579A99AA",
"A976689A98899876667776677642234545689A999BBBBBCCCB976544333567777899AABCDCCAA8765545567877789999BCDCBA99876555676545555456899889",
"8876679AA99ABA977899877775311233345789989ABBCBBBCA8655443335677778999ABBCBBA8766554567777788889ABCDDCBAA987667887655655567888888",
"7765679AAAABCCBA9ABBA977653101344457999889BBBAABAA764444334577766789999ABB9977654445666666678889ACCCBBAA987788988776766667898877",
"5544569ABABCDDCBABCCB988763222445567999889ACBBAAAA864455445687766789899AABA876554344666555666779ABBBAA98877788999888876668887765",
"33334689AABCDDBBBCCCBA987653234566689A888ABCBAABBA86555555667877689A999BCBA8766544456665555666688AA98777767789AAAA99887767776443",
"211235689AABBBBAABCCB988865334566678898889ABBAAABA8655666667898779AAAABBCBB8766665567877666666678887766666789ABBBAAA987777765332",
"221124678889AA99ABCBB998764323466667888789BBBAAAA97544566667899888AABAABCBA8777877789A9887766666777655566678ACCCCBBBA99887765432",
"22123467788899A9AABCA987764324566667888788AAA99988643456656799877799999AAA887788889ABBB987877666776545555679BCDDDCCBCBA999986543",
"333345778889AA99ABBBA9876543446787789987789A98787754345666778876567887788976678998ABCCB988876656665534445568BCDCCCDCCBBBBBA97644",
"4334567889999A9A9ABBA9776654568898999988789A99877765457787788875456766677776667899ABCCB9888876556643223333579ABBBCCCCCBBBCB97654",
"43456789999999899AA9987766666789AA999988789AA9889876678999898876455665557765457899ACDDBA999986666542101223468AAAABCCBAABBBA87654",
"4445788889887788889887766666688A999988878899A9989888789BBA99A98655776555665445689ABCDEDCAABAA76676410012233689999AAAA999AA976555",
"555679988777767788877766555667889887777677899888887779ABBBBBBA977666654445433469ABBDEFECCBCBA9877753112344468AA988999889AA876666",
"66679AA88787766788887766555678888777765566677767666789ACDCCBBBA86666543333322468ABCCEEEDCBBCBA888864234555679AA8888998899A986667",
"7678AAA98888877789987677656689998887665545565555556689BCDDDCCA98665654322222235799ABDDDBAAABAA998876445676779AA8778998889A987677",
"8778ABBA88898767899877777788ABBBA98876444554444455679ABDDEDDCB986666543232212356889AABAA899AAA988886546677789A986778888899986667",
"7889ABAA8888876678987678999ACDDCBAA975444454434456679BCDDDDDCB988887655433322346788899987899998888765556787889986667876688865567",
"8989ABA976666545677766799AABCEEDCA9876445554334555579BCDDDDDCBBA9999876654333457788888877788998888765568888999976566666677765557",
"9999AAA865444434566656799AABCEECBA9876545554333444467ABCCCCCCBBAAAAA987765455678988898877788888888766789AAA9A9976556665667765678",
"AAA9AAA7544443234655456899ABCDECBA99875555543223333479AABABBBAA99AAA98777665679999999876667888888888789BBBAABA975566666778877789",
"BBBBBBA8654544344555446799AADEEDBAAA976666543222323468999999997789998887767788999988776545677778888889ABBBBAA98755577777899888AB",
"CCCCCCB9755654334554446789ABDEEDCBAAA87677754334444578987888766678888887877789AA98876544455677778888889ABBA9987644567677899889AB",
"DDCDDDB976655443445444578AABCEEDBAABA8879997655666677998776665556898888998889AAA98775443446666778877789AAA99876543456666788878AC",
"DDDDCCB97555543345543357899ABCDBA999A9889AA9777888778998766665557899899A99899ABA98876543556667787778899AAA98765432344455676778AB",
"DDDCCCB8755555444544334678889AB986789888ABBA888998889998755565556999889AA999ABCBA98775545667777888889ABBBAA9865332233445566778AB",
"CCDCCBA9765677655665434566667887655778889ABA9889998789A86445554568888889A999ACDBA888764446777789999ABCDDCBA9875423343445566689AB",
"BCCCBBA9788888888776545567766766444677779AB99889999899986434443357887679A999ACCB9777553345777789AAAACDEECBAA874434444555667788AB",
"ABBCBA999999AAA999976667787777654445677799AA9889ABA99A9854334333568777789A99ABBA8645432135777689AAAABDDDCBAA8754446665556666789A",
"9999A99888AAAAABBA98888889887665434466779AAA99ABBBBAAA986433444457998789AB99ABA975443221346666689A99ACCDBA9997545676655655555779",
"8788876677899AABBBA9999AA9877654333456789AABAAABCCBAA99764345556799A999AABAAAAB9854343323567656788889BCCBAA997655677655555444678",
"76655554467999ABBBA99AAA98876543222456789AAAAAABBBAAA9865444566779ABA99ABBBABBCA865554344667666678889ACCB99998766888766765445577",
"6544443335789AABBBBAA9AA987665321234567899999999AAA998764334566679A999AABBBBCCCB976656444677656688889BCCA999997779AA988887656677",
"654433333579AABBCBBAAAAA987765332335667789998899999988653334455677998889BBBBBCBB876665556787756677788AAB987889889ACCBAAAA9877777",
"644443324689AABBCBBAAAABA987764333567778999989999A9987653223445567887789ABABBBA986656665678875567766688876677788ABDDDCBBBB987888",
"654443334689AAABBBAA9BBBA9987654456678899AAA99ABBAA9876443334456777877789AA99AA9766677778998765656544566544467779BDECBBCBB988887",
"743343323689899ABA999ABBA98776544567889ABBAAAABBBBA997655445566778887778999999988777899A9AAA865565433455423456678BCDCBABBA988898",
"6433332335788889AA9889BA976665333567789AAAA99ABBBAA998765567778998877677788888998779ABBBBCCB987665544454322346677ABCCAAABA988998",
"7533343336899889A99888998655543324688889A99789AA999998766678889888766566666788887889ACCDDDDCB98787765555322345678ABCCBBABBA99999",
"75444444679AA999AA987899764555433578878888766789988899766789989898655555455666666679ABCCDDEDCA99887766543323456789CCCBABBBA99999",
"7654566679BBBA99AA98799987656654568987678865568988889886789AA999987544454444554345789ABCDDDDCB9999876654322345679ABCBBAAABAA8899",
"7655667789ABBA999A9888AAA876777667998877776556789887998778ACBBABAA86455543333332335789ACDEDCAA9998776553323345789AABA98999988888",
"75555777799A9988998889AAA8877877789A997777655578877789888ABDDDCCCBA7656553323322235789ACDDCBA99998766554333456689A99887777777787",
"65455667788998777787889A9877788779ABA98776544466665678888ACFFEDDEDB876765433343334689ABBCCCA989998777765444567789998877677777787",
"6545567778998766666668887777888899BBB98665432345443467778BDEFEEDDCB9777765444543347899ABCBB9999999888877555788889AA8877777788877",
"656677779999876555566678777799A9ABDCB976653212233333456789CDEDCCCCA877787655554445689999AAA988899988998666788899AAA9987888888887",
"77778999AAA98644455556788789AABBCDDDCA87654312344222455579BCCCBBBA98777887555554446888899A876788888888766678999AABA9877888889988",
"8889AAAAABA96544444456778889ACCDDEEECB98775433544333445668ACCBAAAA987799866565544568888889865567876677755678999AAA98766677878898",
"899AABBBAA986433333345777779ABCDDEEEDCA9887655666433455668ABBBAAAA98779997666766568AA9888875456676667766567899999986545566678999",
"899ABBBABA9754433223445556678ABCDDEEDBA9988766775544466778ABCBA99997779A98778887789BBA988775546777677987678998888764334556678999",
"89ABCBBBCA97644332223444344678AACCDCCBA9887777676544567778AAA987777767899988899988ABCA978875457888789A98789AA9877764323556678998",
"99BCDDDCDCB96545332334333355789ABBCCBA88777777776665667788999865566656799988999889ABB98777665579AA99AAA988ABB9878864234556678999",
"89BDEEDEEECA76555444445444567889ABBA88777777888887767777788876444555567898878888889AA96666654579A999AAA999ABBB987764223565557898",
"89BDEEDDDECA766776556775556778899AA98777878899A998888878898866544455667898777888788987655554446799889AAA9ABCCB987753112454446788",
"78ACDDCCCCB976778777788765578878899766778889ABBAA9999999999876555555678999888889998987644443335788889AABABBCCBA87542101344335778",
"668ABBB9AAA8767898788987556777778886655678889BBB999AAA99AAA876655556789AA9999AAAA9A997544322345778899BBBBBCDDBA77543112344345666",
"5578A9988988667899888997656687766776434567689AAA9899AAA9A9987555555679AAAAAABBBABAA98754332334678889ABCBCCDDDCA87654333555545665",
"5578998878886679AA9999987678877667653334566789A99889A99899875434445679AABABBBBBAAAAA8643332335678899AABBCCDDDCA98876556777666665",
"5678997778766679AAAAAAA9988999776664222466679AA99899998877653222345578AAAAABBBAAAAA97643223334678777899AABCDCCAA9988777898866676",
"6678887666655579BBBABCCB999AA9877654324577889BBBA989998777643123445679AAAAAAABAAAAA9754343323456666667799ABCCBA999987799A9877777",
"6667765455544579ABBBBCCBA99AA987666443578999ACCBA99AA99887654223455679AA999ABBBBBBB98664433344565545566778AAA9878777789AAA987887",
"6666654333344569ABAABBCA9889A97666544457899ABCCCA99ABA9888764234455679AA999ABBCBCCCA9766555556676555656677888776667779ABBB999987",
"7666653223344568AAAAAAA987789875455533478999ABCBA9ABBA988876432345567899989ACBBBCCCB987777678888876666656677765666689ABCCCBA9887",
"7777654433345678AAA999A987788865444423467899AABAA99ABB9877763223555578988789AAAAABBB987899999ABA97777655666655556779ABCDDCCBA998",
"8888775444556689BAAAAA99888888654443323589989ABB999BBB987765322356656788655788778AA97678AAAABCCBA8776655566654456778ABDDDCCBAA99",
"899876655455679ABCBBAAAA999998654443335689999AABA99AABA877765345777667775445666667887678ABBABCDC976766544565434456779BCDCCBBAA99",
"888775544455689BBCBBBBAA99998775544445579A999AAA989ABAA998877668898877775334565456776678ABABBCCC986676644455422345668ABCBAAAA998",
"77775433444568ABBBBBBAA99898876555444568899998888889ABBA999A988ABBA9888753345555556766689BBBBDDCB87787655555322345578ABBBA999987",
"66665433345668AABAA9A99778998766554556678887767666789A999AAA99ABBCCBA9976444565545665568ABCCDDEDB99898765555432356778ACCB9999876",
"67775434556678AAA999988878899876666555778766655445677888889999ABCDCBBA986545554444555567ABDCDDEDCA999976566643356789ABCCBA988876",
"788765556666789AA988898889AA9888877677888766544434456666678889ACDDDCBA986544454333444457ABCCCDDCA98888776676645689A9ABCCB9888877",
"88987555676678AA9878888899AAA998999889AAA976554323445555667799BCDEDCBA9865445433334344579ABBABBB97677876667654568999ABBCA9888988",
"889876566667789A8766778778AAA999AAAAACCCBA9765433234555456788ABDEEDCBA9875555554334544579AAA9AA9766677766666554679999ABB98779987",
"77887655677778997555655567899999ABBCCDDEDB9776432344444556789BCDEEDCBAA876667765555556689AAA99988656777656665446788899A987778887",
"78997667888888876432333335788879ABCCCDEDCA98754333454545567889BCDCCBBA988778887766676678ABBAA9A98667787766665555789999A986668887",
"899A9888AAA988886322222224677778ABCBCCDDCA87664334554434556678ABBBBAA9887778887777767789ABBBA999876778876777756799A9999876567888",
"9ABBB9AACCCBA9986422232224677667ABBBBCDECA887654455554334565679ABA9988776777777776667789BBBA998877678888878777789AA9887865456898",
"AABCCBBBCEDCAAA975223443346666679ABBBCDEDB888875556664445655689AA9887766556676666666679AAA99887666668898888888789998776644446789"
};