/* XPM */
static char * sand_xpm[] = {
"128 128 16 1",
"0 c #000000",
"1 c #111111",
"2 c #222222",
"3 c #333333",
"4 c #444444",
"5 c #555555",
"6 c #666666",
"7 c #777777",
"8 c #888888",
"9 c #999999",
"A c #AAAAAA",
"B c #BBBBBB",
"C c #CCCCCC",
"D c #DDDDDD",
"E c #EEEEEE",
"F c #FFFFFF",
"BBB9989898888888666456779889789A9AAABBBBA98A9AABAA999999AAABBBA98788AAA9A99999A9ABBBBBAA889AA998888867689AABA9998AAABB9AA9999899",
"AAAA9888999889878655667889978898A9AABBCB9989ABBBBAABAA9BABBCBCBA9889AAAA9999A989ABBCBAA89998A9988788778799BA9978899A99AA9988787A",
"999987788888888977545878998888999AAAABAAA8989ACBBAAABBBBBBCDDCCBAAAABBBBBA9AAAAAABBBBB8989898998888677779AAA988888A8989997786789",
"A89776777777877776556679998889899A9BABBA89889BBBAAAAABCBBCDDDDCBBBBCCBDCCBBABBABBBCDBA9889999978887767788AA999878899889878755678",
"8987666666667676644456789888889999AABBAA98899AAAABAAABABBCCDDECCABCCDDDCDCCDBBCCCCDCDBA9989A998878767678AAA9988889988A8888675678",
"99875566565556663324457787878889999AAAB99787AAAAA9AAAABABCCCDDCCBBBDDDDDCDDDCDCCDDEECBBA9AAAA988878776789AA998879898989888766778",
"998776556665566543113577776768797999AA9987798AAAAAA9B9AABBCDCCCABBCCDDDDDDDDDDDDDFFEDDBBBBBBA9A9887878799AAA97789999898997767698",
"A98877767765765552303576766677777799999968788AABA89A9AAA9BBCDCAAAABCCCCDDDDCDDDDEEFFECDBBBCBCAAAA9997799AAAA8878798988898876788A",
"9A88887877686865442355677665667677889987657898A99AA9AA9BBACCCBBA9AACCCBCCCCDCCCDDEEEEDCBCBCCBBBAAAA8989ABABA8888889898888877678A",
"A89877888877887863455777786777677778888656668999999A99B9ABCBCBAA99BBCBCBCCCCCBBDDEDECCBBBCBBCCABAAAA89AABCBA98888898889877767799",
"99988778878888976555888987888787888898776557899889999A8AABCCBBBA9ABBCBCCCBCCBBBCCDEDCBBABABBBBBBBA99A9ABCBBA99888988888877666799",
"8888777768878878766769A999889888889A988665768899988999A9ABCCCB9A9ABCBCCCCCCCBBBCCDDDCAAAAAAAAAAAB9A999AABBAAA8889898888877556889",
"98767767767888875667899A999A8A99899AA997767899999999A999BACCBBA99BBBCBCCCCCBBCCCDDDDBBAA9AAB9AAA9A88899BBAA988978878987876656788",
"8877667676768876646678A99A99999A99ABAB98788AAA9AAAAAA99AACBCBBA9A9BBCCCBCDCCCBCCEDECBBBAAAAAAAAA99897899AA9887687768688775557779",
"786766566667677655558998989999989AAABAA98899BBCBBBBBABABBCCDBAAA9BACBCBDCCCCCCCCEEDDCBBBBBBABBBAA997989AA99866766756767754464778",
"7666665646577765544678898978888889AAAA9889AABBCBBBCBBBCBCCDCCBAAAABCBCCCCCBCCCCEDEEECCBBCCBBBBBCBA9989AAAA9786656575556444235688",
"66555555546675654456778887788887898AA978799AACBBCCCBCCCCCDDDCCBABBCCCBCCDCDCBCDDEEDDDBBCBBCCCCBCBCAAAAABBA9878765654555432323576",
"5544355444466664335677878787867787999876778ABAABBCCCBCBCDEDDDCBBBBCDCDDCCDCCCBCEEDEDBBCBCCCCDCDCCBBABBCCCCA988777666665323033557",
"65443324255556543446688877786766788897766689AAAABBBBCABCDDEDCCBBBCCCDDCDDDDCBCCDDFDCBBBCBBCCCDDCCBBBCCCDDCBAA8988766776641224564",
"5454443143446554244568877777776768997766677999ABAABBAAABCDDDCAAACBDBDCDDDDCBCCCDEDECBBBBBCBCCCDDCCBBBCDDDCBBA9998889787654436566",
"664553433355553243457687877777767888976667999AAAABAA9AACBCCCBAAABBBCCCBDDCCBCBDCEEDCCBABBBCBCCDCCBBBBCDDCCBBAA998989988865565878",
"76765645453765442355786778677666789888757899A9AABABA9AAACCCBB99A9ABCBBCCCCBBBBCEDDCCABBBBBBCCCCCCBBABCDCDBB9A9A99898999766678789",
"8777656655767653445777786777666679798867789AABBABCBBBABBCCCBAAA9AABABBCBBABBAABCDDCBBAABBBBCBDCCCBABBCCCCBA999888888999766778998",
"7787676567778666447688878677755678997777899ABBBCCCBCACBCCDCCBAAAABBAABBBBAA9AABBCBBAA9AABAABCCCCBABABCCCCB9A98887877898766578988",
"876677575788786566788888778766667798867788AABBCCDCCBCBCDDDDCBBABBCBBBBCCBB999BABBBAA99999ABBBBCBCAAABBCCBAA998868678877655567887",
"766656546677966657788988887766777889776779ABBBBCDCDBCCDDEEDDDBCBCCDCDCCCCBAA9ABBBBA88999899BBBBCAAAAACCCBA9987887777876563558677",
"665553445576776456789897889767678998777779ABACBCCCCCBCCEEEEDCCCCDCCDDDDDCCBABBCBDBA9999999A9BBBAAA9AABBCAA9989777769877644566766",
"555543233657654545778887887776768897877789AABBCCCCCBBCCDEEDDCCCDCDDEDFEEECCCCCCDCCAA9999A9A9BBBA9999ABBAB99887876787787654576777",
"65554333356654334547676867666556888977678AAABBCCCBBBBCDDDDECCCCCDDDEEDFEDDCCCEDEDCBBBAAAAAABBCABAA89BABBA99878767788978655767886",
"766554434466643234666666755544566777776789AAABBCCDBBACCDDDCCCBCCCDEDEEEEEDCCDCEEDCDBBBBBBBBCCCCBA9AAABBBA97887676788886666677887",
"7766454557665543446665665563334576766466789ABBACCBBBBBCDDDCCBCBCCDCDDDEEDDDCCDDEEDCCBBCBBBCCDDDBBAABBBBBA99887767779987756788977",
"78766646778776544667676666542135576545567789AABBBABABABCDDCBBABCCCDCDEDDDCBCCDDDCDCBBBBBBCCDCDDCBABBCCCBA99997777798987676789888",
"867775657897865677778787766435355766435668888AABAA9A9ABCCCCBBBBBCCCCDDDDCBBACCDCDBBBBBBBACCCDDDCBABCBCCCAAAA88778899988766789988",
"7876665778898766789898888766556677856555787989AA99989AACBBBBAABCBCCDCDDDCBBBCCDDCBAABBA9BACCDCCAABABBCCBA9989888799A997777898889",
"8777556768888767789A898A897666779877766778989999A88888ABBBA9AABBBBCDDDDDBBBCBCCDCBAAA9AAAAABCCAA999ABBB9A998887789AAA89778989988",
"888565568898767778999999988876799A887878998AAAAA9988899ABAA999BABBCCDDDCCBBBCCDCCBBAAA9AAAACBBA98999AA9A897877778999A98778899898",
"8777666679977767879998A998877789AAA99799AAAAACABA98989AAAB999A9BABBCDDDCBBBBCDDCCBBBAABAAABACAA99789999877777656788A887878889988",
"78766656888876677988899988877799AAA99999BABBBBCBB998AAABB99A9AAABBBCDDCDCBACBDDDCCBBBBAAABCDBBB98898A898857655556788876677889888",
"8665646678878766788988988876688A9A9989AAAABBBCBCBA9A9ABBBAA9BAABBACCDDDBBBBBDDDCCBBBBBBBACCCCCAA999A9998786555556688766567878777",
"56654456877775767887988897766789AA989899AAABBCBBAA99ABBCBBAB9BBBBCCDEDCCBABCCCDCCCBBBBBBCBCCDCC99AAAAA88878755666878675656787667",
"56443246687766577779899888667789A9988899AAA9BBCAA8999ABBABBAABBCCCCDCEDCBBBCDDCDCBBCBBBBBCDCDCBBAAABBAB8989776678898767566776766",
"644233446777545678878889876768899A89888999AAAABA98779AAAB9A9AABABCCDEDDDCBCCCDDDCCBCBBABBCCECCBBAAABBBAA998988779AA8977677777776",
"7653234566755455668877988766779AA99989999A9AAA9A8767899999899A9ABBCDDDDBCCCBDDDDCBCBCBCBBCDDDCBAAAABAAAB9A889889AAAB997789888777",
"774535467766555557777888867667A9AA98999A99AABAA887778889987889999BBBDDBBABBCCDDCCCCBBBBBCCDDCBBA9ABABAA9A9A98899ABBBB99999A99988",
"8776556788765657676778876766788AAA9989AAAAAABAAA867788988787878899ABBBBA9AABCCBCBBBBBBBBBDCDCCBA9AABAAAA9A99889ABBCBA9A9AAAAB999",
"987676789897767787778888866668A9AA99A9AAAABBACAA887889998778778889AABAA9979ABBBABBABBAABCCDCCBAAAAAAAB9A99998899ACBBAA9AAAAAAAA9",
"888767899999877888888898876688AAB9A9AAA9ABBBCBBA98888A9A8978888889ABAA987889AA9AA9AA9AA9BBCCCAA99AAAAAA9A997888AABBB99999AAA999A",
"9875769A9999798989999999887879AABA99AAAABABBCBB99989AAAA999899A99AABAA98779999998989898AAABBAA88999AA999A9888899BBBAB99899AA8998",
"867557889A97879898999AA988789AABBAABAABAABACCCAA8889AAAAAA999AAAABBBBAA78899A99988987788AAABA989789A99899989888ABBBA99999A88A998",
"785567789887778889889AA987889ABBBBBAAABBBABCBBBA988AAAAA9AABAA9ABBBCCBA9999AAAA9999897899ABA8887888897998898789ABBAA998999998988",
"86555788887777677888899887789BBBABBBBBBABBCCCBBA9899AABAB99ABAAABCCCCBAA9A9ABAAAAA9989889BAA9877779778988887879ABACAA899AA999989",
"87667689977677767767888777678AABABAABBABABCCBCB99999AABBA9AAAAAABBCDCAA9A9BABBBABA99A99AABBA9976797878798887689ABBAA999999AA98A8",
"88776899987776776677877565568899A999AAAAABBCCBA988AAABAAAB9A99ABABCCBBA99AABBAAABABAA9AACCBAB888889889879877789BABAA999999A99A9A",
"8887899A9A996878776787874446788898999899AABABAA89889BBAAAABAAAA9BCBCBA9989AAAAAAAB9A999BCBCBA9989989A9999897889ABBB999A999999AA9",
"A8879ABAAA999898879879775547778878888878899AA9888789ABA9BAAAB99AABCBAA9798999AAA9AAA99AABCCBA98A9A9A9AAAA98999ABBBBAA999AA99AAB9",
"99789ABBBAB9AAA8999999976575789887788777789A98777879999B9AAA9A99ABBBB98879998999A99898AABBBB999899A9A9ABAA999AACCCABA99AAAAAAAAA",
"99899BBCCBAAABAA9AAAAB97877898998897878787999776557889999999989AABBB9A778989998999887889ABA9988798A999AAAA99A9CCCBCAAAAAAAABAAAA",
"A89ABBCCCBBAABAAAAABBB9978899BA9A9998888789988755677978898998899AAAAA8878799998899887789AA9878787878899999989ABBDCBBAABBAABABBBA",
"999ABCCCDBCBBABBBABBBBA9988ABABAAAAA9A889A9A987656788988798988899AB987778888989998878789AA9876677877798888788AACBCBA9BAABAABBBCB",
"AA9ABCDDCCBCBCAAABBBCAA9989AABBABAAAB9999ABAA97677888999999888889A9A876767888899988877899AA8866687777788877689AABA9AA99A9AAAACAB",
"9AAABDDDCCBCBBBBBBCCBBA9898AABBBAAAAAA99AAABA8878899A9A9A99898999AA98765778877898987789AA9997768687877778766779AA9978997989ABABA",
"999ABCDCCCCBCBCBBBCCCBA988AAAABAAA9A999A9AAAA988889BAAAAABA99889BAA9877667878988988787AAAAA87878878888997767698A9977777878889A99",
"788ABCBCCCBCBBBBBCCCCBB998AABBBA9AA99888A9AA9888799AAAAABAAA999AABA98867787888988886789ABAA9879888989A998778889A9897676777689999",
"8779ABCCBBBBBBABBBCCCCA99A9ABBBAAAA998888AA988778799A9BAAAAAA99ABBBA8778888889899868889A9AA8887899999AAA98879ABAA988877776878888",
"7788ABCBCABBBABAABBCCB99A9AABBBBAA998978899987666898899AA99988AAAAB99777888998999887899ABA8988898999ABAAA9899BBBAA99888777889898",
"789AAABBBBBAAA9AAABCCAA899ABCBAABAA9978899988755677988998A877889AA99777778989999A98888ABAAA89898A89AAABAAA99ABBCBB99999878899A98",
"89AABCBCBBBCAAAAABBBBA9A899BABBAAAA99888999986656687987898776678898666666778899A898979ABBAA9889A999ABBBAA8AABBCBBBA9A998999AABA9",
"A9ABDCDCCCCBBBAABBCCAAA98AAABBBAAA9A88798AA8866677788888877576678776535466767898887789ABAAAA8A89999BBBBB9A9ABCBCBAAAA999999ABBAA",
"ABBCDEDDDCCCCBCABCDBCBA9A9BBAABBAA99888899A9866768898889976755676754432344556777866689AAAA99989999BABBBBA99AABCBBAAAA9898AACBBAA",
"AABDDDDEDDDCCCBCDCCDCBBAABBBCCBBBAA9889899A98776889898A9887656687655322224355656665568899987899899ABBBBAAAA9BBCBBAAA899989ABCBAA",
"9ABCDDDDECDDCBCCCDDDDDBBBBCDCCCBBCA9898AAA998787889999999887658787633224323445655444667888776878899ABCBAA9ABACCBABA9A99898BBBAA9",
"99BCCCDCCCDCCBBCDDEDDBCBCCDCDDCCCBBA9999ABA9887889899AAA9987677887663344344465665244557776656577888AABAA9A9ABCBBBAAA99989AAAABAA",
"9BABCCCCBCBCABBBBDDDCCBBCCCDDCDCDBCAB9ABBBAA98889999A9AA98777788787545354556577645245677656565667789AA99A89ABBCBABA9A98899BBBAA9",
"AABBCCCBBBBAAAAABCCDBBABACCCCCCDDCBB9AABBBAAA88899AAAAAAA88677889765556456667767655557877756565767899998889AABABB9AAA9A89ABBCBA9",
"AABCDCBBCBBAA9AABBBABAA9AACCCCCCBCBAAAABCBBA999A9A9BAAAA98877788886565556577788666557788866656766789AA99788A9ABBAAA9998AAAACBBA9",
"AABDCDCCBBAAA99AABBBA9999ABABBBBBAB999BABBBA999A99AAAABA98787879876544665657897875677897887676778899AAA88899BBBAA9AA99999BBBCBAB",
"ABCCDCCCCBCBAA9AACBB9989AAAAABBAAA88998AAAA98898AAA9AABB9887779887755445566877876656898987787877899ABBA999AABBBAAAA9A999BACCBBBA",
"BBDCCCDCCCBAA9ABBBCBB999AAABAA9BA98878899A888879899A9AA9987678887765556555768777745668887767877889ABBBAA9AABBCBBBAAAAAAAACCCCBBB",
"BDCDDDCDCCCBAABBCCCBB9AAAABBBABAA9868789988867768888A9998866588877555655556877764555667875666687889BCBAAAABBCCCCCCBBABABCCCDCCBB",
"CCDDDDDCCDBBAAACCCCBABBBBBBCBBBBA998778999867577868889977655767776654656566778765446577656555557789AAAA9AAACCCCCCCCBCABBDDDDEDBC",
"DDEDEDDDDCCBABBADDDCBABBBCCCBCCCAA89898A998866777868887873545676764554556677887555556765555545556889999989ABBCCBCBCCCBBCDEEEDDDC",
"DEEFDEDEDDBBCABCDCDCBBBBCCCBDCCCCAA999AAAA98777877887887552456574444554456687866545466755443544456988887889AAABBBBBBACBCDEEFEDDD",
"DEEEEEEEEDCCACBCCEBDCBABCCDCCCCCCBA99ABBBA9888988898988764544576644444464668786655566756554544435678977667999AA9AAAAAABCDDFEEDDD",
"DDFEEEFDEDDCBBCDDDDCBBCCCCBCCDCCBBA99AABBB99899999999A97655465766454455455778776445667666544544566787865687999899AA98AABCDDDDDDD",
"CDDEDEEEDCDCBBDCDDDCCBCCCCDCCCCBCA99A9ABBA9999999989AA98665668766755546656878875545676755565544467788767668889888989899BBDDDCCCC",
"CDCDDDDDCCBBBCBDDDDDBCCCCDCCCCCCB9989AAAB999979899999A987656788876766766687988764566677655555456679987767788988998988899CCCCCBBC",
"CCCCCBCCCCAAABCCDDDCCCCCCDDDCDCCBA9989AB9998888888899988756577878767877788A9998666577777566656566899876778998999A98898ABBCCCBBAA",
"BBCCCCBCBBA9AACBDCCBBCCCCCCCDCDCAA988AAAA9887888688988765546676877777787989AB9876787878686655567789988877999999A9AA98AABCDCCCBBB",
"CCBDBCBCBAA99AACCCBBBBBCCBCBDDCBBA89A9AAA997887786778775323556666667766989AB9A87877898887876666689A8987778999AA9AAA9A9BCDDDCCCBC",
"DCDCCCDCCA9AAABCCCBBBBBBCCBCCCBCA9889BAAA9888777678677633133446544665666799AA88877898A88887876689A9A88788989AAAAAAAAAABBDEEDCBCC",
"DDDDDDDDCBB9ABCCDCCBBABBBBCCCCCAA989AAAB998889777778765412113554334454556799887677889899878787789AAB9878899A9A9AAB9AABBDDEEDDDCC",
"CEDDDEDDDCBBACDECDCCBCCBCBCCCBCBA8989AAAA9889788778887432213333344333535577887655687788788887789AABAA88899AAAAAAAA999ABCDEDDDCCD",
"DCCDEDEDCCBBBDCEEEDDCCDDCDCDCDCBA999AAAA99988887877886643132544343334434567776544657676768866779AAAB999889AAAAAABAA9A9BCDDDCCCCC",
"CCDCDDCCDBBBCCEDEEECDEDDDDDDDDDBA9AAABBAAA9988897888786431255544445443436676654434556665666666788BA99989999A9AABAA9A9ABCDDCCCBCC",
"CCBCCCCDBAAACDDDEDDEDDDDDDEDEDDCBAAABBCBA9A99987898987652445465654455445577865334454645656555667A9A9978889A9AAAAAAAA9ABCCDDCBBBC",
"BBCBBBBBBA9AABDECDCCDDDDDDDEEECCBBBBCCCBCBAAA99889A89864544555655665555667887544455656466645556789988867999999BAAAA89BCCDCCBCBBB",
"BBBBBBCBA9A9ABCCDBCCCBCCCDCDDDCCBBBCCCCDCCABAB99A99AA86535656655656555767887866445676566667556689989777778889A8AAA899ABCDCCBBBBB",
"ABABBCBAA999ABCCBCCABBBBCBCCDCCBA9ABCCCCCBBBBAAAAAAA9976555777765766564778886665567677777777668999A887779779999A99889ABCDCBBABBB",
"BBBABBBB9989ACBCBBABBABAABBBBBAA98AABBCBBBBBBAAAAABBA8876676886676675666798776455667688878877889BAAA8789899899A9A8899ABBCCBBBAAA",
"BABBBBBAA999BBCCCBBABB9AAAABAAA87889ABAB9AABAAA9AABBA977877887887775765687887544576677789887799BABBA9A99999A9AAB99989ABCCBBBAABA",
"AAABBBBAA99ABBCCCBABBBB9AAB9CA9787898AA99A9899899AAB997767888878887865777887654454667687888789AACBBAA9AA9BAAABABBA9A9BCCBCBBABAB",
"AAABBCBB999BBCCCBCBBBBAABAABAA976788A9989898888889A99876668888887887666888785544455667587877779ACBBAAAAABAABCBCBBABABCCDDCCBAABB",
"BACBBCCAA9AACCCCCBBCBAABABABAA88868999998A88876899988765567788878787757789965445545656776767788AABAA999AAABABCCCBBABBCDDDDDBCBBB",
"BCBBCCCBB9ABBCDCCBCBBBAAAABBA9988889AA9A98998887899987465767777787766767888763534565666776666799AAA99899AAABBCBCBBABCDDEDDCDBCCB",
"CBCDDDCBABACCDDDCCBBBBBAAABBAA88889AA9BAAAA89889999986656777776777665667787655344556467777656799A9988888999AAABBBAAABCDEDDCCDCBC",
"CCCCEDCCBBCCDDDCDDCBBBAAABABAA977999ABABAAAA98A9AAA9A77676888787877555678765444435456767776658899A88778887899AAA999ABBCDDBCCCBCB",
"BBCDDDDBBBCCEDDDDCDCBBAABABAA998788AABAA9BAA999AABBB8988888998998877666787755333545566867756788AA997788778798A9988899ACCBCBBABAB",
"ABBCCCBCBBBDDEEDDDCCCBAABABBA8877899AAA9B9A99999ACBAA98899AA9AAA99787778887643354545667775667898A9978778888889A887789BBBAAAA9AAA",
"99ACBBBAABBCDDDECCCCBBAAABBBA978888999AAAA999989BACAA998AAAAAABBB9A8889999886545556766787756789AA88878878888A99987789ABAA9A8A998",
"89AABAA9A9BBCCDCCCCBBABAAABBA987789A998A9A997889AB9A997999ABBBBABBA999AAAA97767666767888867778AA99888879888A9A998878AAAAA9898998",
"999AAAA98A9BCCBBBBCBA9A9ABAAA8877799A9A999988779AA9A88889A9ABBACBBAA8AAABB98877778888998888798AAA89877988889AA998789AAAAAA998988",
"99AABA9999ABBCBBBBAA998A9AAA8887889999999998778899A8867888999ABAAA99A9ABBAA9787889899AAA98898ABA9A98888887A99AA98889AABBA9A99888",
"9ABBBAA9A9ABCBBBBAAA99879A99976778888A9999877789899967777998A8AAA89889AABA98978899AAABBAAA99ABBBAA99899889899A9A8899ABBAA99A9989",
"9ABCCBAA9ABCCCCBCBA9A88999A9877578889899989777788A8877677899899A8977789AA8987788889ABABBB999ABCBCAA9A988899AAAA88899ABAB9A999A99",
"9BBCBCAAABCCDCCCCBBB9999AA9A97677789998898777678989776867888999998876799997767787789ABAA999ABBBCBBAA99999999BAA98899ABA9AAA99899",
"9AABCABAAACCDDDCCCCBB99ABABA88788979998A8877677799877667888899A8987688898886667687899AAA898AABBCBA9A999A99ABABA9898ABAAA99A88988",
"8ABAAA99ABBCCCDCCBCBBABABCCBA98999B99AA9997777798988676888899A9A987879999876756777889AA99788AABAA9AA99999AABBAAA989AABAA99799878",
"899BA9899ABBBCCCCCBBABABBCCBAAA9ABBABABBA9977798988876778899999A9877899A987768677879999988889AAA9988889888AABAA8999AB9AA98988877",
"88A9A98799ABBAABBBAA9AABBCBBBA9AABBCBCBBBB99889AA99878888899A9A99888899AA98787888899AB9888799AAA89877877799AAA9978AAAAB999888688",
"99999888889AAAAAA999989ABBBAA9AABBBBCCCCBBA98AAAAB9978898999AAAA988889AAA8988898999ABABA9898AA99A888777778999A977889AA9989986776",
"79997978899AA9AA99887779AAA9989ABABBCCCBCBA9AABBBBB99999AA9AABBB988899AA9989888A9ABBBBBAA98ABABA989888768899A88777899A9888777667",
"7999877788A8899988776788899988899BABBBBCBAA99ABBCBAAA9AAAABABBBAA89899AA999989989AACCCBC9AABACBAA989988889AAA9878888998887866665",
"7798877678899898888566789989788899AAAABBAA8999ACAAA99A9AAAACCBBBAA989BBAA99899A99ABBBCBAAAABCBCCAAAA9A9999ABBA88789A998888666657",
"7978775768888987876656788997878898A9AAAA999788AABA9999AB9AABBDBBA98AAAABAA999A99AAABCCBA99BBBCBBBAAAA8AAAACBBBA999AAA99988776657",
"889876667768888877655668999877898A999BAA987788A999A88899A9ABCBCBA999ABABBA9AA99AAABCCCBA9A9BBBBBAAAA9A99BCCCCBBAAABABAA998987667",
"99A986677787777785556578898888799A9AAAAA997779999978878989AAABBA988AAABBA9A9A999ABBCCBBAA9AABBB99A8A999AACCCBCAABBBBBBBBAA988788",
"9AAA7867787876887654466898888798AAAABBAAA97789AA99888987899AAAAA89989BBBA99A9AAAABCCCBB9A9AAA9AAA9989888ABBCCBAAABBBCCBBBAA98899",
"BBAA9888889878776746347888978989999BBBBAA99899AABA88989999A9ABA887889AAA9A999A9AAACCCBAA899BAA99988887899ABBBA99AABBBABABBA8999A"
};