/* XPM */
static char * scales_xpm[] = {
"128 128 16 1",
"0 c #000000",
"1 c #111111",
"2 c #222222",
"3 c #333333",
"4 c #444444",
"5 c #555555",
"6 c #666666",
"7 c #777777",
"8 c #888888",
"9 c #999999",
"A c #AAAAAA",
"B c #BBBBBB",
"C c #CCCCCC",
"D c #DDDDDD",
"E c #EEEEEE",
"F c #FFFFFF",
"22111344310001111145432222222235542111111112454100111112456522222111134431100011014553222222223454211111111245310111111245642222",
"22113687521101101368752222222257874111111125786301111123688742222221368752100111146875222222225787411111112578631111111368874222",
"221158BA74110010159BA7422222236ABA6211111137AB95111111148BB95222221158BA74111111159BA74222222369B96211111137AB95111111148BB95222",
"11116AED9511101026AEC8422222247BEB7311111148CEA6211111159DEA621111126AED9511000026AEC8422222237BFB7311111148BEA6211111159DEA6221",
"111159DC84110001159DB8422222237ADB7311111137BCA6211111159CC95111111159CC84111111259CB8422222237ADB7311111137BCA6211111159CC95111",
"112147A963111111147996312211226898521111113689751111111479974111111148A973111111147996322211226898521111112689741111221479974111",
"11112566421111111256641122111135653111111113565311122222466421111111256641111111125664111211113565311111111356521112221246642111",
"11111233211111111123311111111112321211111111232112212111133111111111123321121111112321111111111232111111111123211112221113311111",
"11111112211121111111111111111111111211111111111111112211111111111111112222111111111111111111111111222111111111112211121111111111",
"11111112211121112221111111111111111211111111111111211111111111111111111211122211221111111111111111111111111111111211111111110111",
"11111111111122222221111101111111111111112111111111111211111111111111111112112222222111111011111111122112211111111211111111110011",
"11111111112222222221111101100011111222222211111112221111111111111111111111122222222111110001011111112212221111111221111111111111",
"11111111222222222221111100000011111222212211122222211111101111111111111112222222222111110000000111122212222122222221111111111111",
"11111111122222222222111100000011111111112222222211111111111111111111111112222222222211110000001111111211222222222221111111111111",
"11111111112222222222111100001001111111122222222221111111101111111111111111222222222211110001111111111111222222221111111111111111",
"11111111112222222222111110011101111111222222222221111111100111111111111111222222222111111101101011111222222222222111111100001111",
"54211111122356522111111134431100111114554222222222454210000111245421111112235652221111113443111011111455422222222245420000011124",
"87411121122688742112111257753111111136886322222224787410111111478741111112368974111111125776311111113688632222222478741011111147",
"BA6211121248BC96211111147AB85111111148BB85222222269BA63111111269B96311222147BB96211111147AA84111111148BB85222222269BA63111111269",
"EB7311221248CEB7311111149DD95111111159DD9522222237AEC8311111137BEB7311111148CFB7311111148DD95211111159DD9522222236AEC8311111137B",
"CA7311121248CDA6211111148CC95111111159CC9522221226ACB7311111137ACA7311122248CDA6211111148CC95111111159CC9522222236ADB8311111137A",
"9852111222369A841111111379974111111147997311221125899621111112589852111222369A85111111137997411111114799731222212589862111111258",
"65311112222466521111111146652111111124664111111113566411111111356531111222246652111111114665211111112466421111111356541111111135",
"32111112211133211111111113321121111111332111111111233222122111123211111222113321111111111332111211111233111111111123312111111112",
"11111111111111111111111111222111111111111111111111111222111111111111111111111111111111111122221211111111111111111111122222211111",
"11111111111111111111111111222111111111111111011111111222222221111111111111111111111111122222111111112111111011111111222222221111",
"11111111111111111111112221111111121222111111011111111222222221111111111111111111111111222111111221212111111011111111112222222211",
"11111111111001111111211211112112222111111111011111111122222222111111111111111111111111222112211122211111111000010111112222222111",
"22111111101001111111111221122212121111111111000000111222222222111111111101100011111211222111222122211211111000000111112222222221",
"22211111000000111111121222222211122121111110000011112222222222222221111100000111111121222222221122111111111000010111122222222222",
"22211111000000111112222222211211122111111110000111111111222222222221111100100001111122222211111112221211100000011111111222222222",
"22211111000000011112222222211211222111111110001111111111222222222221111100000001111222222211122222221111101101111111111122222222",
"22221354200000011245532122212235553111111112443111111111355422222222135420000001124553122222223554211111111244311111111145542222",
"22223687520000111478852122222257875111111115786411111113688642222222368752000001147886221222225787511111111578641111111368864222",
"222258BA73001011159BA7422222137ACA6311111036AB95211111148BB95222222258BA73011111259BA7422222237ABA6311111137AB95211111148BB95222",
"222269DC8411111126AEC8411222248CFB7311111037CEA6311111158DEA6222221269DC9411111126AEC8422222238CFB7311111137CEA6311111149DEA6222",
"211159CC8411111126ACB8411222237BDB7311111137BDA6211111148CC95122111259CB8411111126ACB8411122237BDB7311011137BDA6211111148CC95222",
"11114799631111111589863111122269A852111111269A85111111136997411111114799631111111589862111222269A8521111112699851111111379974111",
"21112566411112111256531111222246653111111114665311111112466521111111256641111111125653111122223665311111111366531121111146652111",
"11111233222222111123211111112112321111111111232111211111123211111111123312222221112321111112221332111111111133211111111113321111",
"11111111222222211111111111111111111111111111122111111111111111111111111112222221111111111111111111111111111111221111111111111111",
"11111111222222221111111111111111111111111222112111111111111111111111111112222222111111111111111111111111112222221111111111111111",
"11111111222222222111110111111111111111212222212111111111111111111111111112222222111111111111111111111122222221111111111111111110",
"11111111122222222111111111111111111111222222211111111111111111111111111122222222211111111111111011111222222211111111111111111111",
"01111112222222222111111111100000111112222222212211111111111111111111111222222222211111111111011011111222222222111111111111111111",
"01111122222222222211111111000011111111222222222211111111111111100011112222222212221111111100000001111222222222111111111111111111",
"01111122222222222211111111100000011111222222221111111111111100101111112222222222222111111110001001111122222222211111111111111111",
"11111122222222222211111111100000001112222222221111111111111101111111111222222222221111111110000000111122222222111111111111100011",
"54211112222355421211111134430000001114554222222112454211011100245421111222235542112112113443000001111455422222222245431100100124",
"87412222222588741212122357752000111147886322222224787521010101478742222222258874112111135775200111113688632222222478752111110147",
"B96322222237AB96222211147AA84011111158BB85222222269BA73111111269B96322222247AB96212112147AB84001111158BB85222222269BA73110110259",
"EB7322121248CEA6212111159CD9511111116AED9522221137BEC8411000026BEB7422212148CEB6322211158CD9511111116ADD9522222137BEC8411001026B",
"DB7322111147BDA6211111148BC95111111159CC8511122236ADB8411000126ADB7321111248BDA6211111148BC95111111159CC8511112226ADB8411001026A",
"A85212111136998511111113699741111111479963111122258A962111111158985222211236998511111113799741111111479963111122258A962111011258",
"65311221111456531111111146642111121125654111112223576411111111356631111111145653111111114564211122212566411111221356641111111135",
"33111111111123211111111113321222221112321111111111233111111111123211111111113321111111111332122222111232111111111123311111111112",
"11111111111111111111111111112222122111111111111111122211111111111121111111111111111111111111222222211111111111111111211111111111",
"11111111111111111111111111112222222111111001111111111111111112221111111111111111111111111212122222211111101111111111211112111221",
"11111111111111111111111111112222222111111111111111111111222222211111111111111111111111111111122222221111101111111111111112222222",
"11111111111111111111111111211222222111111101111111111111222222222111111111111111111111111112222222211111101111111111111222222222",
"21111111100111111111111111222222211111111111111111111121222222222111110111111111111111111222222221111111111111011111111222222222",
"21111000010111111111111122222222111111111111110001111122222222222111110010011111111111111222222221111111111111101111111122222222",
"21111101111111111111112222222222211111111111111111111111122222222111110011111111111111222222222211111111111111101111111222222222",
"21111111110011111111112222222222211111111111111101111112222222222111111111100110111112222222222211111111111111111111111122222222",
"21111344311000111145532222222234542111111112453101111112456422222211134431000111114543222222223554211111111245411011111245652222",
"22113687521001111368752222222257874111111125786301111113689742222211368752110111136875222222225787411111112578630111111368874222",
"211158BA74111111159BA7422222236AB96211111137AB95111111158BB95222221158BA74110011159BA7422222236AB96211111137AB95111111148BB95222",
"11126AED9511000116AEC8422222237BFB7311111148BEA6211111159DEA621112115AED9511101026AEC8422222247BFB7311111148BEA6211111159DEA6211",
"111159CC84111001259CB8422222237ADB7311111147BCA6211111159CC95211111159DC84111000259DB8422221237ADA7311111137BC96211111159CC95111",
"111148A973111111147996312221226898521111112689741111221479974111112147A963111111147996312222226898521111113689751111212479974111",
"11122566411111111256641111111135653111111114565211122212466421111111256641111111125664112211113565311111111356521111222246642111",
"11111233211211111123311111111112321111111111232111122211133111111111123321111111112331111111111232221111111123211111221113311111",
"11111122211111111111111111111111112221111111111122111111111111111111111221112111111111111111111111121111111111111111121111111111",
"11111111211121212211111111111111111111111111111111111121111111111111111221111111121111111111111111221111111111111111121111111111",
"11111111111222222221111110110111111121122111111112211111111101111111111111112222222111110011111111121111211111111111111111111011",
"11111111121222222221111100010111111122122211111112211111111111111111111122222222222111110011001111122222221111112221111110111111",
"11111111122222222221111110000011111122222221222212211111111111111111111121222222222111110000001111122221221122222221111110111111",
"11111111122122222222111100000011111112112222222222111111111111111111111122222222222211110000000111111111222222222111111111111111",
"11111111112222222222111100000111111111122222222211111111111111111111111111222222222211110000001111111121222222222111111110011111",
"11111111112222222221111111011100111112222222222221111111000011111111111111222222222111111000111111111112222222222111111110011111",
"54211111112356522211111134431111111114554222222222454200000111245421111112235652211111113443110011111455322222222245420000011124",
"87411111123689751111111257763110111136886322222224787511111111478741111112268874211111125775311111113688632222222478741011111147",
"B96311222147AC96211111147AB84111111148BB84222222269BA72111111269BA6211221248BC96211111147AB84111111148BB85222222269BA63111111269",
"EB7311111148CFB7311111148DD96211111159DD9522222236AEC8311111137BEB7311221248CEB7311111149DD95211111159DD9522222237AEC8411111137B",
"CA7311122248CDA6211111148CC95111111159CC9512222236ADB7311111137ACA7311121148CDA6211111148CC95111111159CC9522222226ACB7311111137A",
"9852111222369A841111111379974111111147997312222125898621111112589852111222379A84111111137997411111114799731121122589962111111258",
"65311122222466521111111146652111111124664111211113566411111111356531111222146652111111114665211111112466411112111356641111111135",
"32111111221133211111111113321112111112331111111111233121111111123211111121113321111111111332112111111233211111111123312211211112",
"11111111111111111111111111222111111111111111111111111222222211111111111111111111111111111122111111111111111111111111122211211111",
"11111111111111111111112221221111111122111110011111111222221211111111111111111111111111121222211111111111111111111111122222222111",
"11111111111111111111112121121111222111111110011111111122222221111111111111111111111111121112111122112111111000101111122222222111",
"11111111111111111111112221121212221112111110000001111122222221111111111111110111111111121111211222212111111100101111112222222211",
"21111111111000111112212221122211222111111110000001112122222222212211111111000111111111122122221122111111111100000011122222222211",
"22211111000000111111111222122211111112111110000001111122222222222211111100010011111122222221221112212211111000001111112222222222",
"22211111000000011111222222111111122211111010000111111112222222222221111100000011111122222221221112211111110000111111111122222222",
"22211111000000011112222222111222222211111011011111111111222222222221111100000001111222222221121212211111111110111111111122222222",
"22221344200000011245532222222235552111111112443111111111355422222222135420000001124553212222223555311111111244311111111135542222",
"22223687510000011478852222222258875111111115786311111113688642222222368752000011147885212222225787511111111577631111111368864222",
"222258BA73001111259BA7422222237ABA6311111137AB95211111148BB95222222258BA73001111159BA7412222237ACA7311111036AB95211111147BB95222",
"211269DC9411111126AEC8422222238CFB7311111137CEA6311111149DEA6222222269DC8411111126AEC8412222248CFB7311111037CEA6211111158DEA6222",
"111259CB8411111126ACB8411122237BDB7311001137BDA6211111148CC95222111259CC8411111126ACB8411122237BDB7311011137BDA6211111148CC95122",
"11114799631111111589862111222269A851111111269985111111137997411111114799631111111589862111122269A852111111269A851111111369974112",
"11112566421111111256531111222236653111111113665312111111466521112111246641111211125653111112224665311111111366531111111246652111",
"11111233122222211123211111121113321111111111332111111111133211111111123322222211112321111111111332111111111123211121111112321111",
"11111111222221211111111111111111111111111111112211111111111111111111111122221222111111111111111111111111111112221111111111111111",
"11111111122222221111111111111111111111111122222111111111111111111111111122222222111111111111111111111111122212211111111111111111",
"11111111122222222111111111111111111111222222211111111111111111111111111112222222211111111111111111111111122211111111111111111111",
"11111112222222221111111111111110111112222222211111111111111111111111111122222222211111111111111111111122222221111111111111111111",
"11111112222222222111111111100110111112222222221211111111111111110111112222222222211111111110010001111222222221211111111111111111",
"01111122222222222111211111000000111112222222221111111111111111110111112222222222221111111100000111111122222222211111111111111110",
"11111122212222222221111111000010011111222222221111111111111111110111112222222222221111111110000000111122222222111111111111110110",
"11111112212222222211111111110000001111222222221111111111111000111111111222122222221111111110000000111222222222111111111111110011",
"54211122222355421211121134430000011124554222222122454311101001245421111222235542221111113443000000111455422222121245421111110024",
"87411122222588741121121357752001111136886322222224787521111101478741222222258874111122235775200011113788632222222478752100111047",
"B96322222247AB96212211147AB84001111158BB85222222269BA73110010269B96322222247AB96222211147AA84011111159BB85222222269BA73111111269",
"EB7422212148CEB6312111158CD9511111116ADD9522222237BEC8411001026BEB7322222148CEB7211111158CD9511111115AED9521222137BEC8411000026B",
"DB7322111148BDA6211111148BC95111111159CC8511112126ADB7411000026ADA7322111148BDA6211111158BC95111111159CC8511122236ADB7311000126A",
"985211211236998511111113799741111111479963111122258A962110011158A85212111136998511111113699741111111479963111122258A962111111158",
"65311121111466531111111146642111221125654111112213566311111111356531122111145653111111114664211122112565411111122357641111111135",
"32111111111123211111111113321211222112321111111111233111111111123311111111112321111111111232222222111132111111111123311111111112",
"11111111111111111111111111112222222111111111111111112111111111111111111111111111111111111111222212111111111111111112211111111111",
"11111111111111111111111111112221222111111111111111112111111122211111111111111111111111111111222222211111111111111111111111112222",
"11111111111111111111111111111222222211111001111111111111122222221111111111111111111111111111222222211111101111111111111122222222",
"11111111111111111111111111122222222211111111111111111111222222221111111111111111111111111121222222211111111111111111111122222222",
"21111111101111111111111112222222211111111111110011111112222222222111111100011111111111111122222221111111111111111111111122222222",
"21111100101111111111111112222222111111111111111011111112222222222111100001111111111111112222222211111111111111000111112222222222",
"21111100111111111111112222222222111111111111111011111112222222222111111111111111111111222222222221111111111111111111111122222222",
"21111111111001001111122222222222111111111111111111111112222222222111111111101111111111222222222221111111111111111110111222222222"
};