/* XPM */
static char * scratches_xpm[] = {
"128 128 16 1",
"0 c #000000",
"1 c #111111",
"2 c #222222",
"3 c #333333",
"4 c #444444",
"5 c #555555",
"6 c #666666",
"7 c #777777",
"8 c #888888",
"9 c #999999",
"A c #AAAAAA",
"B c #BBBBBB",
"C c #CCCCCC",
"D c #DDDDDD",
"E c #EEEEEE",
"F c #FFFFFF",
"79BCDDDDDDDDEDDDECBA986432112122221111123469ABCDDDDDDEDDDDDDDBA976432111122221111123578ABCDDEDEEEDDDDDCCBA8763211111122111112245",
"BA8654422112222334679BCDDDDCCBBBBBBBCCDDDDCC9764322222222234578ABCDDDDDCBBBBBBCCCDDDDCA9754322222222234579ACDDDDCCBBBBBBBCCDDDDC",
"123356889AAAA99876432111233567788987654322122345679AAAAA99876432211234667888877654321122356789AAABA98765422111234567888776544321",
"DDDCCBA99888899ABCDEEDCB9765433333345678ABCDDDDCAA9988999ABCEDEEDCA9754433333345679ACDDEDCCBA998889AABCDEDDDBA8654333333345699BC",
"5421001112232321112345689ABDCDDDDDDDDDCBA865321001222222222212345789ABCDDDDEDEDDCCB986431111122222222222234678ABCCDDDDDDDDDDBA97",
"678ABCCCDDDDDEDDDCBA86532100112222221112445689ABCDDDDDDDDEDDCB986421111111222311122345789BBCDDDDDDDDDDDCB97532100112222222122234",
"CB99654332222334578ABCDDDCCBA9A9999ABCDDFEDCB97654332222345679BCCDDECCBA999999ABCDEEEDBA9754333223334568ABCDDDCCBAA99999AABDDEED",
"111234567888887665321111245678A9999987653211112356788988886543211123457899AA998876432111234567988888765432111234678999A999765432",
"BCDDDCBBBABAABBCDEEEECA8755332221223345789BCCCDDCBBAAAAABDDDEEEDCA865432223222344679BBCDDDDCCBAAAAABCDDEEDDB9865332212222455679A",
"643211111122211122235679ABCDDDDDDDDEEEDDB98642121111111222222345689BCDDDDDEDDEEEDDCB9754211111122212222234578ABDDDDDDDDDEEEEDCA8",
"45689BCCDDEDDDDDCB98642111112233343323211234578ABCCDDDDDDDCCB97542111112234333322211235689ABCCDDDDDDDDBA875321011223333333222222",
"ECB987654433445678ABCCDDDCBB987777899ABCDDDCCA986554444455789ABCEDDCBA998777789ABCDDDDCBA987544444456789BCCDDDCBA987777789ABCDDD",
"1111234567666665442111234779AAABBBBAA9864421112234566677665432111235689AACBBBBA99864321113355666666654321212345789AABBCBBB987542",
"ACDDDDDCCBBBBCCDDEDDCA976433211111112334679ACDDDDDCCBBBCCDDDDDCBA87643221111111234568ABCDEEDDCCBBBCCDDEEDCB996543211111122234578",
"8754322211111111123468ABCDEEDDDDCCDDDDDDCB98753222111111111223578ACDDEEEDCCCDDDDDDCBA97654221111112111234579BCDEEDDDDCCDDDDDDCBA",
"34579ABCCCCCCCBA98754322223334455554321111135689ABCCCCCCBBA9875422222334445544332101123579ABBCCCCCDBBA97643222223345555443221211",
"EDDCBA877655556789ACCDDDECA987655556779ACCDDEDCB9877655576789CCDDDDCBA977655556789ACDDDDECA987655556789ACCDDDDCB987755567678ACCD",
"32222334555554421100123579ABCCDDCCCBA98754322223344555544321000124679ABCCCDCCBCA9865432222334555554332100113568ABCCDCCCCCBA97654",
"8ACDFEEEDDDDDDDCCCBBA98654322221111000123679BCDEEEEDDDCDDDCCCBA98764432111111110012468ACDDEEEEDDDDCCDCCCBB9865432221111111111346",
"A976543221111111234579BDEEEEDDCDCCCCCCCCCCBA86543222211111123468ABDEFEDDCCCBBCCCCCCCBA986543222321111123579BCDEEEDDCCCCCCCCCCCCB",
"1245789BBBCCBAA98653221223345678776543220112346789ABBCCCA99764321112344667776654321002245689ABBCBBBA9866432112234566777765422111",
"DEDDCBA988887889ABCDDEDCB987654444455678ABCDDDCBB9987788889ABCDDDCBA976554444445689ACEDDDCBA9887778899ABCDDDCBA88654444455678ABC",
"43211122334533221112235789ACCDDDEDDDCBB98653211122233443322111134579ABBCDDDEDDCCBA97643211112333333321211234679ACCCDDDDDDDCBA875",
"79ABCDDDDDDDDEEDDCCB9764311111122211112234679ABCDDDDDDDDDDDDCBA8763211111112211111235689BCCDDDDDDDDDDDDCBA8643211111222111112345",
"CB875442222122334679ABDDDDDCCAAAAABBCCEEEDDBA864332222332345689BCDDDCCCBAAAAAABCDDEEDCB976433222222234668ABCDDDCCBBBAABBBBCDEEED",
"22234568999999887653221123456788888876543211223567899AAA987654321112345678888876544321123456789999988765322112234578889987654322",
"DDDDCBAAA9999AABCDFEEDCA87643332223345789BCDDEDCBAA99999ABBCDEEDDBA8654332222334579ABCDDDCCBAA99999ABCDDEEDCAA7644322223345679AC",
"5421101121222221222345789BCCDDDDDDDEDDDCA97532111112222222122234678ABCCDEDDDDDDDDCBA86432100112222221112335679ABCDDDDDDDDDDDCB97",
"5689ACCDDDDDDDDDDCB9764212111222332322222345789BCCDDDEDDDDDDCA975321111122222222122235679BBCCDDDDDDEDDCBA86431001112232222222244",
"CBA8755433333345689ACCDDDDBBA998899ABCCDDEDCB98654434333445789BCDDDCCBA9998889ABCDEEDDCA9865433333345678ABCDDDCBBA9998899ABCDEED",
"111124567788877754321112346789AAAAA99875422111234567888887654221112356789AAAAA99865321111245677888776543211112457899BAAAA9876432",
"BCCDDDCBBBBBBBCDDEEDDBA8654322212222345679BBCDDDCCCBAABBCCDEEEDCB98654222111222345689BCCDDDCCBBBAABCCDEEEDCA87543222111223346789",
"75322211111111222234668ABCDDDDDDEDDEFEDDCA864321111121111223234578ABDEDDDDDDDDEEEDCBA864321111112111212234679ABCDDDDEDDDEEEEDCA9",
"34679ABCCDDCDDDCBA97533111122334444332211223578ABCCCDDDDDDCCA87532111123334443332211235679ABCCCCDDDDCCA9764311111233344433232112",
"DCBA98665444555689ABCDEDCCBA877666789ABCDDDDCBA98754444456789BCDDDDCBA9877667789ABCDDDECBA87654444556789BCDDDDCBA9876667789ABCDD",
"2112234455667554321112345789ABBBBBBBA987532111234455666655432111235679AABBBBCBBA976532112234555666554322111235689ABBBBBBBAA87543",
"9BDEEEDDCCBCCCCDDDCDBA976532221111121124568ACDEEEDDDCCCCCDDDDDCBA886432111111111234679BCDEEEDDCCCCCDCDDECCA976543222111111223468",
"9765432211111111123468ACDEEEDECCCCCCCDDCCBA9765332211111211234579BCDEEEDDCCCCCDDDDCCB9875433221111111113468ABDDEEEDDCCCCDCDDCCBA",
"245789BBCCCCCBAA87653222233445555554321000124689ABCCCCCCCA98754322122345565555432111123568ABBCCCCCBBA976532222333455665553211001",
"DEDCBA987766667789BCDDDDCBA8765555556789ACDDDDDBA98766666789ABCDDDDCB9876655555678ABCDEDDCBA88766667789ABCDDDCCA9866555556679ABC",
"32222233455544321010124679ABCDDDDDDBCA976532222233544554332100023478ABBCDEDDDCBA9885432222233455545331100123578ABCDDDDDCCBA98654",
"89BCDEEEDDDDDDDDCCCB987543321112211100113568ACDDEEEEDDDDDDDCCBAA76543222111211111123579BCDEEEEEDDDDDDCCCBA9764322222211111011346",
"B97653322221112234568ACDDDEDCCCBBBBCCCCDDCBA97543222232212234579ACDDDDDCCCBBBBCCEDDDCBA8755322222222223468ABCDEDDDCCCCBCCCCCDDCC",
"12346789ABBBBA9886532211123456777776543211122456899ABBBBA987543211122356678877655321112345789AABBBAA9865432211234567788775432111",
"DEDDCBA98888889ABDDDEDDBA875444335445679ABCEDDCCBA98888899ABCDDDDDB9866443443445689BCDDDDCBAA9888A89ABBCDEDDBA9766443344456789BC",
"4321111122333322111234678ABBCDDDDEDDCCBA9764211111223333222122234679ABCCDDDDDDDDCBA9754211011223343221112345689ABCDDDDDDDDDCC986",
"689ABCDDDDDDDDDDDDCA97542110111122211112345789BCCCEDDDDDDDDDDBA864311101112212111223467AABCCDDDDDDDDDDCCB98643110121222211113345",
"CB975433222223345689BCCDDDCBBA9999AABCDEEEDCA87543322222334578ABCDDDCCBAAA999BBBCDEEEDBA86543222222344679ABDDDDCCBBAAAAAABCDDEED",
"21233567889999877543211123467889A988775442111234667899998876532221233567889999877543221123567889A9887665421112346678999988765432",
"CDDECCBAA999AABCCDEEECBA86543232222335679ABCDDDCCBAA999AABCDDEEDCA986433222223345689BCDDDDCBBAB999AABCDEEEDCA87543322222334578AB",
"642111111122222222235579ABCCDDEDDDDDEDDCB97542100111222112222234679ABCDDDDDDDDEEDDCA97532110112222211122345789ACCDDDDDDDEEDDDBA8",
"4578ABCCDDDDDDDDCCA9753211111223333322212234689BBCDDDDDDDDDCBA864210001222333222222244568ABCCDDDDDDDDDCA975421111122333332222223",
"DCA986544343445678ABCCDDCCBA99897889ACCDDDDCBA896543333445678ABDCDDCBAA98898889BBCDEEDCB9875543433445789ABCDDDCDAA9888899ABCDDDE",
"20122345677777665432111235689AABBAAA9976431111134566777776543211223457899ABBBAA98754211112345677777666432111235679AAAABBAA986532",
"BBCDDDCCBBBBBCCDEEEDCB98653321111122234578ABCCDDDCCBBBCBCDDDEEDBB97543211111122334678ABCDDDDCBBBBBBCDDEEDDBA87543221112122345689",
"76432111111111122334679ACDDDDDDCDDDDDEDDCA975432111111211112234689BCDDDDDDDCDDEEEEDBA86542211111111111224568ABCDDDDDDDEDDDEEDCB9",
"34679ABDCCDDCCDBBA86532112223344444332211123679ABBCCCCCDCCBA976432111224444444432211124578ABCCDCCCCCCBA8753231222333444443221122",
"DDDCA9875555556789ACDDEDDCA98766667789ABCDDDDCBA9765545556789ACDDDDCBA98766666789ABCDDDDCA9876554465679ABCDDDDCBA87666667789ACCD",
"222223445555554321111235789ABBCCCCCBA98754321223345555554432110123578AABCCCCCBBA97643321223345555564321111134679ABBCCCCBBBA87643",
"9BCDEEEDDDCCCCDDDCCCA9876433211111111112468ACDEEEEEEDCCCCCDDCCBA9765432211111111123468ACEEEEDDDCCCCCCCCCCBA976543222111111112357",
"A875433222111221124579BCDEEEEECCCCCCCCCCCCA9875432222111111125689BDEEEEDDCCCCDDCCCCCBA876543221111111123478ACEEEEDDECCCCCCCCCDBB",
"234689ABCCCCCBA987543221223456666655422101124578ABBCCCCBBA976432222233456666654321101124679ABBCCCBBA9875442112234556666654321001",
"DDDDDB98877777789ABCDDDCBA97665644555679ABDDEDCCB98877777899ABCDDDCBA87655555556689BCDDDDCBA9878777789ABCDDDCCB987655444557789BC",
"32111223444443321101144689ABCDDDDDDCBA987543211223344444322111123568ABCCDDDDDDCBA986542211123344443321001124579ABCDDDDDDCCCA9764",
"79ACCDDEDDDEEDDDDCCB986432212111221111123468ABCDEDDEEDDDDDDDDBA975432111122221111123578ABCDDEDDDDDDDDDCCBA8764212111222111112245",
"BA8653322223222345689BCDDDDCCBBBBBBBCDEDDDCB9765322222222234568ABCDDDDCCBBBCBBCCDDEDDCA9754322222122235578ACDDDDCCBBBBBBBCCCDDDC",
"133456789AAAAA9876532211223477788877655322112345789AAAAAA9875432121234567888887654321122346799AAAAA98775422111234567888876543221",
"DDDDCBA9988889ABBCDEEDCB9765533333334578ACDDDDCCBA9988899ABCDDEEDCA9754433333445679ACDDDDCBAA9988899ABCDEEDDB98654333324345689BC",
"5321001122232222113335689ABDCCDDDDDDDDCBA865331001122233222222345689ABCDDDDEDDDDDCB986421111112222221112234779ABCCDDDDDEDDDDCA97",
"6789BCCDEDDDDDDDDCBA8643110111122222211234568AABCCDDDDDDDDDDCB986421101122222212222345689BBCDDDDDDDDDDDCA97533110012222221112234",
"DB98654332222334578ABCDDDCCBA999899BBCDEEEDCB97654322222345679BBCDDDCBBAA99999ABCDEEEDBA87544322223445789BCDDDDCBAA99999AABCDEED",
"11123456788888776532111124567899999987654211112456788888876543311123457889AAA998764321112345678898877654321112356789999998875432",
"BCCDDCCBBAAAABBDDEEDDCA9765322221222345789CCCDDCCBBBBAAABCDDEEDDBA865432223222355679ABCDDDDCBBAAAABBCDDEEDDB9865332232222355679A",
"643211111111211222334679ABCDDDDDDDEEEEDCB98642211111221221122345689ACDDDDDDDDEEFEDCB9754211111112222222234678ABCDDDDDDDDDEEDDCA8",
"35689BCCDDDDDDDDCB98642110112233433332211244579ABCCDDDDDDDCCA97542101212333333322222234679ABCCDDEDDDDCBA865321111223333333221122",
"DCBA87654444445678ABCDDDCBA9987787889BCCDDDCBA987654334456799ABCDDDCCA988777889ABCDDDDCBA97654444445678ABCCDDDCBA987777789ACCDDD",
"11112345576766654321113347789AABBBBAA9865421112235566666665532111235789AABBBBBAA976432211334456776665432221234578AABBBBBBB997532",
"ABCDDEDCCBBBCCDDDDDDBA976432211111112234679ACDDDDECCBBBBCCDDDDCBA875432211112122345689BCDEEDCCCBBBCCDDDDDCBA86543311111112234578",
"87643221111111111234689BCDEEDDCCCCCDDDDDCB98654321111111111123578ACDDDEDDDCCDDDDDDCCA97653221111111111234579BCDEEDDDCCCDDDDDDCBA",
"34679ABBCCCCCCBA98754322122345455444321111135689BBCCCCCCBBA9765322322234455554332111123578ABCDCCCCCBBA97643222233444455443221011",
"DDDCBA877655566789ACDDEDDBA987655556679ACCDDDDCBA876555576789BCCDDDCBA977655566789ACDDEDDBA988655556789ACCDDDDCBA87655557679ABCD",
"22222344555554322101124579ABBCCCCCCBA98754322232344555544321000124679ABCCCCCCCBA98664322223344555543321001235799BCCCCCCCBAA97653",
"8ACDEEEEEEDDDDDDDCCBA97654322211111110123579BCEEEEDDDDDDDCCCCBA987543322221111111124579BDDEEEDDDDDDDDCCCBA9875532221121110011346",
"A976433222221111234689BCDEEEDDCCCCCCDCDCCBB987643222211111123469ACDDEEDDDCCCCCCCCCCCBA986543222211112224579BCDEEEDDCCCCCCCCCCCCC",
"1345789BBBCCBBA9765322122244567777654322111234678ABBBCBCA98754331112344667777654321011245689ABBCCBBA9876432112234566787765421101",
"DDDDCBA988888889BBCDDDDCB986654444445679ACDDDDCBA9988877889ABCDDDCBA976554444455789ACDDDDCBA9888778899ACCDDDCB987655454445678ABC",
"43111132334433222111235689ABCDDDEDDDCBA98754221112233443321111234578ABDDDDDDDDCCCA97643211112233343321111235679ABCCDDDDDDCCBA975",
"78ABCDEDDEEDDDDDDDCB9764211111122211111234679ABCDDDDDDDDDDDDCBA9753211111122211112235689ACCDDDDDDEDDDDDCB98643211111122211112345",
"CA975442222222334579ACDEDDCCBBAAABABCCEEEDDBA865432212322344679ACDDDDCCBAAAAAABCDDEEDCBA75432222222234668ABCDDDDCBBAAABABBCDEEDD",
"11234568899AA99876432212234567888888765432222235679999999876543211223456788888765432211334567899A9988765432111234688888887654322",
"DDDDCBBAA9999AABCDEEEDCA8754332222334568ABCDDDCCBAA99999AABCDEEDCB98654332222334578ABCDDDCBBA999999ABCDDFEDCB97644422222335679AC",
"6422101122222212222345689BCCDDDDDDDDDDDCB97532111112222221112234678ABCCDDDDDDDDDDCBA86431101111222222212335689ABCCDDDDDDDDDDCB98",
"568AACCDDDDDDDDDDCB986421101123222222322234578ABCCDDDEDDDEDCCA875322111122322222122235678ABCCDEDDDDDDECBA86432111112232223211234",
"CBA8765433333345679ACCDDDCBAA9988999ACDDEEDCB98754433233455789ACDDDDCBA9998899ABCDDEEDCA8765433333345679ABCDDDCCBA9988889BBCDEED",
"1111345677988776543221123457899AAAA99875432111244567888877654321112356789ABAAA99865331111234567888876543211112366899AAAA99876432",
"BCCDDDCCBBBABBCDDEEDCBA8654322112222355679ABCDDDCCBBBBBBBCDEEEDCB97653322121222345689ABCDDDCCBBAABBCCEEEEDCA9754322221122334678A",
"853221111111112222346689BCDEDDDDDDDEFFEDCA865321111121111222234688ABDDDDDDDDDDEEEDCBA754321211111111232334679ACCDDDDEDDDEEEDDCA9",
"34689BBCCDDDDDDCBA97532111132334443332222223578ABCCCDDEDDDCBA86532111123334443332111234579ACCCDDDDDDCCB9764211111233334433221112",
"DCBB9876544445668AABCDDDCCB9877766789ABCDDDDDBA98655445456789BCCDDDCBA9876667789ACCDDDDCBA8765444455678ABCDDEDCBA9876677789ABCDD",
"2112234655666554321111245789ABBBBBBBA986532221233455666554432111234679ABBBBBBBBA976432112234455666554321111245689ABBBBBBBA987543",
"ABDEEEDEDCCCCCCDDDDDBA876532211111221223568ACDEEEDDDCCCCCCDDDDCBA876432211111111234679BCDEEEDDCCCCDDDDDDCCA986543212111111123568",
"9865432211111101123468ACEEEEEDDCCCCCDDDCCBA9765432111111111124579BCEEEEDDDCCCCCDDDCCB9876432211111011123468ABDEEEEDCCCCCCCDCCDBA",
"24578ABBCCCCCBBA87543222323345555554321101124689ABCDCCCCBA987543222233455665555321001235789ABCCCCCBBA986543222234456555543211001",
"DDDDCA987666668889ABCDDDCBA8765555556789ADDDDDCBA98766666789ABCDDDDCB9876655556678ABCDEDDCBA87766667789ABDDDDCBA9866555556679ABC",
"32213234455443321010124579ABCCDEDDDCBA976532222223545554321100123478ABCDDDDDDCBBA885432222233445555321100123578ABCDDDDDCCBA98654",
"8ABCDEEEEEDDDDDDCCCB987543222112211111123468ACDDEEEDDDDDDDECCBA986543222222211101123579ACDEEEEEEDDDDDDDCBA9764332111111111111246",
"B98654322222222223568BCDDDDDCCCCBBBCCCDDDCBA97544322222112334579ACDEEDDCCCBCCCCCCDDDCCA87543222222212235689BCDEEEDCCBBBBCCDDDDCC",
"12346789ABBCBA9876432111123456788776543211122356899ABBBAA987543211123456678877654321112345689AABBBAA9875432111235567777765442211",
"DFDDCBA99889889ABDDDDDCBA875443334445688ABCDDDCBAA98888889ABCDEDDEB9865544343445689BCDDDDCBA99888989ABCCDEEDCA9766443334445789BC",
"5421111223333221111234578ABBDDDDDDDDDCCA9764311111123333221112235779ABCCDDDDDDDCCBA9753211112223333222112345789ABCCDDDDDDDCCA987",
"689BBCDDDDDDDDDDDCCA97532100111222111122345789BCCCDDDDDEDDDDCBA8653211011222221112334679ABCCEDDDDDDDEDDCB97643111111122211112245",
"CB976433222222345689BCDDDCCBBAA999AABCDEEEDCA97543222222234578ABCDDDDCBAA999AABBCDFEDDBA86543222222344679ACDDEDCCBAA9999ABCDDEED",
"21224567989998877543211223457889A999765432211334667899998776543221124567989998877543211123467889A9997654322113346678999888765432",
"CDDDCCBBAAA99ABCDDEEDCB986543222222445679ABCDDDCBBAA999AABCDDEFDCA976433222222345689ACCDDDCBBAA999ACCCDEEEDCA87543222222334579BB",
"643111111222222112234578ACCDDDDDDDDEEEDCB97532111111222211222245679ABCDDDDDDDDDDDDCA97432211112222222222345689BCCDDDEDDDEEDDDBB8",
"4679ABCCDDDDDDDECBA8653210111233333322222234679ABCDDEDDDDDDCBA8642110112223333232112345689ABCDDDDDDDDDCB975321111122333332222223",
"DCA9875443333457789ABCDDCCBA98898889ABCDEDECBA886543333345679ABDCDDCBCA98888889CBCDDDDCB9865543434445689ACDDDDCCA99888889ABCDDDE",
"111124567777776654311112357899AABBBA987643211112455677777654321112345889AABBAAA987542101123456678777654321112346789AABBBAA986532",
"BCDDDDCCCBBBBCCDEEEDCBA76543221121223345689BCDDDDCBBBBBBCDDEEDDCA97543221111122334678ACCDDDDCCBBCBBCDEEEDCBA87543221111222355689",
"8653211111111111223467AACDDDDDDDDDDDEEEDCA975432121111111112234689BCDDDDDDDDDDDDDDCBA87532211111111112234568ABCDDEDDCCDDDEEEDCB9",
"34689ABCCCCDDCDBA9865322112233544443322211235699ACCCCCCCCCBA976432112223344454422111124578ABBCDDDCCCCBA9753221212434444433321122",
"DDDBA9875554556789ABCDDDDCB98766666789ACCDDDDCBA876554455678ABCDDDECBA98765566789ABCDDDDCB9876554556678BBCDEEDCBA87666666789ACDD",
"222223445555544321111135689ABCCCCCBBA98654322223345555555332111123678ABBCCCCBBAA98643221223346555554322100134679ABBCCCCBCA987643",
"9BDEEEEDDDCCCCCCCCCCA98754332211111111234689BDEEEEDDCCCCDCDCCCBA9865432211111100123568ACDEEEEDDCCCCCCDDCCBA976543211111121112357",
"A876543222111211123679BCDEEEEEDCCCCCCCCCCBA9876433211111111225689BDEEEEDDDCCCDCCCCCCBA976533232111111123468ACEFEEEDDCCCCCCCCCDBA",
"234689ABCDCCBBA9865322222234566766654211011245789ABCCCCBBA976532212234556766654321000124679ABBCCCCBAA875432111234556666654321001",
"DDDDCB99877777789ABCDDDCBAA8665545556679ABDDEDCBA98877777889ACCEDDCBA87655544456789BCDDDDCCA98777777999ACDDDCCB98765555555678ABD",
"32211123444443221101234689BCCDDDDDDCCBA87543211222344544321101123578ABCCDDDDDCCBA986532211223344443321100123579ABCCDDEDDCCBA8765"
};