/* XPM */
static char * stone_xpm[] = {
"128 128 16 1",
"0 c #000000",
"1 c #111111",
"2 c #222222",
"3 c #333333",
"4 c #444444",
"5 c #555555",
"6 c #666666",
"7 c #777777",
"8 c #888888",
"9 c #999999",
"A c #AAAAAA",
"B c #BBBBBB",
"C c #CCCCCC",
"D c #DDDDDD",
"E c #EEEEEE",
"F c #FFFFFF",
"7555566789AABBAAA9998888877766555444333333222223333344456677889999AAAAAA999988888877766666665554444444444445556678899AAAABBBBBA9",
"87667789ABBCCCBBAA9988877665544433322222233333333333445678899AAAAAAAAAAA999888777766555555555444443344444555667889AABBCCCCDDDDCA",
"9877889ABCCCCCCBAA99887665544333222222222333344333344556899AABBBAAAAAAA999887776665544444444444433344445556677899ABBCCDDDDEEEDCB",
"9888899ABCDDCCCBA99887765544333222211122233444444444556789ABBBBBBAAAAA998887766655544434444444444444445566677899ABCCCDDDEEEEEDCB",
"A99999ABBCCCCCBAA9887665543332222211112233444555444556789ABBBBBBBAAA9998887766555444333334444444444455566778899ABCCDDDDEEEEEEDCB",
"A99999ABBCCCCBBA98876655433322221111112233445555555566789ABBCCCBBAAA999887766554443333333334444444455566778899ABBCCDDDDEEEEDDDCB",
"AAAAAAABBBBBBAA98876655443322221111112223445555555666789ABBCCCCBBAAA99987766554443332222333344444455566778889AABCCDDDDDDDDDDCCBB",
"AAAAAAAABBBAA9988776655433222221111122233445556666667789ABCCCCCCBBAAA9988766554433322222333344444455566778899AABCCDDDDDDDCCCBBBA",
"AABBBBAAAAA99888776665443322221111222223334455666677789ABCCDDDCCCBBAAA998776655433222222233334444455666778899AABBCCDDDDCCCBBBAAA",
"ABBBBBBAA9988877776655443222211112222223334455566677889ABCDDDDDCCCBBAA9988766554332221222333344445556677788999ABBCCCCCCCBBBAA999",
"ABBBBBBA99887777776655443222211112222223334445566777889ABCDDDDDDCCCBBAA988776654322211222333344445556677788899ABBCCCCCCBBAAA9999",
"ABBBBBBA99887777766655443222211122222233334445566778889ABCDDDDDDCCCBBAA988776654322211122333344445556677788899AABCCCCCCBBAA99999",
"ABBBBBBA99887777776665443222211122222233334445566777889ABCDDDDDDCCCBBAA998776654322211222333344444556677788899AABCCCCCCBBAA99999",
"ABBBBBBAA9888777777665543222211122222233334445566677889ABCDDDDDDCCCBBAA998876654332222222333334444555667788899AABBCCCCCBBAAA9999",
"ABBBBBBAA9998887777766543322221222222233334445566677789ABCCDDDCCCCBBBAA998877655433222222333333344445566778899AABBBBCCBBBBAAA999",
"ABBBBBBBAAA999888887765543222222222233333444555666677889ABCCCCCCBBBAAA9999887765443332222233333333344556778999AAABBBBBBBBBBAAA9A",
"AAAABBBBBBBAAAA99998876543222222233333334444555666667789ABBBCCBBBAAAA9999998877654443333222222222233344567899AAAAAAAAABBBBBBBAAA",
"AAAAAABBBBCBBBBAAAA99876433222223333333444455555555667789AABBBBBAAA999999999887765544433322222222222234567899AAA9999AAABBBBBBBAA",
"A99AAAABCCCCCCBBBBAA99865433222233344444444455555555667889AAABAAAA999999AAA9988776655443322222221111223457889999999999AABBCCCBBA",
"99999AABCCCCCCCCCBBBAA8765433333344444444444455444445567889AAAAAA999999AAAAAA998876665543322222111111224567889988888899ABBCCCCBA",
"988999ABBCCDDCCCCCCBBA987544333344444444444444444334455678899AAA9999999AABBBAA99887766544332222111111123466788887777889AABCCCCBA",
"988889AABCCDDDDDDDCCCBA97654444444444444444444433333445567888999999999AABBBBBAAA9988776544333222111111234566777776677889ABBCCCBA",
"8778899ABCCCDDDDDDDCCCB9876555445555444433333333322333455667788899999AAABBBBBBAAA9988776554433322111112344566666666667889ABBCCBA",
"8777899ABBCCDDDDDDDDCCBA987665555555444433333333222233344556677788999AAABBBBBAAAAAA99887655444333222222334455555555566789AABBCBA",
"8777889ABBCCCDDDDDDDDCCB988776666555444333333322222223333444556778999AAAAAAAAAAAAAAAA9887765554443333333344445544444556789AABBBA",
"8777889AABBCCCDDDDDDDCCBA98877766655544433333222222222222333345678899AAAAAAAAAAABBBBAA9988766655544444333444444433344556789AABB9",
"77677889AABBCCCCCCCDDCCBA99888777665544443333222222222222222334567889999999999AABBBBBAA9988776666555544443333333333334567899AAA9",
"766677899AABBCCCCCCCCCCBAA9988877766555444333322222222221112223456788999999999AABBCCBBBAA998877766655544433333332222334567899AA9",
"7666677899AABBBCCCCCCCCBBA9999888776655544433332222222211111223456778888888899AABCCCCBBBAA99887776665554443333332222234467789998",
"65566677889AAABBBCCCCCCCBAAA999888776655554433332222222111111223456778888888899ABCCCCCBBAAA9988777666554433333322222223456778988",
"6555566778899AABBCCCCDCCBBAAAA9988777665555443333322222211111223456677777788899ABCCCCCBBBAA9988777665544333322222112223445677887",
"544455566778899ABCCDDDDCCBBBBAA998777666555444333333322211111223455667777777889ABBCCCCCBBAA9988776655443322222211111222345566776",
"443444555667789ABCDDDEDDCCCBBBAA987766665555444333333322211112233455666777777899ABCCCCBBBAA9988765544332221111111111222334556666",
"4333344455566789BCDEEEEEDDCCCBBA987766655555444444433332211122233455566666777889ABCCCCBBBAA9987655433322111110111111222334455665",
"4333334445566789BCDEEFEEDDDCCCBA987666555555444444444333221222233445566666677889ABCCCCBBAA99887654332221110000001111222334445655",
"4333334445566789BDEEFFFEEDDDCCBA987665555554444444444333222222234455566666777889ABCCCCBBAA99887654322211100000001111222334455665",
"433334445556678ABDEEFFFEEDDDCCBA987655555554443344444333222222334455666667777889ABCCCBBBA998876543322111000000001112222334455665",
"433344455566778ABDEFFFFEEDDDCCBA876655555444433333333333222223344556677777778899ABBCBBBAA998876543322111000000001112223344455665",
"444445556667789ACDEEFFEEEDDDCCBA87665544444433333333333322223344556677788888899AABBBBBAA9988776543222111000000011122233444556666",
"544556666777889ACDDEEEEEEDDDCCBA8766554444443333332333332233344556778888999999AAABBBAAA99988766543222111000000011223344445556676",
"65567777778899ABBCDDDDDDDDDDDCBA876655444443333222222222333344566788999AAAAAAAAAAAAAA9999887766543322211100000112334445555566776",
"6667888888899AABBCCCCCCDDDDDCCBA8765554444433332222222233344556678999AAABBBBBBBBAAA999888877765443322211110011123345555555566777",
"777899999999AAABBBCCCCCCDDDDCBA987655444433333322212222334455677899AABBBBBBBBBBAA99888777776665433222221111111223455666666667777",
"8889AAAAAAAAAABBBBBBBBBBCCCCBBA8765544433333333222222233455667789AAABBBBBBBBBBBA998877777666554433222221111112234566777776677788",
"899ABBBBBAAAABBBBBBBAAABBBBBAA98655444333333333322223334556677899ABBBBBBBBBBBAA9987776666665554333222222111222345667788877777888",
"99ABBBBBBBBBBBBBBBAAAAAAAAAA998765443333333333333333344566778899ABBBBBBBBBBBAA99877665555555444332222222222223455678888888778889",
"9AABBCCCBBBBBBBBBAAA9999999887765444333333333444444445566778889AABBBBBBBBBAAA998776655555544443332222222223334456788999988888899",
"9AABBBCCBBBBBBBBAAA99988887766554444333333333444455566777788899AABBBBBBBAAA99887766555544444443322222233334445567788999999999999",
"9AAABBBBBBBBBBBAAA999887766554444444444333333445566778888888889AABBBBBAAA99988776665554444444333222223334445566778889999AAAAA999",
"9AAAABBBBBBBBBAAA99988765544433344444444333344556788999988888899ABBBBAAA99887776666555444444433322223334455667778888999AAAAAAAA9",
"9AAAAAABBBBBBBAA999887665433333334444444433444567899AAA998888899ABBBAAA998877666665555444444443332223344566777888888999AAABAAAA9",
"9AAAAAABBBBBBAA999887765433322233444554444444556889AAAAA99888899AAAAAA9988776666555554444444444333333445567788888889999AAABAAA99",
"9AAAAAAABBBBAAA99887766543322223344455544444556789AABBBA99888899AAAAA99887766655555544444444444333333445667888999999999AAAAAA999",
"9AAAAAAABBBAAA998887765543322223344455544444556789AABBBA99888889AAAA9988877665555555444444444444333344556778889999999999AAAAA999",
"AAAAAAAABBAAA9988877665443322223334444444444556789AAABAA998888899AA99988776655555554444444444444433445566778889999999999AAAAA999",
"AABAAAAAAAAA999887776655433333333333444444445567889AAAAA9988888999999887776655555444444433344444444445566778889988888899AAAA9999",
"ABBBBBBBAAAA998887776655443333332223333334445566788999999998888999998877766655554444444333333444444455666778888888888899AAAAA999",
"ABBBBBBBBAAA998887776655444433332222222333445566778889999999999999988877766655554444444333333344444555666777888888888889AAAAA999",
"ABBBBBBBBAAA999888776655554443332211122233344556677888899999999999988877776655555444444333333334444555666677788888888889AAAAAA9A",
"ABBBCBBBBBAA999988877665555444332111112223334455667778888889999999998887777665555554444333333333444455566667777877788889AAAAAAAA",
"ABBBBBBBBBAAA99998887766555544332111111222334445566777888888999999999888887766655555444333333333344445555566777777778889AABBAAAA",
"AABBBBBBBBBAAAA999888776655544332111111222233444556677778888899999A99998888777666655544433333333334444555556667777778889ABBBBBAA",
"AAABBBBBBBBBAAAA999887776655544322111111222333444556677777888899AAAAAA99998877766665544433333333334444444555666677777889ABBBBBAA",
"A9AAABBBBBBBBAAAAA9988777665544322111112222333444555667777778899AABBBBAAA99888777665554433333333334444444444556666777889AABBBBAA",
"9999AAAABBBBBBBAAA9998877766554332221112223333444455666667777899ABBCCBBBAA9988877666554443333333344444444444455566777889AAABBBAA",
"888899AAAABBBBBBAAA999887776655433222222233333344455566666667789ABCCCCCBBA99988877666554443333334444444433334445566777899AAAAAA9",
"87788899AAAABBBBAAAA99988777665443322222333333344445555555566789ABCCCCCCBAA99988877666554444333344455544333333445566778899AAAAA9",
"7667788999AAAABAAAAAA99988877665443332233333333334444555545556789BBCCCCCBAAAA99988877665554444444555554432223334455566778999AA99",
"76666778899AAAAAAAAAAAA999887766554433333333333333344444444455689ABCCCCCBAAAAA99998877766655444455555543322222333445566778899A98",
"6555667788999AAAAAAAAAAA999888776554444444443333333344433334456789ABCCCBBAAAAAAA999888777665555555555543322222233344556677889998",
"65555667788999AAAAAAAAA9999988877666554444443333333333333333345689ABBBBBBAAAAAAAAA9998887776665555555443322222223334455667888987",
"654556667788999999999999999998888877665554443333333333332223344679AABBBBBAAAAAAAAAA999988887766655554443322222223333445567788987",
"6545566677888999888888999999888899988776544333333333333322222345789ABBBBBAAAABBBAAAAA9999988777655544333332222223333445567788987",
"655555666778888887777888899988999AA99887654333333333333222222345789ABBBBAAAABBBBBAAAAAAA9999887655443333333333333333444566788887",
"65555566677788887777778888888899AABAA987654333333333333222122235689AABBBAAAAABBBBBAAAAAAAAA9987765443333333333333333344566778887",
"65555566667788877666777888888899ABBBAA97654333333333333221112234689AABBAAAAAABBBBBAAAAAAAAA9988765443333333333333333344556778887",
"6545555666778887766677788888899AABBBAA986544333333333332211122346799AAAAAAAAAABBBBAAAAAAAAAA998765443333333333333333344556778887",
"6555555666777887766677788888899AABBBAA986544333333333332211122346789AAAAA99AAAABBAAAAAAAAAAA998765443333333333333333344556677887",
"65555566667788877767778888999999AAAAA987654443333333332211111234578999A99999AAAAAAAAAAAAAAA9988765544333333333333333444556677887",
"655556666677888877777888899999999AA9988765544333332222221111123456788999999999AAAAAAAAAAAA99887765544333333333333344445566778887",
"6555666677778888888888899999999999988776655544332222211111111223456788888888999AAAAAAAA99998877665544433333333333444555666778887",
"66666777777889998888899999999988888776666555443322111111111112234567778888888999AAAAAA999888776665544433333333334445556667778888",
"766677778888999999999999999998888776665555554432211111111111123345677788888888999AAA99998877666555544433332223334455666777788998",
"7767788888999AAA9999999999988887776655555544443221111111111122345567788888888899999999888776655554444333322223344556677778889999",
"877788999999AAAAA999999999888777665554444444433221111111112223345677888888888899999998887766554444433333222233345566778888999AA9",
"8888999999AAAAAAAA999999988877666555444444433332111111122223344567788999988888999999887766655444433333222222334456778889999AABAA",
"988999AAAAAAABBAAAAA9999887776665554433333333322211112222333445678899999999998888888877665554433333222222223334566788999AAAABBBA",
"9999AAAAAAAAAAAAAAAAA99987766655554443333222222222222233344556678899AAAA999999888887766655544333222222222223334567899AAAABBBBCBB",
"A99AAAAAAAAAAAAAAAAAA998876655555444433322212222222233445566678899AAAAAAAA999988877766555544433222111112222334457899AABBBBCCCCCB",
"AAAAABBAAAAAAAAAAAAAA99876655444444443322111112222334455667788999AAAAAAAAA99988877666555444433322111111222233456789ABBBCCCCCCCCB",
"BAABBBBBAA99999AAAAA9987665444444444433221111122333445567788999AAAABBBAAA99988877665544444433332111111122233445789ABBCCCCDDDDDCB",
"BBBBBBBBAA999999AAA998876544333344444332211112233445566778999AAAABBBBAAA99988776655544443333332221111122333445679ABCCCCDDDDDDCCB",
"BBBBCCBBAA9998999999887654433333334443332211222344556677899AAAAAABBAAAA999887766554443333333333221112223344456789BBCCDDDDDDDCCCB",
"BBCCCCBBA9998888898887654433222333344333222223344566678899AAAABBBAAAAA999887766554433333333333322222223344556679ABCCDDDDDDDDCCCB",
"BCCCCCBBA998888888877665432222223333333322223344566778899AABBBBBBAAA99988877665544333323333333332223334455666789ACCDDDDDDDDDCCBB",
"BCCCCBBAA99887777777665432211112223333333223334556778899ABBBCCBBBAA99988887766554333222223333333333444556667789ABCDDDDDDDDDDCCBB",
"BCCBBBBAA9888777777665543211111122233333333334456778899ABCCCCCCBBA998888887766554332222223333334444555666778899ABCDDDDDDDDDDCCBB",
"BBBBBBBA9988777777766543211000011222233333334456678899ABCCDDDDCBBA98888888777655433222222333334445556677788899ABCDDDEEEEEDDDCCBB",
"BBBBBBAA9988777777666543210000011122223333334456778999ABCDDDDDDCBA9888778877765543222222233333445556677888899AABCDDEEEEEEEDDDCBB",
"BBBBBBAA998877777766554321000000112222233333445678899AABCDDEEDDCBA9887778877765543222222223333445566777888999ABBCDDEEEEEEEDDDCBB",
"BBBBBBAA998877777766554321000000112222233333445678899AABCDDEEDDCBA9887778887765543222222223333445566777888999ABBCDDEEEEEEEDDDCBB",
"BBBBBBAA998887777766554321000001112222233333445677899AABCDDDDDDCBA9888778877765543222222223333445556677888899AABCDDEEEEEEEDDDCBB",
"BBBBBAAAA99888777766554321110011122222233333445677899AABCCDDDDCBA99888778777665443322222233333444555667788899AABCDDDEEEEDDDDCCBB",
"AAAAAAAAAA9998877666554322111111222223333333445677899AABBCCCCCCBA99888777777665443322222233333344445566778899AABCDDDDDDDDDCCCBBA",
"AAAAAAAAAAAAA9987665544333222222223333333333445677899AAABBBBBBBAA998887777666554433322223333333334445556778899ABCCDDDDDDDCCBBBAA",
"999999AABBBBAA9876655444433332223333333333334455678999AAAAAAAAAA9988887777665554443332233333333333334455677889AABCCDDDDCCCBBBAA9",
"9889999ABBBBBBA987655444444433333333333333333445678899999999AAA999888887776655554443333333333333333334455677889ABBCCDDDCCBBBAAA9",
"8888899ABBCCBBA9876655555554444444443333322333455678889988999999998888887776665555444333444443333222334456677889ABBCCCCCBBBBAAA9",
"8777889AABBCCBBA9876665566555444444443333222333456677888888889999888888888777666655544444444443332222334456677889ABBBCCBBBBAAAA9",
"77777889ABBBBBBA98777666666655555444443322222233456667777778888888888888888877776666555555554443322223334455667889AABBBBBAAAAAA9",
"766677899AABBBAA9988877777766655555444332222222344556666677788888888889999998888877766666655544433323333445556677899AAAAAAAABBA9",
"76566778899AAAAAA99998888887766665554443222222223445555666778888888888999AAAAA99988877777666655443333333444455667788999AAAAABBA9",
"7655667778889999AAAAAA99998877766665544332211122333444556677888877778899ABBBBBBAAA998888877766655444444444444555666778899AAABBA9",
"6555566667777889AAAAAAAAA9988877766655433221111223334445567778887777789ABBCCCCCBBBAA99998888776665555544444444555556677899AABBA9",
"65445555566667889ABBBBBAAA9998887766654432221112233333445667777776677889BCCDDDDCCBBBAAAA99988877766655554444444444555677899AABA8",
"64444555555566789AABBBBBAAA999888777665433222122223333445566777766667789ABCDDDDCCCBBBBAAAAA998887776665544444444444455677899AAA8",
"54334444444556789AABBBBBAAAA99998887765543322222233333344566676665566789ABCCDDDDCCCBBBBBBAAA998887776665544444444444455678899A98",
"543333444444556789AAABBBAAAAA9999888776543322222233333344556666655556678ABBCCCCCCCCBBBBBBBAAA99988777665544444444444455667889987",
"43223333344455678899AAAAAAAAAA9999888765543322223333333444555565555566789ABBCCCCCCBBBBBBBBBAA99988877665544444444444445567788886",
"42222233334455667889999AAAAAAAAA999887765433222333333334444455555566677899AABBBBBBBBBBBBBBBAAA9988776665544444444444455566677876",
"321112223344556677788899AAAAAAAAA9998876543332233444444444444455566777888999AAAABBBBBBBBBBBAA99887776655544444444444555555667765",
"3111112233455566667778899AAAAAAAA9998876543322233444444433334445667788888889999AAAAAAAAAAAAAA99887766555444444444445555555566664",
"2111111234455666666777889AAAAAAAA99988765433222334444444333344456778899888888999AAAAAAAAAAAA998877665554444444444455555555556664",
"2111112234455666666677889AAAAAAAA99988765433222334444444333344456788999988888999AAAAAAAAAAAA998876655544444443444455555555556664",
"2111112234556666666777889AAAAAAA999887664432222334444444333344556788999998888999AAAAAAAAAAA9988776655444444433444555566655566664",
"3111122345566777777778899AAAAA9999887765433222223344444433344456778999A998889999AAAAA999A999887766554444443333444555666666667765",
"42222234566778888778888999A999988877665543322222333444444444556678999AAA99999999999999999998877665544444444444445566677777778876",
"53333445678999999888888899888877766555443322222233333444555666778999AAAA99999999999888888877766555444444444444556677888889999A97"
};