/* XPM */
static char * stone_xpm[] = {
"128 128 16 1",
"0 c #000000",
"1 c #111111",
"2 c #222222",
"3 c #333333",
"4 c #444444",
"5 c #555555",
"6 c #666666",
"7 c #777777",
"8 c #888888",
"9 c #999999",
"A c #AAAAAA",
"B c #BBBBBB",
"C c #CCCCCC",
"D c #DDDDDD",
"E c #EEEEEE",
"F c #FFFFFF",
"9AABBBBAAAAABA998887654434444444556654545666666888876677676667789766566544334455444555666678ABBBCBCCCBA9998877766555444334556779",
"BBDCBBBBBA9998887665443223233345556667666777878898876666655455666665455554344667656778877889BBBCBBBCBB9777777655556544445667889A",
"CDDCBAAAA9876666654222222122345667777888877889887776654444343455555555555566778888889998888AAAAAAAAAA9776666665556675545778899AB",
"CCCAA989876644444432222332233677778899998788889765555432223333445666676677899999ABAA998998888999899887666666667667778767789A99AB",
"AAA987766544344333323223334456889989AA998777776655444322112344446789988999BAAAAABBBA97788877677888777777676767889988889988999AAA",
"87777654334333333334434344566778A9A9989876656554433432222234566779ABBAAAACCBBBAABBA98766666555678877778987878A9AA999999987778998",
"65555553223444334455554546677778899A8766665444444443323334556789BACCCCDCBCBBBAAAA998665555445667888888999A989ABBB999998765556666",
"44544543333455555577765466677677789776555554333455543456666789ACCDDCCDDCCAA9AAA98776655444446678889AABA9AAAAAAABA998776544344444",
"3444444455555667777777655556656667765554545444556776667798789ACDDDDCCDCCB988889866556654434667888ABBCBBAAAABA9988887543332222233",
"4555555676777788897666665444455556556555555656777889998999A9AACCCCBBCBBA9777777666556655445788999BBCCCAAA9AA98765665421112221123",
"5666667888877889987665554332345555557776657789999AAABAA999AAABAABBBBA98977766666666665666677899AAABBCAA9888766545443211101211224",
"67888889999788888766555433223445555678987889ABBABABCBBA98899A99899AA977677766666777776677877789ABBAA9998766555433322211111122345",
"7789AAA8888888777665544332334455778999AAAAAACCCCBBCCBA98787878677788776667777667889877778877778999987676653333333222222222234567",
"88AAABA988788766566644323334455779AABBBBCCCCCBCCDCBAA987766665666777677677777778899987777866667777765654533222343222334333346678",
"899AAA988777766555655433345665789BCCCCCCDDDCBBBCBCA977766544445656667777877788A9999898766555555556545544332323334444455554467788",
"9999A988777765655655554555677889BDDDDCDDDDCBAABAAA97755554322456665678898888899A998888764344444334444433333344444666665666676788",
"999887887665566666666667667789ABBCCDDDCDCCBA999988666544333334457677889998889AA8887876653232342223355433345545557788876767877778",
"89887678776556678767778888879ABCCBCCDDDBA999987776665443232344456789899999989988877765432221222233345544456677678999878778776767",
"77777776776666788888899988899ABBBBBBBCBA887787655455543233344555779AA9989A9987788766443222111113344555666767888999AA988787766667",
"667677766667778899A99AA9A98899AAAAAAAA9887666655445555332345555679AA9A9899998666776432222211112344555778888899ABAA9A9A9776666656",
"46677767767889999ABBBA99999988999999987776655454555444444445566779A9A98998886666565433222211113456667899A9999ABBBAA8999865455565",
"4567877777899999ABBBBA9988997777898876666555344556555556555556878889A999877666655443433222222344677889ABAAAAABBBAA99987764444554",
"555778887899AA9AABBBBA99888776657777655565544455665555666665577998889999766666544434433322324455678AA9AABBBAABAAA999876645433444",
"5677778999999AABBBBBAA98777555565556555555544546766666776665777898888898765566554345444323344556789BBBAAABCBBA99AA99766554433334",
"56777889AA999ABCCBAAAAA876555555545556554445655667787777776677787888888766555555434445433344656789ABBBBAABBBA9898998654445333235",
"6677799AAA9AAABCBBA99A9875444444344556545445667667889876777776777888786666554445455445455545567789ABBBBBBBAAA8988887654444332235",
"5777899ABAAAABBBBBAAA8876544344433445655555667777889998777787666688776666555434456655445655556899A9ABBBBBA9989887766665433333344",
"5679AA9AAABBABBAAAAAA8766554333344445556556667778999A9887777666567777656565434455655555666665688AA99ABCCA99888977666665432233454",
"6679AAAA9ACBCBAAABAA97765544332244554456676667889999999987766666666676655554444466566667666667789A9AAABBA98879877656655433334555",
"6789AABBABBBBBA9AABA9766554332233445445577766779A99999A9886556566555566654445555556676766666778898AABAAA999887777666565433334445",
"67999AABBBBABBABAAA98875553322233444455667777789A9A98999876555665555556554345555546778766667877889ABBBA9999987667776555454344456",
"78889ABBCBBAAABBBA98887653333222234445656667788989A99988876655555555565554445455556688767678887789BBBA9A9A9987666777554555443456",
"78889AACCBAAABBBAA888776532223322234555555677787889AA987767654444555555554454455567777787777888889ABBBA9A9A987777776655555543456",
"6788A9ABBBBAAABAA9988866533222222223555555677877899AA9887677554345665445556444556777778888876889AA9ABBBB9A9988777767666554444455",
"6679AAAAABBAAA9AA9988775433222112233445555567777889AA9887776554455565555566544467777778988877899BAAAABCCB99889887667766644444555",
"55789AA99AABAA889999766544322111223333445665667888999998887665556566566555555556777877899977898AAAABBCCCBA9899988667776543445444",
"4578899899AAA99889A9876454321011223233345655557899988AAA9866666666666776665566666688888888889899AABBBCCBBAA999897777676544344444",
"455678889999999999988865443321112222234455555578899899AAA8776787666678776656667767789988878998889ABBCBBBBBAAA8878887655554333334",
"4444667887888898998887765433222112223334455556778899AAAA99987788777789987667777667889988778898888ABCCCABBBBB98887877654444321123",
"343445688777799998888887643333322123444444556666789ABAAA999988878999988988877776777888887787788889ABCBBBBBBA98879877655443321112",
"22334456677678899889999865444433222344543456776678ABAAAAAAAA998899AAA999999777778777777877766677898AABBBAAA999888877655443211111",
"112334545667777899999998766554433344455555556667789BAAA9ABBAA989AABBAAAAAA988667887766777654556777889ABBBA9999998777765433211101",
"012234344556776779AA999899775555455555556666656788999AAAAAAAA999ABBBBBBBBA9988777777666666444456666779AAA99899998777777432222100",
"011233334456666788AAAA999A9875667766566777666667788889AAA98999AA9AABBCBBBAA99898777677655444333445557889888989988887786643222210",
"1112333334565566799AAAAAA9A9877788877678987656778777899A988789AA999ABCCBAAAA9988777776554333322123455667878888988988877664432211",
"32222244444456667899AAABAAA99998898999899887677777778898877778888889BBCCA9AAAA97777876544333221112345445678867789999888876543222",
"433333455543456777799ABAA9A9AA99999ABABA999998777788777777666666678999AAABAAAA99878887654433211011233344567676679999889988654434",
"544445656544556776778ABA9989AA9999ABBCBAAAAAA9877788876566655445557778999BA99899998877765432210111122233454566677899999999866555",
"6666677666566566667789999888999989ABCCBBBBABAA9878888865555542234555567899998889AAA8878876432222111123333444556767799AA999888767",
"678888778777666667778878888877888999ABBBBBBBBAA9999888766544322223444456787777899A99898887543333221123333234456566779AAA98999887",
"7899BA9899A987767877776777775556798889ACCBBBABBAAA9998886543332222233444556667788998A9998776544333323344433345554667999998999997",
"899AAAAAAAAA997788887677776544446676778ABBB99ABBBA999999765433322111334433456665778999999887765444455444545444445557788888988888",
"8899AABCBBBAAAA99889887767644434444556788999999ABAAAAABA876554432112233333335555557999988999876666676656566554456666667787777777",
"77788ABBCBBABBBBA999AAA87655543332344566677888899AABAAAA997666443233333333334344446778878898976677887787887765566676566778655567",
"656679AAAAABBBBCBBAAACBA87666543123344445556767778AABAA9AA9875555544444444443334455566777878777777888989999887777777667676654456",
"454566789899AABBBBBBCBBAA977665432234433345555556789999999AA86666775555666544344445456677666567767779AAAAAAA99998888887766554443",
"2344555668898899ABBBCCBCBAA976655443444443444444466787799998777677777667777645555544556665554555655679AAA9AABBB99999A99876665543",
"33344444557777679AABBABBBCAA88666655444655433444444566777787777777778888888877667656556755444444444567899999ACBAAAABCBB988876543",
"4444444445556655779A99AABCB99888877666767664444554444676565566565567789989999988778877766654433332345567789999AABABCCCCBAA998754",
"6555455455545446566788899A99887888877888887665655554456664444554434677888989AA99889A9987677653222334345467778789AABBBBCCCCA99876",
"8765677666555455555567878777877767888888998877776666665555443333223456667789A99999AABAA998886533334333345666666789AAABBCDDBA9999",
"997778898666666645456677665666655567888889A998878887876665553222232234456668788899AABBABBA9986654444443455554456778799ABCBBA99A9",
"9988989AA9887787655577665555554434456777789A9988899998787776433122222234556556788989AABCCBBA898776555555455555555667789AA9A99999",
"8789999A9AAA99888877777765544432323344566778888889ABA999999755333322222344443456777789BCBBB9AA9887677787756567655557777878888877",
"667788999ABBAA8899A988887865433322222334556567788889AABAAA9886555443333344434445566768AABB999AAA88888999887788766557787666778655",
"4466666789AAA9999ABA9998A9865333322112333434445667778AABAA9999775555555445444444445667788999989998899AAAAA99A9887777788767677544",
"33444555677888899AAAAAAAAA987544433212234222334444557899A9899998666678666566655545566766778987777898999ABBBBBAA99999988887766544",
"43223445545566777889AAAAB9998765444333233333233333345778888888887777889887888775567777667778766557788879BBCBAABBBBBAAAAAA9875554",
"44222234333345555567899A99999886654554433344333233445556677878767878889A99A99A987888987787876655555666789ABAA9AACCBBABBCCA987765",
"643333333332334443356788788999766666666545565533344544456776666666777799ABBAAAAABA99AAAA998876555545456777889999ABBBBBCCCCB98876",
"654444433333332232334566677787766567777677777655555655556776554566665789ABBABABCCCBBABDCCA9888765444445556567788889AABBBBCBBA977",
"6676554444433222233334446656555655666777888887877777777777776555555555789999AABCCBCCCDDEDDBA9998644445544445655655779AA99AABB987",
"6677655466654333334333345555434555545678988999AA99999A9A9978776544545556778898AAABBBCDDDEDDCBA9976545554433444433456677888999877",
"666666566677554445444445555444444443456898889ABABAAABCCCBAA99987554456555568787889ABBCCDDDDDCBA888766545544433433334555667787776",
"554555777677777666666556666544444333445677888AABBBABCDEECCCCBBA77655655544667765678AAAABBCDCBB9989787556566433334332334555555555",
"433445676777888877688887778776444334445556788889AABCCCDEEEDDCCAA8777666555555655556788889ABBA98898876666666544334433224555433444",
"322234556667898988899ABA99899865444544445667777789BBBBCCEFFDDCBBB997777666655445544556777888987877776677776665555444334455433334",
"222223455666888888AAABBBCBBBB9976565554456676667789A9BACDEEEDBBBBB98777787655555444344667666677665566766677776665555555455454333",
"233322235566677889AABBBCDDDDBBA987766665556665556787889ACCCCCBBBAAA9887898665566443335455555556544335666656887766666776665665432",
"33333323456655668999AABDEDEDCCBBAA87767776565665555677899AAAAAAA9988988887876665554344554444444333333445556778876778987777887653",
"5544333344555556789999BDEEEDCCDCCA988788877556665445677777899A988877888877888865555554455454443222223234456667778778999999A98765",
"7555444445545555667889ABCDDCCDCDCB998999887766666444567766678876656777767788887656676555566543223222122345556667888899BBBBBAAA87",
"8766566555555556556688A9ABCCDCBBBAAA9999988787665555455556566666545566666778877676777665677664333332112244455567788889ACCDBABAAA",
"A8766777654566654456688899ABCBBA99AAA988999987766565554466665454444344556667777777777778887766543332222234444456777789BBDDCCCBBB",
"AA9887777666666544556677889AAAA988999988899A97666766554566664444444223456656668877778989988877764433332233354455577789ABCCCDDCCB",
"AAA99878787766655545566777899888888888888899988677766556666544444422223455555678886789AAA999998764434443323455544567889ABBCDCDCB",
"BBAA9888889876556655445677777877777777788888898877677666667655444322223334555666877789ABAAAAAB987645544433444544445788889BDDDCBA",
"BBBA9889899877666655445677756677765556877887898987777888676776543323223333445656667898AABBBBBAA99666555444445444444667888ABCCCAA",
"AAAA999899988777665555556766666765544667777789998777889887778765323333222345555556788999ACCCCA9A99875555554444444454567899AABBBB",
"A9989AA999899887666556556666766555554556777788898788898888888776443333222244544456778899BBCDCBAAAA976556665444454444456789999ABB",
"AA888A9A98899997666666556567666544555545567887888888889999998876554333233334444445677879ABCCBBBAAA987666766543445443456787899ABA",
"9998999999999998766677665577765445455444567877778998878AAAA98886664332233332345555457789AABCBCBBAA987777666655444444445677889AAA",
"9989899989A999888767667666677654545444445677777788898889ABB9887876433233333324445445579A99ABCCCBA9999787656566544345545567888999",
"999988999AA9998888876667777666665444444446666778878888999AAAA8878654333333323334444556899A9ABDCCA9999987666676544344555456899988",
"89A98888AAA998898887666677766566644334444555677777778999999AAA886655433233233344434556789AABCBCCBA999997766776554445455557799988",
"899998889AAA98899886666777666566554333445445677766778999999AA9986555542222343333344556679AACCBBBBBB99888877676655444445567888899",
"998899999899A9988876666676666665443333344445567766678988989AAA986655543222344332346566679ABCBBCBBCBA98789877566655434556667888A9",
"9988999998899A987666765655666654443343334456566677778789999A9A977655443333333443354666689ACCBCCCDCBA9888888765666644445776778A9A",
"A88899998898998876566665456666444444332334556655777877789AA999888754434333433444545567899ABCDDCCCCBB99998887676665444456677789A9",
"998888988888997776655554445565444344323235556656777777789AA98889976534444433445555556799AABCDEEDCBBBBA98887776665445455567788989",
"99A9887889888777665544444544444543333333455665677787778899A9998887654444543445666566789AABBCDEEECBBBAB97777786554454445456789888",
"89A98777888866666553333444444455443334445446677777778888998A99987765554454555566666789AABBCDEEEECCBAAA98766776543445443456788889",
"99988868777765555543222443333455544344565556789887789988889AAA9877666554445666667888899BBCDEEEEDCCBAA887766555543333444456788898",
"99888787766666544433322333443555554455566677799988779999889AAA9777776555456677767899989ABDEDCDDDDCAA8777665544444422334555778999",
"988888776665555432232222234455556666667777889999998988898999AA987777665556777878899AA9AABDEDDCCCCBA87666655333334322234556678AAA",
"987788865555554322222222234566666788777789A9A99A99998787899888899776666667778889999A9AAABCBCCCBBAA9865554433333332222345667789AA",
"98977776554454432222222234567778789999889AABA99AAA98777888888889987656778777899A99999AAAAAAABBBA9776554333333223233334455678999A",
"99987655554433332222232345678899AAAAAAA9AABBBA99999776778878788988866778887889BA99889A99989AAA9976655432212333322343444567889999",
"99977545545432334332233566788ABBBCBBBBBCBAAAABA9887776666777789888778788889999AAA987889887788886554443222123343323455545679A9999",
"99875544444333334433334678889BDDDCBBCCCBBAA99AA977566665556889888889988988999A98998876676676676554444222223333434445655667999989",
"97876444444334445445456789AABCDEEDCCBCCBA98999877555555545679998889AA98889A99988877765444665444555332223333344456656657778889A98",
"7766565433445555556667889ABCDDDDEDDCBBAA98878866554544445667899999AAA99889999877766543334444433455532234454455677666577778778999",
"766556544435666656788989ABBDEDDDCDDCB9878877655554544444567888AAABAA999888888766555432223333344555554445666566788776678777778888",
"66666655545678877799A999ABCDDCCCCCBB99666666544446543445777889ABBBB9998987666665433222112233445556656666667878888876676766667787",
"67667656677878999A99AAAAAABCCBBAABA88665555544445555444678888ABBBB99888876544544321112221224566667778877778899877777655565666677",
"88877677889999AABBA9999AAA999AA998776655444445555555656678999AABBA988776544333333211122322446888888AA998789999877666654445666666",
"89998889ABAAAAABBA998788888678898665556544455666666667776889AA999988665444333322222222334556789AA9AAAA98889887766655433334566767",
"9AAAAAAABBBAAAABA987677666566677765556665455777776787786778899887777654323333223333434445778999BBCBA9999887776665454333345567799",
"BBBBBCCAAAAAB99987865554544566666666666677677889778788666678877666655432233443334565545678999ABBCCBA88888765555644333444555789AB",
"CCCCCCBBA9999987565554333445556677888777889888988877666555566656555444333435455556776667899999ABBBA8877675554455544345566668ABCC",
"CCCBCBA98788777554444322235666678A999889999A88888876544544444465655554455565677787778887788999999987765654444555555555677789ACDD",
"CCBBAA98666665444433333334567888AABBA99999A8877777553323333334566655667766677999987788886677898777777554445556556677777889AAABCC",
"BBB98676665444444444344556678AABBBBCAAA98987766664433222233344568777789988789AAA887777765555677665676654456677777889888889BABAAA",
"99986655655444566554556677789ABCCBBAAA9876666554333322222334567888999999999999998666555444445556666667756678998899AA888889999889",
"8876655556555567777667788889AABCAA9988876444555422333332344677999ABBBB98999987776664333333344556678777788889A9AA99A9887677877778",
"776666666567778889988788988889AA98877755443444443334454444689999ABBBB9988788755455533212334445688999999ABA9A9ABBA987776655566676",
"6777887777899AA9999998777788777777766554434444445555555666789AA9AAAA9877666544444433322234555689BBBAAABBBAA999A99866556543345676",
"8789AAA988AABBA9999987655566665566665444455455566777666777878899A988866554444444443333444567899ACCCCBBBBAA9889887655544433345677"
};