/* XPM */
static char * waves_xpm[] = {
"128 128 16 1",
"0 c #000000",
"1 c #111111",
"2 c #222222",
"3 c #333333",
"4 c #444444",
"5 c #555555",
"6 c #666666",
"7 c #777777",
"8 c #888888",
"9 c #999999",
"A c #AAAAAA",
"B c #BBBBBB",
"C c #CCCCCC",
"D c #DDDDDD",
"E c #EEEEEE",
"F c #FFFFFF",
"8BDDDB98888887655455678ABCDEEDCA863112367888779BCDDC974321123456889AAA98766677765322369CDCB988899987655555679ACDDEEDC97421124688",
"CEFDB864445566677889ABBBBBBAA97653212369CDDCA989999753211135789ABBAA87543223567876668BDEDB864445667777889AAABBBBAA98764211358ACD",
"BCB9631124679ABBBBBBA98776655666666668ACEFDB8544455655445679AAAA9865321012368ACCBA989ABB9631113579ABBCCBBA987666666677766679BDED",
"7765322358BCDDDCBA8764333345689BBBBA989ABB9741113689AAA99998876543211112468BDEFDB86567765311247ACDEEDCA9764322235689BCCBA9889AA9",
"56765568ACEEECA9754221224578ACDEECA86445676543347ACDEDBA86543221112234578ACDEEC964223566654579CDEEDCA754211113468ACDEEEC97544566",
"8AAA989ABCCBA8643222235679ABCCDCBA74211247898778ACDEDB9643111123456678999AAAA975211258AAA9889BCCCA97532212245689BCDDDCB863111468",
"DEDB987888876543334567899AA99998865321247ACDCA9889AA97542222345678888877667776532246ACEDCA8878888754333445678999999998764212369C",
"EEC9644456666556678899887665555667665568ADEEC97555666655445678899887654334567766568ADEEDA754456666555677888888765445566665567ACE",
"DB8421235678889999988764322223568AAA9889BCDC964212467888889999876654322245789A98889BCDC96322346788889999987654321224579AA9989ACD",
"9742012579BBBBAA9876532110012479BDEDBA88899874211257ABCCBBA987643222123468ACCCB98889AA853102479ABBBAA9887653211112357ACDDCA9889A",
"75311258ACDDCBA9765321000113479BDFFDB96555666432357ACEEDCB97643211123468ACDEDCA86667876421247ACCCCBA9765432111112457ACEEEC975566",
"6432358BDEEDB98653211011234568ACEEECA74223466655579CDEEDBA7532111123579BCEEEDA85444666543357ACEDCB986543221222345679BCEEDA853234",
"654457ADEEDB975432111123456789ABCDCA85211247888778ACDDDCA8642111234689BDEEEDB85322467765457ACEEDB9754321112344567789BBCCB9632124",
"765579CEEDB97532111223456788899AABA9742002579AA999ABCCCB9754222345689BCDEEDB963112467766679CDEECA75321112234667888999AAA98631124",
"87678ADEECA753211123456788999888999864211358ACBA999AABA987543334578ABCDDEDCA74211357887778ACEEDB85321112235678999888889887532125",
"87779CDEDB9642111224567899998877788764321358BCCBA988999986554445789BCCDDDCB863111367887779BDEECA74321112346789999887777877542225",
"7778ACEEDA85321112346789AAA99877677765322358BDDCA98888887765555689ABCDDDDCA852112468887779CDEDC964321123457899AAA987767776543234",
"6678BDEEDA8532112235679AABAA9876666776432358BDDCB98778888765556789ACDDEEDCA752113567776679CEEDB96432222345789AAAA987766777643224",
"5568BEFEDA8643222345678AABBA9987666776532247ACDCB98778888776656789ABDDEEDCA853223567655579CEEDB97543333345789AABAA98776777653213",
"3458BDFEDB86543333456789AABAA9877777876421358BCCBA98889998766666789BCDEEECB864335666533469CEEDB986544444456789AAAAA9887777763211",
"2247ACEECB9876655555667899AAA99888889875211369BBB99889AAAA9876666789ACDDDCB976566776421258BDDCBA877665555556789AAAAA998889874200",
"11258ACCBA9888887766666778899988889AAA9742124699988889ABCBBA976666778ABCCCBA888899863101369BBBA9999988776656677899999999ABA97410",
"1124689888889AABAA9987766667777788ABCCC963213577766678ABDDDCBA9776666789999999ABCCA742013578988889ABBBA9887666667788889ABCCCA742",
"3235666544568ABCDDCCBA9876655555578ADEECA74345666543458ACDEEEDCA98766666666679BDEECA64334566654568ABCDDCCBA8766655555678ACEEDB75",
"76788753212357ABDEEEEDCB987654333358BDEECA866777653112469BCDEEEEDBA976543323469CEEDB9766787642123579BDDEEEDCB987654333357ACEEDB8",
"99BCBA7421113578ACDEEEEEDCA9764211247ACCCA989AABA7521013468ACDEFFEDCB98642101358BCBA989ABCB8631112468ABDDEEEEDCB98642111369BCCBA",
"8ACEEDB854333456789ABCDEEEEDCA753112368998778ACEDC964222234679ACDEEEDDB9753212467776679BEFEC964333456789ABCDEEEEDCA8631013579988",
"469CDDCA887788776666789ABCEEEDCA75434566653357ADEEDB9754444445678ABCCCCBA876556665422359CDDCA987777776667789ABDDEEDCA75433566654",
"1368988788ABCCCBA9766555689BCDCCB987788864211359BCCBAA98877766555667789999999ABBA742113589988789ABCCBA9876666789BCCCCA9877888753",
"45665432357ACEFFEDCA9765556788999999ABCCB85311357888888899AAA9987655444445679CDEDB864456765433468BDEEEDCBA8766667788988899BCDCA7",
"9AA9742001368ACDEEEDCBA98777666555567ACDEDA8655677654334578ABCCCBA976432112368BCDBA989ABA9631012479ACDDDDDCBA98776655544579BEFEC",
"BDEDB8533345667899ABBCCCCCBBA9864211257ABCBA989ABBA75311123578ABCCCBA8753212357787778ADEEDA753334566789AABCCCCCCBA9864321247ACDC",
"8BCDCA988889887655556789BCDEEEDB964212357887778BDEECA75321112456789AAAA876667776432246ACEDCA88888877655556789ABCDEDDB97421135788",
"478877789BCDDCB976433334579BDEEEDB975455665322469CEEDBA8654333333345677889ABCCB974211368887778ACDDCBA86543334578ACDEEDB976555666",
"6765322358ADEEEDBA875432334679BCCCB9889AA9852112479AAAA99888876543222223468BDEEDB86455676432357ACEEEDCB976433334578ABCCBA9899AA9",
"BBA742112578ABBBBBBA987655445567888778ACDEDA74323466666667899A998754211012479BCCB9889BBA852112468ABBBBBBA9876554455678887779BDDD",
"DEEB964445666666778999A99987776665433469CEFDB976777765322235689999986543334567876668ADEEB964445566777778899999988877766533347ADE",
"BDDCA9899A98754333345679AAABBAA9875311247ACCB999ABCBA86421112345678888877788876422247ACDBA88899A98654333345689AABBBBA9863100258A",
"7898889ACDDCB86432111234679ABCDDCB964212468876679BDEECA86432111123456789ABCCCB853112478887789BDEDCA7542111123568ABCDEECA74211256",
"66543468BDEEDBA86432111123568ABDEEDA86445676532347ACEEDCA9754321001124579BDEFEB96444566543347ADEFECB97532100012457ACDEFEC9643456",
"874211358ABCCBB9876543211122458ACDDCA977899864111368ACCCBBA986542110012469BDEDCA87789875210247ACCCCBA987543211112358ACDEDB977789",
"C96311246788999998887654322123469ABBA999ABCB96310135799AAAAAA987654321234689ABA999ABCCA7421235789999999887654321112468ABBBA989BC",
"EC96434566665556778998876532223468898878ACDECA742234567778899999887654444567777678ACEEC964345666666667789988765332234678988789BD",
"ECA87677776533334567899987644334567766568BDEEC9754455666666778899999877666665443469CEEDA86677776543334567899987654334566766567AC",
"DBA9899AA875321224567899987655555666544468BDEDB9766666665555567899AAAAA998865321247ACDCA9889AA975321123467899998765445666554457A",
"BA989ABCBA853211123567899988766666765433469CDDCA987788776544456789ABBCCBBA9753101379BBB999ABCBA86321112356799AA98766566666433358",
"98889BCDCA864211123457899998877777776432247ACDCBA98899877544445678ABCCDDCBA853101368AA9889BCDCB96321012345789AA98876666776532247",
"87779BDDCB8643211234578899998777777764322369BDDBA98999987654444578ABCDDEDCA852101368998889BDEDB96421112245789AAA9877667777542235",
"7768ACDECA854222223467899AA98877777765321258BDDCB98899987665445679ABCDEEDCA75211246888778ACEEDB86421112346789AAA9987666777643235",
"7678ACDDCA7532222345689AAAAA9876666765422258BDDCB9888888766555678ABCDEEEDC964201247888778ACEEDA8532111235689AABBA987666667654334",
"7789BDEDB8642112345689ABBBBA9865555666533358BDEDB987667776666678ABCDEEEDCA853101357888779BDEEC9742111235689ABBBBA976544566665445",
"888ACDDC9742112245689BCCCCBA8754334567654569BDEDB97544566666789ABCDEEEDCB964200247999888ACDEDB853211234689ACCDCBA975433346666556",
"989BCDCA75211123579ABCDDDCB97542223578877779CEEDB853223456789ABCDDEEEDCB9742101369ABA989ACCCB86311123578ABCDEDCBA864211246788777",
"989ABBA85310124689BCDEEDDBA8642101358ABA999ABDDC96311124689ABCDEEEDDCBA8653111369BCCB9889BBA86321123579BCDEEEDCA87531012479AA988",
"8788998531113579ACDEEEDCB98642111247ACDDBA889AA9742001357ABDEEEEEDCB987643222469CEEDA8778898642112468ACDEEEDCBA87542112369BCCBA8",
"55567764323468ACDDEEDCBA876543333469BEEEC976677764212358ACDEEEDDBA986655444457ACEFEB965556664322468ABCDDDDCBA876654333468BDEEC97",
"2235676655679ACDDCCBA98776666666678ACDDC964234566655568ABDDDDCBA8766556666678ACDEDB853224566655679BCDDCCBA97766667777788ABDDCA74",
"024799998889ABBBA9877777789AABA988899AA9642114689A98889AAAAA98876667789999999ABBBA74201357999889AABBBA9876666679AABBAA9999AA9741",
"258BDDCB988888776666789ABCDEEDCA765556665432469CDDCA877666666677889ABBBBA9877778864211369CCCBA989998876666679ABCDEEDB97555666542",
"79CEFEB9654455556779ABCDEFFEDB974211246888778ACDEDB853222345689ABCDDDCB9754333567664458BDEEC97655556667789ABCDEEEDCA853112457877",
"9BDDCA74211346789BCDDEDDDCCA9754211247ACDCA999AAA97421012468ABDDEDDCA87531112479AA9889ACDCA85322345789BCCDDDDDCBB98643111369BCCB",
"8999753112368ACDDEEDCBA98777665555568BDEECA755566654333468ABCCCCBA875432112369CDECB988899863101357ACDEEEEDCB98877666554557ACEEDB",
"45665433469BDEEEDCA97655556789AAA9999ABBB86311246899988899999887654433445578BDEEDA75334666543457ACDEEDCBA8765556789AAA9989ABBB96",
"358998778ABCDCBA9765444568ABDEEDCA86556665422358BDEDCA976554433444567788899ABBBA852112579988789ABCCBA9765544568ABDDEDCA865566765",
"7ACDCA988899887665556789ACDDEDDB864212357887779BDEEDA85321112356789AAA9877667776432247ACEDBA88888877655556789BCDDEDDB97421135788",
"CEEDA75334556777889AAABBBBAAA98754222369BCCB9889AAA864211124679AABAA98643223467766679BEFEC964334556677899ABBBBBBAA98754322368BDD",
"BCA8521013579ABBCCCBA98765555677777678ACDDCA74335677655556789AA99875431112358ABBA989ABCCA7421135689ABBCBBBA98765555666666789CEEE",
"7764211257ACEEEDCA975432223568ABCCBA9899AA863101368ABAA99988776543221123468ACEECA866678764212479BDDDDCB9865432234579ABBBA999ABBA",
"67765557ACEEEDB9754211123468ACEFFDB96545566532247ACEEDBA86543211122345679ABDDDB963123567665679BDEEDB97643221234679BCEEDC97545666",
"9ABA988ABCCBA8643221234578ABCDDDCA85211247888778ACDEDB96421101123567899AAAAAA974200258AAA9899BBCCA97532222345789ABCCCCA853112468",
"DEDB9878898765433345678999999998875321247ACDCA989AAA975421123456789998877777765322469CDDCA8788888654333456788999999888754212369C",
"EEC9644456666556677889887665555566665568ADFECA7555666655445678888877654344567776668ADEECA7544566665566778898887655555666655579CE",
"CA84212357788888999987654322234689AA9889BCDCA7421245788889999987654322123579AAA999ABCCB95311346788889999887654322234679AA9888ABD",
"9742113579ABBAA99876543211112469BCDCB98889A9752102479BCCCBBA97653211112468ACDDBA989AA9852002479ABBBAA9876543211112468BCDDCA87789",
"65311369BCDCBA98654322111223468BDEEDB86556676432247ACDEDDBA86532111123579BDEEDB97667875311247ACDDCBA9764321100123468BDEFEC975456",
"6433469BDEECA97543211112344678ACDDDC964224567654568BDEEDCA8643211123468ACDEEDB86444666532247ADEEDCA8653211001234568ACDEECA742224",
"654568BDFEDB864321111234567789ABCCCA852113578877789BCDDCA8653222234579ACDEEDB96423456654457ACEFECA86432111123456789ABCCCB8631114",
"76668ACEFEC964321111235677889999AAA974211368AAA9889ABBBA9764333345689BCDEEDC964212467765569BDEEDA8642211123456788999AAAA97521024",
"77679BDEECA753211122456789998888888864211369BCBA9999AAA9865443445789BCDDDDCA74211357777668ACEEDB96422111234678899988889987531124",
"8778ACEEDB9642111234567899998877777765322369BDCBA988999876554455689ACDDDDDB963112467887779BDEECA75321112346789999988777776532125",
"7678ACEEDB86421112346789AAA98776777765422358BDDCA98888887765455679ABCDEEDCA853112468887779BDEDB96421112345789AAA9987766777542224",
"7668ACEECA85422223456789AAAA9877667765422247BDDCB98888888765555689ACDEEEDCA74211246887668ACEEDB86422122346789ABAA987766677653224",
"5568ADEECA86433333456789AAAA99877777764311369CDDBA9889998766555679ACDEEEECA75322356776567ADEEDB86432223456789ABBA998766777754223",
"4457ACEDCA865444444567889AAAAA988788875311247ACCCA9999999876555678ABCEEEEDA85323456654457ADEEDB975443344566789AAAA98877788865312",
"22369CDDCA98766655555667899AAA9989999864200258ABBA999AABA9876656678ABDDEEDB975456665422369CDDDB98766655555677899AA99888899986311",
"11258ABBA999999887766556678899999AABBA963101368999889ABCCBA9876666789BCCCCB987778876311247ABBBA9888888876666677788988889ABBA8521",
"1124688887889ABBBA9976655666778889ACDDC963112467776678ABCDCBA98776677899AA99889ABBA742113688988789AABBBA9887666667777789BCDCA742",
"3334666544568ACDDDDCA98766555555679BDEEC964345666544467ABDDDDCBA98766666666678ACDDCA743345665444679BCDDDCBA9876555555568ACEEDB85",
"66778753212358ACDEEEEDBA987654323358BDEECA766788753212468ACDEEEDCBA976654323469BDEDB9766787642113579BCEEEEDCBA87654332347ACEEDA8",
"89BCBA7521113579ACDEEFEEDBA97532102469BCCB999ABBA8521012468ACDEEEEDCB97642101369BCCA999ABBB8531012468ABDEEEEEDCB98643111358BCCB9",
"79CEEDB854333456789ACDEEEEEDCA742101357998889ADEEC964222235689BCDDEEDCB9643223468876679BDEDB964333455678ABCDEEEEDCA8642112578987",
"36ACDDCA88777776666778ABCDEEEDC975333466654457ADEECA86554445567789ABCCBA9876566776422358BDDCA988787776666778ABCDEFEDB86433456654",
"1368999888ABBCBA9876666689ABCDCBA877788875311358ABBBA98888877766556677888889ABBBA85201257898889ABCCCBA9765555689BCDDCB9877788753",
"45676543357ACDDDDCBA98766667889998889BCCB9632234677777789ABBBAA8765433334468ACEFEC864345665433579CDEEEDCA97655567899999899ABCB97",
"9ABA8531123689BCDDDDCBBA9877666544457ACEFDB8655566543333579ACCDCBA875421011369CDDCA9889A9863111358ABCDDDDCBA998777666544568BDEDB",
"BDEEC9643344567789AABCCCCCCBA9754211247ACDCB999AAA974210124579ACCCBA98643222467887678ACDDCA743345667789AABBBCCCCBA98753111369BCC",
"7BDDDB98889887765555678ABCDEEDCA853212368888779BDEDCA75311123456789AAA98776777765322369CDCB988889987655556679ACDEEEDB97421124678",
"468887789BCDDCB986433334679BCEEECB96544566543347ACDEDBA8654433333345567789ABCCBA74211367887778ACDDDBA86543334578ACEEEDC975445665",
"6665322358BDEEEDCA875433334679ABCBA98899A9852112479ABAA99888776533221223468BDEEDB86556776422247ACDEEDCA976433334579ABCCBA9889AA8",
"BB9742012468ABBBCBBA9876554455678887789BDDCA743335677666678899998654311112479BCCA999ABCB8531124689ABBBBBA9976554455677888789BDED",
"EEDB854345666667788999999988777765433468BDEDB976788875432335678999987643333567766568BDFEC975445566666678999999988776665543458BDE",
"CDDB988899987654333456789AABBBBA9853111369ABA989ABCCB96421111245678999988777765321248BDDCB98899997643333456789AAAAAAA9864211369B",
"8988778ACDDDB97532111224568ABCDEDCA74212357766679BDEEDB8642100012356789ABBCCBA74200257998888ABDDDB975322112345689ABCDDCA75322357",
"66533358BDEEDCA87532100012468ACEFFEB86444666432358ADEEDCA865321000123468ABDEEDB85334566643457ACEEDCA975432111123578BCEEDB9754566",
"874201258ACCCCBA986542110012468ACEEDB977889863112469BCCCBA9876432111123479BDDDBA877899853112479BCCBBA9876532211123479BDDDB987889",
"B96311246789999999987653211113579BBBA999ABCB9631124689AAAA99987654432223568AAAA989ABCCA7421135788889999988764321112358ABBBA999BC",
"DB85434566666666788998876432223467898888ABDDCA742235677788888998877654445567776678ADEECA74344566655567788998765432224578998789BD",
"ECA86677776433334678999987643334567766568ADEECA754556666666778899998877666665543469CEEDB876777765433345678999876543345677765679C",
"DBA8899AA86431112356799A998765455666544468BDEDB9766677666555667899AAA99988765321258BDDCA9889AA975321123457899998765555666654457A",
"BA999ACCBA7521001235689AA998766566665433469CDDCA877777776555556789AABBBBAA9753111469BBA989ABCCA864211123457899998766666765432358",
"A988ABDDDB85310011246789AA99876667765432358BDDCB987788887655555679ABBCCCCBA853111468999889ACDDC974311112356789999887777776432246",
"8778ACEEDB85311011345789AAA98776677765322469CDDBA87788887655555678ABCCDDDCA853112468887779BDEECA75321112356789999987777776532135",
"7778BDEEDB8532111234678AAAA98876666765432369BDDCA87778887765556689ABCDDDDCA853112468876679BDEDC974322122456899AAA987767776532124",
"7679BDFEDA7532112345789ABBAA8766556666432359BDDCB9877777776656678ABCCDEDDB975312357887667ACEEDB8642222234678AABBA987666666543224",
"7789CDEDB9642112235689ABCCBA9765445566543469CEEDB976666777666778ABCCDEEDCA863212368987778ADEDC9753212234678ABBCBB987655556654334",
"888ACDDCA74211123568ABCDDCBA8753334566655569CEEEB97544556667789ABCDDDDDCB9642112479998789BDDCA853211234679ABCDDCB976433456665445",
"989ACCCA75211124578ACDDDDCB97532123567877779CDEDB853334566789ABCDDEEDDCA9742101369ABA989ACDCB853111234689BCDDDDBA864322246788767",
"989ABB97521012468ABCDEEDCBA86421113589AA9889BCDC96421234679ABCDEEEEDCBA8653101359BCCB999ABBA86310023579ACDEEEDCA86431112579AAA98",
"8778987531113579BCDEEEDCB98643211247ACDCB9889AA97521123589BCDEEEEDCBA87653212358BDEDB9888998642112468ACDEEEECBA86532111369CDDCA9",
"65567654223468ACDEEDDBA987654433457ACEEDB865567764322358ACDEEEDDCA9876655444569BDEDB9655677653223579BDEEEDDBA876543323468BDFEDA7",
"223566655568ABCDDDCB987666666677789BDEEC953224566665568ABCDCCBA987766677776789BCDDB853234676655578ACDDDDCB98766666666678ACDEDB74",
"12468998889ABBCBBA8776666789ABBA9999AAA863101369AAA9999AAAA98776667789AAA99899AAA9742113689998789AABBBA9887777889AAAA98889ABA742",
"247ACCBA9888999877666789ABCDEDCA86555666532246ACEDCB98766555556678ABCCCCB987667776421247ACDCB9888888777777789ABCDDDCA86545677643",
"69CEEDB8655455667789ABCCDEEEDB9742113467876679CEEDB964322234678ABCDDDDBA864333566654468BEFEC9754445556789ABCDEEEEDCA753112467887",
"9BCDC96421234679ABCDDDDDDCBA9764211247ACCCA989ABB975311124689BCDDDDCA97531112469AA9889BDDDA85211235789ABCDEEDDCCBA8642112369BDCB",
"8899752101368ACDEEEDCBA98776666554568BDEEC97545666654345689BCDCCBA875422112469BDEDB9889998631113579BDDEEDDCB98877666555568ACEEDB",
"45666433468BDEEEDCB9765556678AAAA9989ABBA86311246899888899AA9987654433344568BDEEDA75334666543458ACEEEDCB98655556789AAAA999ABBB97",
"368998888ABCCCB98755445679ACDEEDCA76556766432347ACDDCA876655444445566788889ABCBA852112478988889BCDDCA97654445689BDEEECB875556665"
};